<svg width="46" height="27" viewBox="0 0 46 27" fill="none" xmlns="http://www.w3.org/2000/svg">
<path d="M26.1084 8.05566H19.8897V19.353H26.1084V8.05566Z" fill="#FF5F00"/>
<path d="M20.2852 13.7061C20.2852 11.4107 21.3512 9.37477 22.9898 8.05741C21.7856 7.09934 20.2654 6.52051 18.6071 6.52051C14.6784 6.52051 11.5 9.73403 11.5 13.7061C11.5 17.6781 14.6784 20.8916 18.6071 20.8916C20.2654 20.8916 21.7856 20.3128 22.9898 19.3547C21.3512 18.0573 20.2852 16.0015 20.2852 13.7061Z" fill="#EC001B"/>
<path d="M34.4995 13.7021C34.4995 17.6742 31.3211 20.8877 27.3925 20.8877C25.7341 20.8877 24.214 20.3089 23.0097 19.3508C24.668 18.0335 25.7144 15.9975 25.7144 13.7021C25.7144 11.4068 24.6483 9.37086 23.0097 8.0535C24.214 7.09543 25.7341 6.5166 27.3925 6.5166C31.3211 6.5166 34.4995 9.75009 34.4995 13.7021Z" fill="#F89E1B"/>
</svg>
