<svg width="127" height="155" viewBox="0 0 127 155" fill="none" xmlns="http://www.w3.org/2000/svg">
<path d="M63.2267 0.0207384C62.6922 0.0712422 62.1909 0.301573 61.8056 0.673755L52.1856 10.3058L41.0898 5.57138C40.8029 5.44797 40.4943 5.38247 40.1818 5.37869C39.8694 5.3749 39.5592 5.43285 39.2694 5.54927C38.9796 5.66569 38.7159 5.83826 38.4936 6.05689C38.2713 6.27553 38.0947 6.53594 37.9742 6.823L33.1642 17.9243H20.374C19.7516 17.9272 19.1554 18.1747 18.7153 18.6129C18.2752 19.0511 18.0266 19.6446 18.0237 20.2643V32.9981L6.87322 37.7869C6.3044 38.0295 5.85399 38.4848 5.61888 39.0548C5.38377 39.6247 5.38276 40.2636 5.61606 40.8343L10.3714 51.9356L0.696744 61.5132C0.462727 61.7447 0.280051 62.0225 0.160491 62.3287C0.0409307 62.6349 -0.0128592 62.9626 0.00259028 63.2908C0.0180397 63.6189 0.102384 63.9402 0.250187 64.2338C0.397991 64.5275 0.605972 64.7871 0.860721 64.9959L10.3714 72.8321L5.5614 85.6204C5.348 86.1913 5.3655 86.8223 5.6102 87.3807C5.8549 87.939 6.3077 88.3809 6.87322 88.6135L18.0237 93.4023V101.891L0.36879 131.767C0.159818 132.123 0.0485736 132.527 0.0462184 132.94C0.0438633 133.352 0.15048 133.758 0.355372 134.116C0.560264 134.475 0.856221 134.773 1.21355 134.981C1.57088 135.19 1.977 135.301 2.39118 135.304H24.4734L36.3344 153.915C36.5538 154.257 36.858 154.536 37.2178 154.726C37.5775 154.916 37.9804 155.01 38.3875 154.999C38.7945 154.988 39.1918 154.873 39.5408 154.664C39.8898 154.455 40.1786 154.16 40.3792 153.807L58.854 122.136L61.6963 125.51C61.9179 125.771 62.1942 125.981 62.5057 126.125C62.8172 126.269 63.1565 126.343 63.5 126.343C63.8435 126.343 64.1828 126.269 64.4943 126.125C64.8058 125.981 65.0821 125.771 65.3037 125.51L68.146 122.136L86.6208 153.807C86.8214 154.16 87.1102 154.455 87.4592 154.664C87.8082 154.873 88.2055 154.988 88.6125 154.999C89.0196 155.01 89.4225 154.916 89.7822 154.726C90.142 154.536 90.4462 154.257 90.6656 153.915L102.527 135.304H124.609C125.023 135.301 125.429 135.19 125.786 134.981C126.144 134.773 126.44 134.475 126.645 134.116C126.85 133.758 126.956 133.352 126.954 132.94C126.951 132.527 126.84 132.123 126.631 131.767L108.976 101.891V93.4023L120.127 88.6135C120.692 88.3809 121.145 87.939 121.39 87.3807C121.634 86.8223 121.652 86.1913 121.439 85.6204L116.629 72.8321L126.139 64.9959C126.394 64.7871 126.602 64.5275 126.75 64.2338C126.898 63.9402 126.982 63.6189 126.997 63.2908C127.013 62.9626 126.959 62.6349 126.84 62.3287C126.72 62.0225 126.537 61.7447 126.303 61.5132L116.629 51.9356L121.384 40.8343C121.617 40.2636 121.616 39.6247 121.381 39.0548C121.146 38.4848 120.696 38.0295 120.127 37.7869L108.976 32.9981V20.2643C108.973 19.6446 108.725 19.0511 108.285 18.6129C107.845 18.1747 107.248 17.9272 106.626 17.9243H93.8358L89.0258 6.823C88.9053 6.53594 88.7287 6.27553 88.5064 6.05689C88.2841 5.83826 88.0204 5.66569 87.7306 5.54927C87.4408 5.43285 87.1307 5.3749 86.8182 5.37869C86.5057 5.38247 86.1971 5.44797 85.9102 5.57138L74.8144 10.3058L65.1944 0.673755C64.938 0.422991 64.6274 0.233813 64.2864 0.120647C63.9454 0.00748038 63.583 -0.0266868 63.2267 0.0207384ZM63.5 5.73464L72.6281 14.768C72.9602 15.0926 73.3812 15.3122 73.8382 15.3994C74.2953 15.4865 74.768 15.4373 75.197 15.2578L85.6369 10.7955L90.0643 21.1894C90.2489 21.6129 90.5547 21.9729 90.9435 22.2245C91.3324 22.4761 91.787 22.6082 92.2507 22.6042H104.276V34.5762C104.282 35.0286 104.42 35.4694 104.672 35.8459C104.924 36.2223 105.28 36.5184 105.697 36.6985L116.137 41.1608L111.655 51.5546C111.474 51.9818 111.425 52.4524 111.512 52.9074C111.6 53.3625 111.821 53.7817 112.147 54.1123L121.111 63.0369L112.311 70.3289C111.936 70.6384 111.667 71.0554 111.54 71.5229C111.413 71.9904 111.434 72.4857 111.6 72.9409L116.191 85.1307L105.697 89.6473C105.271 89.8311 104.91 90.1356 104.657 90.5227C104.404 90.9098 104.272 91.3624 104.276 91.824V102.436C104.259 102.598 104.259 102.763 104.276 102.925V103.796H92.2507C91.787 103.792 91.3324 103.924 90.9435 104.176C90.5547 104.427 90.2489 104.787 90.0643 105.211L85.5823 115.659L73.3386 111.088C72.8743 110.91 72.3653 110.883 71.8843 111.01C71.4033 111.137 70.975 111.412 70.6603 111.796L63.5 120.339L56.3397 111.796C56.025 111.412 55.5967 111.137 55.1157 111.01C54.6347 110.883 54.1257 110.91 53.6614 111.088L41.4177 115.659L36.9357 105.211C36.7511 104.787 36.4453 104.427 36.0565 104.176C35.6677 103.924 35.213 103.792 34.7493 103.796H22.7243V102.871C22.7602 102.637 22.7602 102.398 22.7243 102.163V91.824C22.7283 91.3624 22.5956 90.9098 22.3429 90.5227C22.0902 90.1356 21.7286 89.8311 21.3032 89.6473L10.8087 85.1307L15.4 72.9409C15.5663 72.4857 15.5873 71.9904 15.4601 71.5229C15.3329 71.0554 15.0637 70.6384 14.6895 70.3289L5.88935 63.0369L14.8534 54.1123C15.1794 53.7817 15.4 53.3625 15.4876 52.9074C15.5751 52.4524 15.5256 51.9818 15.3454 51.5546L10.8633 41.1608L21.3032 36.6985C21.7201 36.5184 22.0759 36.2223 22.328 35.8459C22.5801 35.4694 22.7177 35.0286 22.7243 34.5762V22.6042H34.7493C35.213 22.6082 35.6677 22.4761 36.0565 22.2245C36.4453 21.9729 36.7511 21.6129 36.9357 21.1894L41.3631 10.7955L51.803 15.2578C52.232 15.4373 52.7047 15.4865 53.1618 15.3994C53.6188 15.3122 54.0398 15.0926 54.3719 14.768L63.5 5.73464ZM19.6634 108.367C19.8934 108.439 20.133 108.475 20.374 108.475H33.1642L37.9742 119.576C38.2179 120.13 38.666 120.568 39.2258 120.801C39.7855 121.034 40.4138 121.044 40.9805 120.828L53.7707 116.094L55.5744 118.27L38.2475 148.091L27.753 131.712C27.5369 131.374 27.2377 131.096 26.8838 130.906C26.5299 130.715 26.1329 130.618 25.7306 130.623H6.4906L19.6634 108.367ZM107.337 108.367L120.509 130.624H101.269C100.867 130.619 100.47 130.716 100.116 130.907C99.7623 131.097 99.4631 131.375 99.247 131.712L88.7525 148.092L71.4256 118.271L73.2293 116.094L86.0195 120.829C86.5862 121.045 87.2145 121.035 87.7742 120.802C88.334 120.569 88.7821 120.13 89.0258 119.577L93.8358 108.476H106.626C106.867 108.476 107.107 108.439 107.337 108.367Z" fill="white"/>
<path d="M49.7841 62.3731L58.1364 71.1493L79.2159 49L82 51.9254L58.1364 77L47 65.2985L49.7841 62.3731Z" fill="white"/>
</svg>
