<svg width="46" height="28" viewBox="0 0 46 28" fill="none" xmlns="http://www.w3.org/2000/svg">
<path fill-rule="evenodd" clip-rule="evenodd" d="M26.3974 10.0713C27.2623 10.0713 27.9617 10.2646 28.4027 10.4396L28.0987 12.3078L27.8965 12.2159C27.4919 12.041 26.9579 11.8662 26.231 11.8846C25.3483 11.8846 24.9524 12.2618 24.9432 12.63C24.9432 13.035 25.4221 13.3019 26.2041 13.6977C27.4923 14.3144 28.0897 15.069 28.0808 16.0539C28.0627 17.8486 26.5354 19.0084 24.1895 19.0084C23.1864 18.9991 22.2203 18.787 21.696 18.5479L22.0088 16.6059L22.3032 16.7441C23.0301 17.0666 23.5084 17.2043 24.401 17.2043C25.0447 17.2043 25.7349 16.9372 25.7437 16.3576C25.7437 15.9802 25.4496 15.7039 24.5847 15.2805C23.7383 14.8662 22.6068 14.176 22.6252 12.9334C22.6347 11.2493 24.1895 10.0713 26.3974 10.0713ZM18.0622 18.8793H20.298L21.6963 10.228H19.4606L18.0622 18.8793ZM31.3743 15.8145C31.5584 15.3175 32.2669 13.3939 32.2669 13.3939C32.2632 13.4013 32.2924 13.3202 32.3359 13.1997L32.3359 13.1995C32.4001 13.0215 32.4953 12.7576 32.5611 12.5656L32.7173 13.3111C32.7173 13.3111 33.1407 15.382 33.2327 15.8145H31.3743ZM34.1341 10.228H32.4047C31.8714 10.228 31.4662 10.3843 31.2361 10.9458L27.9151 18.8792H30.2611C30.2611 18.8792 30.6473 17.8114 30.7303 17.5815H33.6009C33.6651 17.8852 33.8677 18.8792 33.8677 18.8792H35.9378L34.1341 10.228ZM16.1938 10.228L14.0042 16.1274L13.765 14.9312L13.7654 14.9323L12.9834 10.9562C12.8547 10.4037 12.4591 10.2472 11.9715 10.229H8.37429L8.33749 10.4038C9.21475 10.6282 9.99936 10.9517 10.6869 11.3538L12.6794 18.8702H15.0437L18.558 10.228H16.1938Z" fill="#00579F"/>
</svg>
