<svg width="30" height="30" viewBox="0 0 30 30" fill="none" xmlns="http://www.w3.org/2000/svg">
<path d="M30 14.9511C30 6.70699 23.2709 0 14.9998 0C6.72872 0 0 6.70699 0 14.9511V15.3759H0.253657L12.5362 27.2171V30H17.4641V27.333L17.4713 27.3401L29.7477 15.3755H30V14.9511ZM14.9998 0.849589C22.6586 0.849589 28.9155 6.94624 29.1415 14.5263H24.3752C24.1519 9.56467 20.032 5.59675 14.9998 5.59675C9.96761 5.59675 5.84774 9.56467 5.62408 14.5263H0.858818C1.08452 6.94624 7.34138 0.849589 14.9998 0.849589ZM16.8071 25.0877H16.6087L21.9041 9.96228C22.9048 11.3339 23.5035 13.0133 23.5297 14.8291L16.8071 25.0877ZM14.0858 25.0877L10.2721 7.87535C11.5155 7.04717 12.9883 6.53538 14.5737 6.45721V25.0877H14.0858ZM13.1929 25.0877L6.47029 14.8294C6.50643 12.2653 7.68572 9.97247 9.52337 8.43574L13.2126 25.0877H13.1929ZM15.426 6.45721C17.7328 6.57072 19.8006 7.60246 21.271 9.19153L15.7056 25.0877H15.426V6.45721ZM1.47966 15.3759H5.81023L12.5362 25.6389V26.0348L1.47966 15.3759ZM16.6118 29.1504H13.3886V25.9373H16.6118V29.1504ZM17.4641 26.1592V25.6392L24.1898 15.3759H28.5292L17.4641 26.1592Z" fill="black"/>
<path d="M14.9998 4.65269C20.06 4.65269 24.3442 8.25936 25.1873 13.2284L25.2473 13.5825H28.1395L28.0706 13.0983C27.1556 6.6533 21.5363 1.79331 14.9998 1.79331C8.46408 1.79331 2.84511 6.6533 1.9297 13.0983L1.86083 13.5825H4.75197L4.81197 13.2284C5.65545 8.25936 9.93999 4.65269 14.9998 4.65269ZM4.03771 12.733H2.85227C3.91395 6.94726 9.05083 2.6429 14.9998 2.6429C20.9492 2.6429 26.0867 6.94726 27.1481 12.733H25.962C24.9102 7.53721 20.3563 3.8031 14.9998 3.8031C9.64372 3.8031 5.08984 7.53721 4.03771 12.733Z" fill="black"/>
</svg>
