<svg width="30" height="16" viewBox="0 0 30 16" fill="none" xmlns="http://www.w3.org/2000/svg">
<path fill-rule="evenodd" clip-rule="evenodd" d="M4.09927 2.09079C4.18462 1.82121 4.41758 1.58909 4.68428 1.58909H5.51596C5.87087 1.58909 6.15859 1.89606 6.15859 2.27474V13.5894C6.15859 13.9681 5.87087 14.2751 5.51596 14.2751H4.38449C4.02958 14.2751 3.74187 13.9681 3.74187 13.5894V6.21671C3.74187 5.83803 3.45416 5.53105 3.09925 5.53105H1.54229C1.18738 5.53105 0.899671 5.22408 0.899671 4.8454V4.48443C0.899671 4.1177 1.17042 3.81771 1.51327 3.7918C1.94485 3.75918 2.26791 3.71777 2.48245 3.66758C2.94197 3.56007 3.33341 3.34505 3.63975 3.00461C3.84398 2.77168 3.99716 2.46707 4.09927 2.09079ZM2.98648 2.34455C2.82271 2.5246 2.60094 2.65713 2.28975 2.72994C2.14108 2.76473 1.87097 2.80244 1.4497 2.83428C0.652311 2.89455 0 3.59643 0 4.48443V4.8454C0 5.75422 0.690508 6.49097 1.54229 6.49097H2.8422V13.5894C2.8422 14.4983 3.5327 15.235 4.38449 15.235H5.51596C6.36775 15.235 7.05826 14.4983 7.05826 13.5894V2.27474C7.05826 1.36592 6.36775 0.629171 5.51596 0.629171H4.68428C3.92467 0.629171 3.41767 1.24427 3.24692 1.78358L4.09927 2.09079L3.2351 1.82381C3.16455 2.08375 3.07322 2.24407 2.98648 2.34455ZM9.64504 14.0821L9.64119 14.0779C8.80281 13.1511 8.35068 12 8.35068 10.6877C8.35068 9.80129 8.56296 8.99277 8.9453 8.27717C9.09339 7.99998 9.26905 7.74082 9.47436 7.50479C9.47496 7.50411 9.48507 7.49181 9.49606 7.46186C9.50703 7.43195 9.51549 7.3933 9.51772 7.3504C9.5222 7.26394 9.50065 7.21918 9.49749 7.21262C9.4971 7.21179 9.49699 7.21158 9.49727 7.21196C9.33478 6.98737 9.20042 6.74565 9.09954 6.48494L9.09396 6.47053L9.08883 6.45593C8.89185 5.89601 8.77616 5.3496 8.77616 4.79267C8.77616 3.59095 9.20605 2.547 10.0529 1.72194C10.9198 0.860016 12.1063 0.5 13.4541 0.5C14.8118 0.5 15.9736 0.865091 16.851 1.71783C17.7007 2.54353 18.132 3.58896 18.132 4.79267C18.132 5.34961 18.0163 5.89601 17.8193 6.45593C17.7268 6.71908 17.5964 6.95949 17.4378 7.17709C17.4311 7.18625 17.4185 7.20778 17.4076 7.24385C17.3967 7.27974 17.3905 7.32074 17.3904 7.36145C17.3902 7.42992 17.4056 7.4601 17.4074 7.46394C17.6219 7.71349 17.8068 7.98508 17.9629 8.27717L17.9683 8.28727L17.9734 8.29751C18.3365 9.01699 18.5234 9.81939 18.5234 10.6877C18.5234 12.0181 18.0407 13.1821 17.1174 14.11C16.1544 15.0778 14.8514 15.5 13.352 15.5C11.855 15.5 10.5688 15.0784 9.64895 14.0864L9.64504 14.0821ZM9.93112 6.11861C9.76093 5.63482 9.67583 5.20479 9.67583 4.79267C9.67583 3.86093 9.9992 3.07254 10.6629 2.42749C11.3097 1.78244 12.2457 1.45992 13.4541 1.45992C14.6624 1.45992 15.5815 1.78244 16.2452 2.42749C16.909 3.07254 17.2323 3.86093 17.2323 4.79267C17.2323 5.20479 17.1472 5.63482 16.977 6.11861C16.9191 6.28336 16.8355 6.4398 16.7275 6.58792C16.4187 7.01184 16.4003 7.71384 16.7411 8.10897C16.9109 8.30588 17.0572 8.52041 17.1813 8.75256C17.4706 9.32594 17.6238 9.97098 17.6238 10.6877C17.6238 11.7449 17.2494 12.6587 16.5005 13.4113C15.7517 14.1638 14.6965 14.5401 13.352 14.5401C12.0075 14.5401 10.9863 14.1638 10.2885 13.4113C9.60776 12.6587 9.25035 11.7449 9.25035 10.6877C9.25035 9.97098 9.42054 9.32594 9.72689 8.75256C9.84275 8.53571 9.97808 8.33681 10.1338 8.15778C10.4771 7.76308 10.5178 7.05166 10.2094 6.6254C10.0915 6.46239 9.999 6.29403 9.93112 6.11861ZM12.9807 5.50734L13.0001 5.5291C13.0533 5.5889 13.1731 5.67831 13.4541 5.67831C13.7163 5.67831 13.8525 5.59971 13.935 5.51765C14.0081 5.43081 14.0691 5.3016 14.0691 5.06144C14.0691 4.78242 14.0047 4.64168 13.9443 4.56323C13.8675 4.49761 13.7279 4.42665 13.4541 4.42665C13.1435 4.42665 13.0223 4.51729 12.9797 4.56213L12.97 4.57234L12.9601 4.58223C12.9143 4.62755 12.8391 4.72392 12.8391 5.06144C12.8391 5.33931 12.902 5.42935 12.9601 5.4869L12.9807 5.50734ZM14.5773 3.87885C14.8326 4.16554 14.9688 4.55974 14.9688 5.06144C14.9688 5.52731 14.8326 5.90359 14.5773 6.19028C14.305 6.47697 13.9306 6.63823 13.4541 6.63823C12.9775 6.63823 12.6031 6.47697 12.3478 6.19028C12.0585 5.90359 11.9394 5.52731 11.9394 5.06144C11.9394 4.55974 12.0585 4.16554 12.3478 3.87885C12.6031 3.61008 12.9775 3.46674 13.4541 3.46674C13.9306 3.46674 14.305 3.61008 14.5773 3.87885ZM14.7305 11.9599C15.0369 11.6194 15.19 11.1357 15.19 10.5085C15.19 9.86348 15.0369 9.37969 14.7305 9.03925C14.4072 8.6988 13.9817 8.53754 13.4541 8.53754C12.9265 8.53754 12.501 8.6988 12.1947 9.03925C11.8713 9.37969 11.7181 9.86348 11.7181 10.5085C11.7181 11.1357 11.8713 11.6194 12.1776 11.9599C12.484 12.3182 12.9095 12.4795 13.4541 12.4795C13.9987 12.4795 14.4242 12.3182 14.7305 11.9599ZM14.0895 9.71307C13.9691 9.59084 13.7899 9.49746 13.4541 9.49746C13.1031 9.49746 12.9382 9.59898 12.8436 9.70405L12.8352 9.71341L12.8266 9.72252C12.7297 9.82447 12.6178 10.0236 12.6178 10.5085C12.6178 10.9716 12.7283 11.1859 12.8266 11.2951L12.8346 11.3039L12.8424 11.313C12.9312 11.4169 13.083 11.5196 13.4541 11.5196C13.8252 11.5196 13.977 11.4169 14.0658 11.313L14.0736 11.3039L14.0815 11.2951C14.1798 11.1859 14.2904 10.9716 14.2904 10.5085C14.2904 10.0364 14.1838 9.82273 14.0895 9.71307ZM22.6184 5.35572V3.41768C22.6184 2.50886 23.3089 1.77211 24.1607 1.77211H25.0539C25.9057 1.77211 26.5962 2.50886 26.5962 3.41768V5.35572H28.4577C29.3095 5.35572 30 6.09247 30 7.00129V7.92349C30 8.83231 29.3095 9.56906 28.4577 9.56906H26.5962V11.525C26.5962 12.4338 25.9057 13.1706 25.0539 13.1706H24.1607C23.3089 13.1706 22.6184 12.4338 22.6184 11.525V9.56906H20.7568C19.9051 9.56906 19.2145 8.83231 19.2145 7.92349V7.00129C19.2145 6.09247 19.9051 5.35572 20.7568 5.35572H22.6184ZM22.8754 6.31563C23.2303 6.31563 23.518 6.00866 23.518 5.62998V3.41768C23.518 3.039 23.8058 2.73203 24.1607 2.73203H25.0539C25.4088 2.73203 25.6965 3.03901 25.6965 3.41768V5.62998C25.6965 6.00866 25.9842 6.31563 26.3391 6.31563H28.4577C28.8126 6.31563 29.1003 6.62261 29.1003 7.00129V7.92349C29.1003 8.30217 28.8126 8.60914 28.4577 8.60914H26.3391C25.9842 8.60914 25.6965 8.91612 25.6965 9.2948V11.525C25.6965 11.9037 25.4088 12.2107 25.0539 12.2107H24.1607C23.8058 12.2107 23.518 11.9037 23.518 11.525V9.2948C23.518 8.91612 23.2303 8.60914 22.8754 8.60914H20.7568C20.4019 8.60914 20.1142 8.30217 20.1142 7.92349V7.00129C20.1142 6.62261 20.4019 6.31563 20.7568 6.31563H22.8754Z" fill="black"/>
</svg>
