<svg width="30" height="30" viewBox="0 0 30 30" fill="none" xmlns="http://www.w3.org/2000/svg">
<path fill-rule="evenodd" clip-rule="evenodd" d="M29.8208 29.2153C30.0503 29.3868 30.0604 29.6731 29.8435 29.8544C29.6263 30.0356 29.264 30.0437 29.0345 29.8727C27.9985 29.0982 26.9556 28.6797 25.9059 28.6646C24.8554 28.65 23.7557 29.0382 22.6028 29.878C22.3814 30.039 22.0425 30.0364 21.825 29.878C20.672 29.0382 19.5724 28.6495 18.5219 28.6646C17.4722 28.6793 16.4291 29.0982 15.3933 29.8727C15.1705 30.0391 14.8226 30.0363 14.6039 29.8727C13.569 29.0996 12.5268 28.6819 11.4781 28.6669C10.4277 28.6522 9.328 29.0405 8.17496 29.8803C7.95366 30.0412 7.61467 30.0386 7.39728 29.8803C6.24425 29.0405 5.14456 28.6517 4.09418 28.6669C3.04436 28.6815 2.00133 29.1004 0.965595 29.8749C0.736076 30.0464 0.373641 30.0384 0.156557 29.8566C-0.0605298 29.6754 -0.0504131 29.3891 0.179244 29.2175C1.42674 28.2849 2.7239 27.7802 4.07644 27.7608C5.30103 27.7425 6.53755 28.1233 7.78633 28.943C9.03511 28.1233 10.2716 27.7432 11.4962 27.7608C12.7071 27.7791 13.8738 28.1846 15.0003 28.9389C16.1266 28.1846 17.2933 27.7781 18.5042 27.7608C19.7288 27.7425 20.9653 28.1233 22.2141 28.943C23.4628 28.1233 24.6994 27.7432 25.924 27.7608C27.2763 27.7802 28.5735 28.2849 29.8212 29.2175L29.8208 29.2153ZM5.71442 8.45841C5.69474 8.69016 5.70284 8.9047 5.74076 9.10037C5.80667 9.43693 5.96329 9.71905 6.22295 9.93839C6.43888 10.1207 6.4268 10.407 6.196 10.5776C5.96521 10.7482 5.60282 10.7387 5.38684 10.5564C4.96162 10.1972 4.70914 9.75457 4.60819 9.23878C4.57941 9.0901 4.56286 8.93562 4.55857 8.77546C4.4956 8.83288 4.43754 8.89106 4.38455 8.94958C4.13531 9.22504 3.99798 9.51417 3.98897 9.81807C3.98157 10.068 3.71872 10.2659 3.40229 10.2602C3.08585 10.2547 2.83532 10.0466 2.84267 9.79669C2.85726 9.30219 3.06791 8.84598 3.44957 8.42414C3.56473 8.29705 3.6952 8.17318 3.84074 8.05246C3.73765 8.05795 3.63812 8.06525 3.54237 8.07769C3.13057 8.12962 2.78393 8.2547 2.51319 8.46248C2.28613 8.63694 1.92258 8.63297 1.7017 8.45339C1.48089 8.27399 1.48591 7.98685 1.71282 7.81237C2.16052 7.46888 2.71511 7.26456 3.3625 7.18274C3.6507 7.14654 3.95635 7.13426 4.27799 7.14597C4.15604 6.90196 4.06746 6.66307 4.0149 6.43C3.89974 5.91799 3.95732 5.43405 4.21196 4.98256C4.34096 4.75413 4.68024 4.65162 4.96942 4.75352C5.2586 4.85538 5.38846 5.12341 5.25946 5.35184C5.104 5.62759 5.0717 5.93656 5.14754 6.27385C5.16352 6.34572 5.18431 6.41847 5.21033 6.49284C5.29921 6.35313 5.39563 6.22246 5.5 6.10135C5.87175 5.67 6.34083 5.35792 6.91986 5.18296C7.21639 5.09372 7.54869 5.21145 7.66152 5.44565C7.7744 5.67988 7.62538 5.94236 7.32897 6.03153C6.97891 6.13723 6.68765 6.33491 6.44833 6.61255C6.39136 6.67857 6.33758 6.74882 6.28637 6.82334C6.47718 6.77341 6.66559 6.73466 6.85137 6.70759C7.49631 6.6136 8.10339 6.65969 8.66742 6.86542C8.95531 6.9702 9.08124 7.2398 8.94845 7.4672C8.81572 7.69462 8.47447 7.79405 8.18658 7.6892C7.84668 7.56522 7.46874 7.53887 7.05822 7.59885C6.85695 7.62829 6.64684 7.67787 6.42878 7.74663C7.51946 8.33969 8.45719 9.06226 9.24988 9.90652C9.94308 10.6449 10.5244 11.4755 10.9995 12.3928C11.8133 10.7215 12.8389 9.23078 14.0901 7.93281C15.4435 6.52873 17.0595 5.35105 18.955 4.41582C18.4037 4.19546 17.876 4.04245 17.3742 3.96411C16.6669 3.85347 16.0117 3.89278 15.4168 4.10235C15.1276 4.20421 14.7884 4.10236 14.6594 3.87326C14.5304 3.64483 14.6594 3.37689 14.9494 3.27493C15.7736 2.98439 16.6581 2.92643 17.5943 3.0728C18.0994 3.15162 18.6195 3.29067 19.1534 3.48483C18.9827 3.12949 18.7841 2.81408 18.5559 2.54173C18.152 2.06 17.6528 1.71389 17.0465 1.5235C16.7524 1.43134 16.6084 1.16813 16.725 0.935841C16.8416 0.703538 17.1749 0.589745 17.4689 0.681858C18.3057 0.944701 18.9809 1.40619 19.5133 2.04101C19.7991 2.38192 20.0431 2.77323 20.2489 3.21064C20.4349 2.86924 20.5683 2.53938 20.6448 2.22217C20.7829 1.64996 20.733 1.1181 20.4692 0.633528C20.3439 0.403163 20.4784 0.135927 20.7703 0.0369927C21.0619 -0.0619414 21.4001 0.044356 21.5255 0.274904C21.8833 0.931874 21.9542 1.63887 21.7732 2.38915C21.6612 2.8535 21.4512 3.33396 21.1521 3.82894C21.8283 3.78012 22.4577 3.79221 23.0358 3.87158C23.9776 4.00069 24.7798 4.30577 25.4219 4.81067C25.6465 4.98714 25.6475 5.27409 25.4219 5.45151C25.1987 5.6289 24.8352 5.62963 24.6106 5.45151C24.1445 5.08485 23.5487 4.86156 22.8401 4.76446C22.44 4.7096 22.0031 4.69408 21.5321 4.71529C21.9797 5.03047 22.357 5.3582 22.6577 5.69975C23.2066 6.32271 23.5038 6.99178 23.5143 7.71253C23.5143 7.96248 23.2621 8.16694 22.9456 8.16888C22.6292 8.16888 22.3703 7.96968 22.3679 7.71973C22.3605 7.19417 22.1332 6.69441 21.7137 6.21821C21.482 5.95513 21.1922 5.69938 20.8489 5.45034C20.8862 5.91972 20.8641 6.35955 20.7779 6.76725C20.6182 7.52124 20.2403 8.16383 19.6145 8.67919C19.3948 8.8595 19.0315 8.86517 18.8032 8.69202C18.5748 8.51848 18.5678 8.23151 18.7872 8.05112C19.2446 7.6745 19.5235 7.19239 19.645 6.61841C19.7383 6.17728 19.7402 5.68095 19.6598 5.1357C17.8405 6.01983 16.2929 7.14052 14.9999 8.48191C13.6832 9.84785 12.6275 11.4447 11.8156 13.2563H11.9253C13.6574 13.2563 15.2643 13.6249 16.5773 14.2504C17.9418 14.9004 18.992 15.8306 19.5437 16.9182C19.6614 17.1505 19.5185 17.4146 19.2244 17.5076C18.9303 17.6007 18.596 17.4878 18.4782 17.2555C18.0213 16.3547 17.1379 15.5778 15.984 15.0281C14.8445 14.4852 13.4432 14.1653 11.9253 14.1653C10.4076 14.1653 9.00615 14.4852 7.86683 15.0281C6.71288 15.5778 5.82948 16.3547 5.37259 17.2555C5.25486 17.4878 4.92047 17.6007 4.62639 17.5076C4.33232 17.4145 4.18941 17.1505 4.3072 16.9182C4.85879 15.8306 5.90905 14.9004 7.27347 14.2504C8.14872 13.8333 9.15475 13.5304 10.2416 13.3749C9.75222 12.268 9.11696 11.2882 8.32568 10.4453C7.59315 9.66518 6.72427 8.99994 5.7112 8.45768L5.71442 8.45841ZM0.965447 21.2966C0.735928 21.4681 0.373493 21.4601 0.156411 21.2783C-0.0606757 21.0971 -0.0505588 20.8108 0.179099 20.6393C1.42659 19.7066 2.72376 19.2019 4.0763 19.1826C5.30088 19.1643 6.53728 19.5449 7.78618 20.3647C9.03508 19.5449 10.2715 19.165 11.4961 19.1826C12.707 19.2009 13.8737 19.6064 15.0001 20.3607C16.1264 19.6064 17.2931 19.1998 18.504 19.1826C19.7287 19.1643 20.965 19.5449 22.214 20.3647C23.4629 19.5449 24.6992 19.165 25.9239 19.1826C27.2762 19.202 28.5734 19.7066 29.821 20.6393C30.0505 20.8108 30.0606 21.097 29.8437 21.2783C29.6265 21.4595 29.2642 21.4676 29.0347 21.2966C27.9987 20.5221 26.9558 20.1037 25.9061 20.0886C24.8555 20.0739 23.7559 20.4622 22.603 21.302C22.3855 21.4604 22.0466 21.4629 21.8252 21.302C20.6721 20.4622 19.5724 20.0735 18.5221 20.0886C17.4733 20.1032 16.4312 20.5213 15.3965 21.2944C15.1777 21.4604 14.8298 21.463 14.607 21.2944C13.5711 20.5199 12.528 20.1014 11.4783 20.0863C10.428 20.0717 9.32833 20.46 8.17517 21.2998C7.95778 21.4581 7.6188 21.4607 7.39749 21.2998C6.24427 20.46 5.14465 20.0713 4.09439 20.0863C3.04456 20.101 2.00154 20.5199 0.965803 21.2944L0.965447 21.2966ZM29.8208 24.9276C30.0503 25.0991 30.0604 25.3854 29.8435 25.5667C29.6263 25.7479 29.264 25.7559 29.0345 25.585C27.9985 24.8105 26.9556 24.3921 25.9059 24.377C24.8554 24.3623 23.7557 24.7506 22.6028 25.5904C22.3814 25.7513 22.0425 25.7488 21.825 25.5904C20.672 24.7506 19.5724 24.3618 18.5219 24.377C17.4722 24.3916 16.4291 24.8105 15.3933 25.585C15.1705 25.7514 14.8226 25.7486 14.6039 25.585C13.569 24.8119 12.5268 24.3942 11.4781 24.3791C10.4277 24.3645 9.328 24.7527 8.17496 25.5926C7.95366 25.7535 7.61467 25.7509 7.39728 25.5926C6.24425 24.7527 5.14456 24.3639 4.09418 24.3791C3.04436 24.3938 2.00133 24.8127 0.965595 25.5872C0.736076 25.7587 0.373641 25.7506 0.156557 25.5688C-0.0605298 25.3876 -0.0504131 25.1012 0.179244 24.9298C1.42674 23.9971 2.7239 23.4924 4.07644 23.4731C5.30103 23.4548 6.53755 23.8355 7.78633 24.6552C9.03511 23.8355 10.2716 23.4554 11.4962 23.4731C12.7071 23.4914 13.8738 23.8969 15.0003 24.6512C16.1266 23.8969 17.2933 23.4904 18.5042 23.4731C19.7288 23.4548 20.9653 23.8355 22.2141 24.6552C23.4628 23.8355 24.6994 23.4554 25.924 23.4731C27.2763 23.4925 28.5735 23.9971 29.8212 24.9298L29.8208 24.9276Z" fill="black"/>
</svg>
