<svg width="17" height="16" viewBox="0 0 17 16" fill="none" xmlns="http://www.w3.org/2000/svg">
<path d="M11.3609 6.7589C11.3609 6.62997 11.4122 6.50633 11.5033 6.41516C11.5945 6.324 11.7181 6.27279 11.8471 6.27279H12.8193C12.9482 6.27279 13.0719 6.324 13.163 6.41516C13.2542 6.50633 13.3054 6.62997 13.3054 6.7589V7.73112C13.3054 7.86004 13.2542 7.98369 13.163 8.07485C13.0719 8.16602 12.9482 8.21723 12.8193 8.21723H11.8471C11.7181 8.21723 11.5945 8.16602 11.5033 8.07485C11.4122 7.98369 11.3609 7.86004 11.3609 7.73112V6.7589ZM8.44428 6.7589C8.44428 6.62997 8.4955 6.50633 8.58666 6.41516C8.67782 6.324 8.80147 6.27279 8.93039 6.27279H9.90262C10.0315 6.27279 10.1552 6.324 10.2463 6.41516C10.3375 6.50633 10.3887 6.62997 10.3887 6.7589V7.73112C10.3887 7.86004 10.3375 7.98369 10.2463 8.07485C10.1552 8.16602 10.0315 8.21723 9.90262 8.21723H8.93039C8.80147 8.21723 8.67782 8.16602 8.58666 8.07485C8.4955 7.98369 8.44428 7.86004 8.44428 7.73112V6.7589ZM3.58317 9.67556C3.58317 9.54664 3.63439 9.42299 3.72555 9.33183C3.81671 9.24067 3.94036 9.18945 4.06928 9.18945H5.0415C5.17043 9.18945 5.29407 9.24067 5.38524 9.33183C5.4764 9.42299 5.52762 9.54664 5.52762 9.67556V10.6478C5.52762 10.7767 5.4764 10.9004 5.38524 10.9915C5.29407 11.0827 5.17043 11.1339 5.0415 11.1339H4.06928C3.94036 11.1339 3.81671 11.0827 3.72555 10.9915C3.63439 10.9004 3.58317 10.7767 3.58317 10.6478V9.67556ZM6.49984 9.67556C6.49984 9.54664 6.55105 9.42299 6.64222 9.33183C6.73338 9.24067 6.85702 9.18945 6.98595 9.18945H7.95817C8.0871 9.18945 8.21074 9.24067 8.3019 9.33183C8.39307 9.42299 8.44428 9.54664 8.44428 9.67556V10.6478C8.44428 10.7767 8.39307 10.9004 8.3019 10.9915C8.21074 11.0827 8.0871 11.1339 7.95817 11.1339H6.98595C6.85702 11.1339 6.73338 11.0827 6.64222 10.9915C6.55105 10.9004 6.49984 10.7767 6.49984 10.6478V9.67556Z" fill="black"/>
<path d="M4.06928 0.439453C4.19821 0.439453 4.32185 0.490668 4.41301 0.581832C4.50418 0.672995 4.55539 0.79664 4.55539 0.925564V1.41168H12.3332V0.925564C12.3332 0.79664 12.3844 0.672995 12.4755 0.581832C12.5667 0.490668 12.6904 0.439453 12.8193 0.439453C12.9482 0.439453 13.0719 0.490668 13.163 0.581832C13.2542 0.672995 13.3054 0.79664 13.3054 0.925564V1.41168H14.2776C14.7933 1.41168 15.2879 1.61654 15.6525 1.98119C16.0172 2.34584 16.2221 2.84042 16.2221 3.35612V14.0506C16.2221 14.5663 16.0172 15.0608 15.6525 15.4255C15.2879 15.7901 14.7933 15.995 14.2776 15.995H2.61095C2.09525 15.995 1.60067 15.7901 1.23602 15.4255C0.871364 15.0608 0.666504 14.5663 0.666504 14.0506V3.35612C0.666504 2.84042 0.871364 2.34584 1.23602 1.98119C1.60067 1.61654 2.09525 1.41168 2.61095 1.41168H3.58317V0.925564C3.58317 0.79664 3.63439 0.672995 3.72555 0.581832C3.81671 0.490668 3.94036 0.439453 4.06928 0.439453ZM1.63873 4.32834V14.0506C1.63873 14.3084 1.74116 14.5557 1.92348 14.738C2.10581 14.9204 2.3531 15.0228 2.61095 15.0228H14.2776C14.5355 15.0228 14.7828 14.9204 14.9651 14.738C15.1474 14.5557 15.2498 14.3084 15.2498 14.0506V4.32834H1.63873Z" fill="black"/>
</svg>
