<svg width="30" height="18" viewBox="0 0 30 18" fill="none" xmlns="http://www.w3.org/2000/svg">
<path d="M10.8742 8.75954H12.0549C12.3151 9.33892 12.7328 9.82986 13.2583 10.1741C13.7838 10.5182 14.395 10.7012 15.0194 10.7012C15.6438 10.7012 16.255 10.5182 16.7805 10.1741C17.306 9.82986 17.7237 9.33892 17.9839 8.75954H19.1646C19.2929 8.75954 19.416 8.7075 19.5067 8.61486C19.5975 8.52223 19.6485 8.39659 19.6485 8.26558V4.72554C19.6485 3.47225 19.1608 2.27029 18.2926 1.38408C17.4245 0.497868 16.2471 0 15.0194 0C13.7917 0 12.6143 0.497868 11.7462 1.38408C10.8781 2.27029 10.3903 3.47225 10.3903 4.72554V8.26558C10.3903 8.39659 10.4413 8.52223 10.5321 8.61486C10.6228 8.7075 10.7459 8.75954 10.8742 8.75954ZM18.6807 4.72554V7.75845H18.2581C18.2746 7.62628 18.2832 7.49322 18.2839 7.35999V5.00216C18.2817 4.41738 18.1299 3.84333 17.8436 3.3368C17.5573 2.83028 17.1465 2.40883 16.6517 2.11414C16.6147 2.09452 16.5758 2.07906 16.5355 2.06804C16.5975 1.85265 16.6418 1.63235 16.6678 1.40943C17.2704 1.71875 17.7774 2.19225 18.1326 2.77752C18.4879 3.3628 18.6776 4.03702 18.6807 4.72554ZM11.3581 4.72554C11.3624 3.73681 11.7499 2.79002 12.436 2.09211C13.122 1.39421 14.0509 1.00195 15.0194 1.00109C15.2577 1.00187 15.4954 1.02614 15.7291 1.07354C15.666 1.97296 15.2696 2.81407 14.6206 3.42579C13.9717 4.03752 13.1188 4.37393 12.2355 4.3666C12.1072 4.3666 11.9841 4.41864 11.8934 4.51127C11.8026 4.60391 11.7516 4.72955 11.7516 4.86056C11.7516 4.99156 11.8026 5.1172 11.8934 5.20984C11.9841 5.30247 12.1072 5.35452 12.2355 5.35452C13.04 5.35637 13.8302 5.13722 14.5232 4.72006C15.2162 4.3029 15.7865 3.70308 16.1742 2.98351C16.521 3.19018 16.8088 3.48581 17.0091 3.84106C17.2094 4.19631 17.3153 4.59885 17.3162 5.00874V7.35999C17.3158 7.91798 17.1205 8.45755 16.7654 8.88173C16.4103 9.3059 15.9186 9.58688 15.3787 9.67418C14.8388 9.76147 14.2862 9.64934 13.82 9.35796C13.3539 9.06657 13.0048 8.61503 12.8355 8.08446V8.05812C12.7622 7.83281 12.723 7.59738 12.7194 7.35999V5.99337C12.7194 5.86236 12.6684 5.73672 12.5777 5.64409C12.4869 5.55145 12.3639 5.49941 12.2355 5.49941C12.1072 5.49941 11.9841 5.55145 11.8934 5.64409C11.8026 5.73672 11.7516 5.86236 11.7516 5.99337V7.35999C11.7507 7.49755 11.7583 7.63503 11.7742 7.77162H11.3581V4.72554Z" fill="black"/>
<path d="M15.245 11.6806H14.7547C13.2418 11.6824 11.7913 12.2967 10.7215 13.3888C9.65169 14.4809 9.04993 15.9616 9.04822 17.506C9.04822 17.637 9.0992 17.7627 9.18994 17.8553C9.28069 17.9479 9.40376 18 9.53209 18C9.66043 18 9.7835 17.9479 9.87424 17.8553C9.96499 17.7627 10.016 17.637 10.016 17.506C10.0177 16.2236 10.5175 14.9942 11.4058 14.0873C12.2941 13.1805 13.4984 12.6703 14.7547 12.6685H15.245C16.5013 12.6703 17.7056 13.1805 18.5939 14.0873C19.4822 14.9942 19.9821 16.2236 19.9838 17.506C19.9838 17.637 20.0347 17.7627 20.1255 17.8553C20.2162 17.9479 20.3393 18 20.4676 18C20.596 18 20.719 17.9479 20.8098 17.8553C20.9005 17.7627 20.9515 17.637 20.9515 17.506C20.9498 15.9616 20.348 14.4809 19.2782 13.3888C18.2084 12.2967 16.758 11.6824 15.245 11.6806Z" fill="black"/>
<path d="M23.5387 10.7025H24.5581C25.3004 10.7016 26.0121 10.4002 26.537 9.86435C27.062 9.32849 27.3572 8.60196 27.3581 7.84414V4.52473C27.3572 3.76691 27.062 3.04038 26.537 2.50452C26.0121 1.96866 25.3004 1.66723 24.5581 1.66636H23.5387C22.7966 1.6681 22.0854 1.9698 21.5607 2.50548C21.036 3.04115 20.7404 3.76718 20.7387 4.52473V7.84414C20.7404 8.60169 21.036 9.32772 21.5607 9.86339C22.0854 10.3991 22.7966 10.7008 23.5387 10.7025ZM26.3903 7.84414C26.3895 8.33995 26.1962 8.8152 25.8527 9.16579C25.5093 9.51638 25.0438 9.71373 24.5581 9.7146H23.5387C23.053 9.71373 22.5875 9.51638 22.2441 9.16579C21.9006 8.8152 21.7073 8.33995 21.7065 7.84414V5.33812C23.0742 5.27555 24.229 4.75854 24.8645 4.00114C25.0443 4.2536 25.2721 4.46652 25.5342 4.6272C25.7964 4.78788 26.0875 4.89302 26.3903 4.93637V7.84414ZM26.2807 3.89247C26.0612 3.81526 25.8656 3.68016 25.7138 3.50088C25.5619 3.32159 25.4592 3.10449 25.4161 2.87162C25.823 3.0891 26.135 3.4546 26.2903 3.89576L26.2807 3.89247ZM23.5387 2.65098H24.4226C24.4 3.52364 23.1968 4.26129 21.7161 4.34691C21.7601 3.88425 21.971 3.45481 22.3079 3.142C22.6447 2.8292 23.0834 2.65537 23.5387 2.65427V2.65098Z" fill="black"/>
<path d="M24.2935 11.6805H23.8064C22.5354 11.6756 21.3004 12.1109 20.3032 12.9154C20.2122 12.999 20.1556 13.1147 20.1449 13.2392C20.1341 13.3637 20.17 13.4877 20.2453 13.5863C20.3206 13.6848 20.4296 13.7506 20.5505 13.7703C20.6714 13.79 20.7951 13.7622 20.8967 13.6925C21.7238 13.027 22.7468 12.6662 23.8 12.6684H24.2871C25.5445 12.6684 26.7504 13.1779 27.6401 14.0849C28.5299 14.9919 29.0305 16.2223 29.0323 17.5059C29.0323 17.6369 29.0832 17.7626 29.174 17.8552C29.2647 17.9478 29.3878 17.9999 29.5161 17.9999C29.6445 17.9999 29.7675 17.9478 29.8583 17.8552C29.949 17.7626 30 17.6369 30 17.5059C29.9983 15.9614 29.3965 14.4807 28.3267 13.3886C27.2569 12.2965 25.8064 11.6822 24.2935 11.6805Z" fill="black"/>
<path d="M5.44195 10.7025H6.46131C7.2034 10.7008 7.9146 10.3991 8.43934 9.86339C8.96408 9.32772 9.25962 8.60169 9.26133 7.84414V2.16032C9.26133 2.02931 9.21035 1.90367 9.11961 1.81103C9.02886 1.7184 8.90579 1.66636 8.77745 1.66636H3.12581C2.99748 1.66636 2.87441 1.7184 2.78366 1.81103C2.69292 1.90367 2.64194 2.02931 2.64194 2.16032V7.84414C2.64279 8.60196 2.93807 9.32849 3.46299 9.86435C3.98791 10.4002 4.69961 10.7016 5.44195 10.7025ZM8.29358 7.84414C8.29273 8.33995 8.09941 8.8152 7.75598 9.16579C7.41255 9.51638 6.947 9.71373 6.46131 9.7146H5.44195C4.95627 9.71373 4.49072 9.51638 4.14729 9.16579C3.80386 8.8152 3.61054 8.33995 3.60969 7.84414V5.10431C4.24841 4.50517 5.08421 4.17269 5.95163 4.17269C6.81906 4.17269 7.65486 4.50517 8.29358 5.10431V7.84414ZM3.60969 2.65427H8.29358V3.87271C7.59194 3.42284 6.78019 3.18419 5.95163 3.18419C5.12308 3.18419 4.31133 3.42284 3.60969 3.87271V2.65427Z" fill="black"/>
<path d="M9.78069 13.6169C9.81992 13.566 9.84889 13.5077 9.86591 13.4453C9.88294 13.3829 9.88769 13.3176 9.87989 13.2533C9.87209 13.189 9.8519 13.127 9.82048 13.0707C9.78906 13.0144 9.74703 12.965 9.69682 12.9254C8.70088 12.1174 7.46573 11.6785 6.19358 11.6806H5.70648C4.19355 11.6824 2.74308 12.2967 1.67328 13.3888C0.603473 14.4809 0.0017076 15.9616 0 17.506C0 17.637 0.0509794 17.7627 0.141723 17.8553C0.232467 17.948 0.355542 18 0.483873 18C0.612204 18 0.73528 17.948 0.826023 17.8553C0.916767 17.7627 0.967747 17.637 0.967747 17.506C0.969453 16.2236 1.46926 14.9942 2.35757 14.0873C3.24589 13.1805 4.45021 12.6703 5.70648 12.6685H6.19358C7.24671 12.6663 8.26972 13.0272 9.09682 13.6927C9.14646 13.7339 9.2036 13.7646 9.26495 13.7831C9.3263 13.8016 9.39064 13.8075 9.45423 13.8005C9.51783 13.7934 9.57943 13.7736 9.63547 13.7421C9.6915 13.7106 9.74086 13.668 9.78069 13.6169Z" fill="black"/>
</svg>
