<svg width="30" height="28" viewBox="0 0 30 28" fill="none" xmlns="http://www.w3.org/2000/svg">
<path d="M28.7155 26.2721C28.2775 25.7733 27.7315 25.1525 26.6635 25.1525C25.5955 25.1525 25.05 25.7733 24.6135 26.2721C24.177 26.7708 23.9 27.0508 23.3265 27.0508C23.085 27.0568 22.8481 26.9884 22.651 26.8558L27.459 16.3254C27.4898 16.2578 27.5036 16.1843 27.4993 16.1108C27.4949 16.0372 27.4726 15.9656 27.4341 15.9016C27.3956 15.8377 27.3419 15.7831 27.2773 15.7423C27.2127 15.7014 27.139 15.6754 27.062 15.6663L24.5 15.3606V10.9153C24.5 10.7894 24.4473 10.6687 24.3536 10.5797C24.2598 10.4907 24.1326 10.4407 24 10.4407H22.2825L21.997 8.01515C21.9833 7.89911 21.9251 7.79192 21.8334 7.71408C21.7417 7.63625 21.623 7.59323 21.5 7.59325H17V5.22037C17 5.0945 16.9473 4.97379 16.8536 4.88479C16.7598 4.79579 16.6326 4.74579 16.5 4.74579H13.5C13.3674 4.74579 13.2402 4.79579 13.1464 4.88479C13.0527 4.97379 13 5.0945 13 5.22037V7.59325H8.5C8.37699 7.59323 8.25828 7.63625 8.16659 7.71408C8.0749 7.79192 8.01665 7.89911 8.003 8.01515L7.7175 10.4407H6C5.86739 10.4407 5.74021 10.4907 5.64645 10.5797C5.55268 10.6687 5.5 10.7894 5.5 10.9153V15.3606L2.938 15.6648C2.86342 15.6737 2.79192 15.6985 2.72882 15.7373C2.66572 15.7761 2.61264 15.8278 2.57352 15.8888C2.53441 15.9497 2.51028 16.0182 2.50292 16.0892C2.49555 16.1602 2.50515 16.2319 2.531 16.2989L5.987 25.2498C5.43201 25.4534 4.95361 25.8095 4.613 26.2725C4.177 26.7694 3.9 27.0508 3.331 27.0508C2.762 27.0508 2.486 26.7694 2.05 26.2725C1.614 25.7757 1.067 25.1525 0 25.1525V26.1017C0.571 26.1017 0.845 26.3831 1.281 26.88C1.717 27.3769 2.264 28 3.331 28C4.398 28 4.9435 27.3788 5.381 26.88C5.8185 26.3812 6.0925 26.1017 6.663 26.1017C7.2335 26.1017 7.509 26.3831 7.945 26.88C8.381 27.3769 8.928 28 9.9955 28C11.063 28 11.608 27.3788 12.0455 26.88C12.483 26.3812 12.757 26.1017 13.3275 26.1017C13.898 26.1017 14.174 26.3831 14.6105 26.8805C15.047 27.3778 15.5935 28 16.661 28C17.7285 28 18.273 27.3788 18.711 26.88C19.149 26.3812 19.422 26.1017 19.9925 26.1017C20.563 26.1017 20.839 26.3831 21.2755 26.88C21.712 27.3769 22.259 28 23.3265 28C24.394 28 24.9405 27.3793 25.379 26.8805C25.8175 26.3817 26.0915 26.1017 26.6635 26.1017C27.2355 26.1017 27.5105 26.3831 27.948 26.88C28.3855 27.3769 28.9315 28 30 28V27.0508C29.4275 27.0508 29.1525 26.7694 28.7155 26.2721ZM14 5.69494H16V7.59325H14V5.69494ZM8.95 8.5424H21.055L21.2785 10.4407H8.7285L8.95 8.5424ZM6.5 11.3899H23.5V15.242L15.062 14.2411C15.0208 14.2359 14.9791 14.2359 14.938 14.2411L6.5 15.242V11.3899ZM19.9925 25.1525C18.9255 25.1525 18.3805 25.7738 17.9425 26.2725C17.5045 26.7713 17.232 27.0508 16.661 27.0508C16.4266 27.0412 16.1982 26.9773 15.9959 26.8646C15.7935 26.7519 15.6233 26.594 15.5 26.4045V17.0848H14.5V25.4738C14.1513 25.2589 13.7432 25.1471 13.3275 25.1525C12.2605 25.1525 11.7155 25.7738 11.2775 26.2725C10.8395 26.7713 10.5665 27.0508 9.9955 27.0508C9.4245 27.0508 9.1495 26.7694 8.7135 26.2725C8.3212 25.7143 7.71548 25.3229 7.0245 25.181L4.6865 19.1254L10.1045 18.0244L9.8955 17.0961L4.3385 18.2237L3.6855 16.5324L15 15.1903L26.276 16.5281L25.5145 18.1957L20.105 17.0952L19.895 18.0235L25.109 19.0841L21.9 26.1112C21.6836 25.8206 21.3981 25.5824 21.0668 25.4158C20.7354 25.2493 20.3674 25.1591 19.9925 25.1525Z" fill="black"/>
<path d="M11.5 3.32207H13.5V4.27122H14.5V2.84749C14.5 2.72163 14.4473 2.60092 14.3535 2.51192C14.2597 2.42292 14.1326 2.37292 14 2.37292H12V0.949192H11V2.84749C11 2.97336 11.0526 3.09407 11.1464 3.18307C11.2402 3.27207 11.3673 3.32207 11.5 3.32207Z" fill="black"/>
<path d="M13.5 1.42373H15.5V4.27118H16.5V0.949151C16.5 0.823286 16.4473 0.702576 16.3535 0.613576C16.2598 0.524575 16.1326 0.474576 16 0.474576H14V0H13V0.949151C13 1.07502 13.0527 1.19573 13.1464 1.28473C13.2402 1.37373 13.3674 1.42373 13.5 1.42373Z" fill="black"/>
</svg>
