<svg width="18" height="18" viewBox="0 0 18 18" fill="none" xmlns="http://www.w3.org/2000/svg">
<path d="M18 13.0997V17.0915C18 17.171 17.9887 17.2448 17.9717 17.3129C17.8923 17.7047 17.5466 18 17.1385 18H0.855793C0.419395 18 0.0566751 17.665 0.0113351 17.2391C4.30707e-08 17.188 0 17.1426 0 17.0858V13.094C0 12.6227 0.38539 12.2423 0.850126 12.2423C1.08249 12.2423 1.29786 12.3388 1.45088 12.4921C1.6039 12.6454 1.70025 12.8612 1.70025 13.094V16.2909H16.3054V13.094C16.3054 12.6227 16.6908 12.2423 17.1555 12.2423C17.3879 12.2423 17.6033 12.3388 17.7563 12.4921C17.9037 12.6511 18 12.8669 18 13.0997Z" fill="black"/>
<path d="M13.9024 9.10221L9.72544 13.2871C9.71977 13.2984 9.70844 13.3041 9.70277 13.3098C9.54975 13.4631 9.35139 13.5596 9.15302 13.588C9.13602 13.588 9.11902 13.5937 9.10202 13.5937C9.06801 13.5994 9.03401 13.5994 9 13.5994L8.90365 13.5937C8.88665 13.5937 8.86965 13.588 8.85265 13.588C8.64862 13.5596 8.45592 13.4631 8.3029 13.3098C8.29723 13.3041 8.2859 13.2927 8.28023 13.2871L4.10328 9.10221C3.91058 8.90915 3.81423 8.65363 3.81423 8.39811C3.81423 8.14259 3.91058 7.88707 4.10328 7.69401C4.48867 7.30789 5.11776 7.30789 5.50882 7.69401L8.01952 10.2095V0.993691C8.01952 0.44858 8.46726 0 9.01134 0C9.28338 0 9.53275 0.113565 9.71411 0.28959C9.89547 0.471293 10.0031 0.715457 10.0031 0.993691V10.2095L12.5139 7.69401C12.8992 7.30789 13.5283 7.30789 13.9194 7.69401C14.2878 8.0858 14.2878 8.71609 13.9024 9.10221Z" fill="black"/>
</svg>
