<svg width="30" height="30" viewBox="0 0 30 30" fill="none" xmlns="http://www.w3.org/2000/svg">
<path d="M27.6563 17.3339V7.03125C27.6563 5.41509 27.0142 3.86512 25.8714 2.72232C24.7286 1.57952 23.1787 0.9375 21.5625 0.9375C19.9463 0.9375 18.3964 1.57952 17.2536 2.72232C16.1108 3.86512 15.4688 5.41509 15.4688 7.03125V16.875C15.4355 16.875 15.3455 16.875 15.285 16.875C14.8524 16.5241 14.3522 16.2659 13.8155 16.1166L10.7456 15.2391L10.1752 14.6686L10.1691 14.6644C11.0403 14.3174 11.7875 13.7174 12.3144 12.9417C12.8413 12.166 13.1236 11.2502 13.125 10.3125V10.2459C13.527 10.1436 13.8834 9.91029 14.138 9.58279C14.3926 9.25529 14.5308 8.85231 14.5308 8.4375C14.5308 8.02269 14.3926 7.61971 14.138 7.29221C13.8834 6.96471 13.527 6.73138 13.125 6.62906V2.80687C13.125 2.43391 12.9768 2.07623 12.7131 1.81251C12.4494 1.54878 12.0917 1.40063 11.7188 1.40063C11.7173 1.02864 11.5684 0.672398 11.3049 0.40989C11.0413 0.147383 10.6845 -2.97587e-06 10.3125 0H6.70969C5.55219 0.00136461 4.44249 0.461784 3.62401 1.28026C2.80553 2.09874 2.34511 3.20844 2.34375 4.36594C2.34397 4.81685 2.44174 5.26238 2.63035 5.67195C2.81895 6.08152 3.09393 6.44544 3.43641 6.73875C3.08483 6.89904 2.79166 7.16449 2.59735 7.49847C2.40304 7.83245 2.31717 8.2185 2.35158 8.60336C2.38599 8.98822 2.53899 9.35292 2.78947 9.64713C3.03995 9.94134 3.37556 10.1506 3.75 10.2459V10.3125C3.75139 11.2502 4.03374 12.166 4.56062 12.9417C5.08751 13.7174 5.83475 14.3174 6.70594 14.6644L6.69984 14.6686L6.12937 15.2391L3.05953 16.1161C2.17958 16.3705 1.4058 16.9033 0.854199 17.6346C0.302594 18.3658 0.00288321 19.2562 0 20.1722V27.6563C0.000744308 28.2776 0.247913 28.8733 0.687291 29.3127C1.12667 29.7521 1.72238 29.9993 2.34375 30H27.6563C28.2776 29.9993 28.8733 29.7521 29.3127 29.3127C29.7521 28.8733 29.9993 28.2776 30 27.6563V21.1097C29.9971 20.3251 29.7764 19.5567 29.3626 18.89C28.9488 18.2234 28.3581 17.6847 27.6563 17.3339ZM29.0625 21.1097V23.4431H27.1875V22.0313C27.1875 21.9069 27.1381 21.7877 27.0502 21.6998C26.9623 21.6119 26.8431 21.5625 26.7188 21.5625C26.5944 21.5625 26.4752 21.6119 26.3873 21.6998C26.2994 21.7877 26.25 21.9069 26.25 22.0313V26.25H22.7114C22.5769 26.0133 22.3919 25.8091 22.1695 25.652C21.9471 25.4949 21.6928 25.3887 21.4247 25.3411C21.1566 25.2934 20.8814 25.3054 20.6185 25.3762C20.3555 25.447 20.1115 25.5749 19.9036 25.7508C19.5527 25.4251 19.1583 25.1497 18.7317 24.9323C18.9775 24.4674 19.1333 23.9602 19.1911 23.4375H19.2188C19.5917 23.4375 19.9494 23.2893 20.2131 23.0256C20.4768 22.7619 20.625 22.4042 20.625 22.0313C20.625 21.6583 20.4768 21.3006 20.2131 21.0369C19.9494 20.7732 19.5917 20.625 19.2188 20.625H19.1911C19.1246 20.0376 18.9353 19.4708 18.6356 18.9612C18.336 18.4517 17.9326 18.0108 17.4516 17.6672L19.7925 16.9978C19.9145 17.3711 20.1514 17.6964 20.4693 17.9269C20.7873 18.1575 21.17 18.2817 21.5627 18.2817C21.9555 18.2817 22.3382 18.1575 22.6561 17.9269C22.9741 17.6964 23.211 17.3711 23.333 16.9978L26.6831 17.9531C27.3678 18.1511 27.9697 18.5658 28.3988 19.135C28.8278 19.7041 29.0607 20.397 29.0625 21.1097ZM7.96875 28.125V27.1875C7.96875 26.9389 8.06752 26.7004 8.24334 26.5246C8.41915 26.3488 8.65761 26.25 8.90625 26.25C9.15489 26.25 9.39335 26.3488 9.56916 26.5246C9.74498 26.7004 9.84375 26.9389 9.84375 27.1875V28.125C9.84375 28.3736 9.74498 28.6121 9.56916 28.7879C9.39335 28.9637 9.15489 29.0625 8.90625 29.0625C8.65761 29.0625 8.41915 28.9637 8.24334 28.7879C8.06752 28.6121 7.96875 28.3736 7.96875 28.125ZM10.6523 26.5177C10.9896 26.1882 11.3795 25.9175 11.8059 25.7166C12.2006 26.1778 12.6904 26.5481 13.2418 26.8019C13.7932 27.0558 14.393 27.1873 15 27.1873C15.607 27.1873 16.2068 27.0558 16.7582 26.8019C17.3096 26.5481 17.7994 26.1778 18.1941 25.7166C18.6206 25.9172 19.0105 26.1878 19.3477 26.5172C19.2638 26.7308 19.2201 26.958 19.2188 27.1875V28.125C19.2207 28.4551 19.3107 28.7787 19.4794 29.0625H10.5206C10.6893 28.7787 10.7793 28.4551 10.7813 28.125V27.1875C10.7799 26.9582 10.7362 26.7311 10.6523 26.5177ZM26.7188 9.375C26.7187 9.53948 26.6753 9.70105 26.593 9.84347C26.5107 9.9859 26.3924 10.1042 26.25 10.1864V8.56359C26.3924 8.64583 26.5107 8.7641 26.593 8.90653C26.6753 9.04895 26.7187 9.21052 26.7188 9.375ZM26.7188 10.9894V16.9894L23.4375 16.0519V15.5433C24.2726 15.1782 24.9833 14.5777 25.4828 13.8153C25.9823 13.0528 26.2488 12.1615 26.25 11.25V11.1834C26.4145 11.1407 26.5722 11.0754 26.7188 10.9894ZM20.625 15.8437C21.2436 15.97 21.8814 15.97 22.5 15.8437V16.4063C22.5 16.6549 22.4012 16.8933 22.2254 17.0692C22.0496 17.245 21.8111 17.3438 21.5625 17.3438C21.3139 17.3438 21.0754 17.245 20.8996 17.0692C20.7238 16.8933 20.625 16.6549 20.625 16.4063V15.8437ZM25.3125 11.25C25.3125 12.2446 24.9174 13.1984 24.2142 13.9017C23.5109 14.6049 22.5571 15 21.5625 15C20.5679 15 19.6141 14.6049 18.9109 13.9017C18.2076 13.1984 17.8125 12.2446 17.8125 11.25V8.4375H19.2188C19.8477 8.43598 20.4684 8.29459 21.0359 8.02356C21.6034 7.75253 22.1035 7.35865 22.5 6.87047C23.1999 7.73203 24.2096 8.285 25.3125 8.41078V11.25ZM16.875 10.1864C16.7327 10.1041 16.6146 9.98574 16.5325 9.84332C16.4503 9.70091 16.4071 9.5394 16.4071 9.375C16.4071 9.2106 16.4503 9.04909 16.5325 8.90668C16.6146 8.76426 16.7327 8.64594 16.875 8.56359V10.1864ZM16.875 11.1834V11.25C16.8762 12.1615 17.1427 13.0528 17.6422 13.8153C18.1417 14.5777 18.8524 15.1782 19.6875 15.5433V16.0528L16.4063 16.9903V10.9903C16.5529 11.076 16.7106 11.141 16.875 11.1834ZM15 17.8125C15.0007 18.0073 14.9467 18.1984 14.8443 18.3641C14.7419 18.5298 14.5951 18.6635 14.4206 18.75L14.3217 18.7969C14.2105 18.8524 14.1258 18.9499 14.0864 19.0679C14.0471 19.1859 14.0561 19.3147 14.1117 19.4259C14.1673 19.5372 14.2648 19.6218 14.3828 19.6612C14.5007 19.7006 14.6295 19.6915 14.7408 19.6359L14.8397 19.5862C15.1492 19.4324 15.4127 19.1998 15.6037 18.9118C15.7948 18.6238 15.9067 18.2906 15.9281 17.9456C16.6073 18.1466 17.2034 18.5616 17.6274 19.1289C18.0515 19.6963 18.2808 20.3855 18.2813 21.0938V22.9688C18.2813 23.839 17.9355 24.6736 17.3202 25.2889C16.7048 25.9043 15.8702 26.25 15 26.25C14.1298 26.25 13.2952 25.9043 12.6798 25.2889C12.0645 24.6736 11.7188 23.839 11.7188 22.9688V21.0938C11.7197 20.2238 12.0658 19.3898 12.6809 18.7747C13.296 18.1595 14.1301 17.8135 15 17.8125ZM19.2188 22.5V21.5625C19.3431 21.5625 19.4623 21.6119 19.5502 21.6998C19.6381 21.7877 19.6875 21.9069 19.6875 22.0313C19.6875 22.1556 19.6381 22.2748 19.5502 22.3627C19.4623 22.4506 19.3431 22.5 19.2188 22.5ZM21.5625 1.875C22.9295 1.87661 24.2401 2.42038 25.2067 3.38701C26.1734 4.35365 26.7171 5.66422 26.7188 7.03125V7.76062C26.435 7.59191 26.1114 7.50194 25.7813 7.5C25.2721 7.49866 24.7701 7.37947 24.3147 7.15177C23.8593 6.92407 23.4628 6.59403 23.1563 6.1875L22.875 5.8125C22.8294 5.75713 22.7722 5.71254 22.7074 5.68192C22.6425 5.65131 22.5717 5.63543 22.5 5.63543C22.4283 5.63543 22.3575 5.65131 22.2926 5.68192C22.2278 5.71254 22.1706 5.75713 22.125 5.8125L21.8437 6.1875C21.5372 6.59403 21.1407 6.92407 20.6853 7.15177C20.2299 7.37947 19.7279 7.49866 19.2188 7.5H17.3438C17.0136 7.50194 16.69 7.59191 16.4063 7.76062V7.03125C16.4079 5.66422 16.9516 4.35365 17.9183 3.38701C18.8849 2.42038 20.1955 1.87661 21.5625 1.875ZM10.2309 16.0505L9.71813 17.333L9.05625 16.4503L9.84375 15.6628L10.2309 16.0505ZM13.5938 8.4375C13.5937 8.60198 13.5503 8.76355 13.468 8.90597C13.3857 9.0484 13.2674 9.16667 13.125 9.24891V7.62609C13.2674 7.70833 13.3857 7.8266 13.468 7.96903C13.5503 8.11145 13.5937 8.27302 13.5938 8.4375ZM6.70969 0.9375H10.3125C10.4368 0.9375 10.556 0.986886 10.644 1.07479C10.7319 1.1627 10.7813 1.28193 10.7813 1.40625V1.86938C10.7813 1.9937 10.8306 2.11292 10.9185 2.20083C11.0065 2.28874 11.1257 2.33813 11.25 2.33813H11.7188C11.8431 2.33813 11.9623 2.38751 12.0502 2.47542C12.1381 2.56333 12.1875 2.68255 12.1875 2.80687V6.48234C11.9135 6.38504 11.6763 6.20536 11.5085 5.96794C11.3406 5.73053 11.2504 5.447 11.25 5.15625C11.2462 5.06847 11.2179 4.98351 11.1681 4.91107C11.1184 4.83863 11.0493 4.78163 10.9687 4.74656C10.8852 4.71031 10.7933 4.69765 10.7031 4.70997C10.6128 4.72228 10.5277 4.75909 10.4569 4.81641C9.04247 5.94488 7.28723 6.56042 5.47781 6.5625C4.89544 6.56188 4.33709 6.33026 3.92529 5.91846C3.51349 5.50666 3.28187 4.94831 3.28125 4.36594C3.28224 3.45696 3.64377 2.5855 4.28651 1.94276C4.92925 1.30002 5.80071 0.938493 6.70969 0.9375ZM3.28125 8.4375C3.28134 8.27302 3.3247 8.11145 3.40697 7.96903C3.48925 7.8266 3.60755 7.70833 3.75 7.62609V9.24891C3.60755 9.16667 3.48925 9.0484 3.40697 8.90597C3.3247 8.76355 3.28134 8.60198 3.28125 8.4375ZM4.6875 10.3125V7.395C4.94536 7.46368 5.21097 7.49897 5.47781 7.5C7.25299 7.49668 8.98704 6.96522 10.4592 5.97328C10.5993 6.34496 10.8313 6.67507 11.1335 6.93279C11.4357 7.19051 11.7984 7.36743 12.1875 7.44703V10.3125C12.1875 11.3071 11.7924 12.2609 11.0892 12.9642C10.3859 13.6674 9.43206 14.0625 8.4375 14.0625C7.44294 14.0625 6.48911 13.6674 5.78585 12.9642C5.08259 12.2609 4.6875 11.3071 4.6875 10.3125ZM8.4375 15C8.7125 14.9987 8.98684 14.9731 9.25734 14.9236L8.4375 15.7434L7.61766 14.9236C7.88816 14.9731 8.1625 14.9987 8.4375 15ZM7.03125 15.6628L7.81875 16.4503L7.15687 17.333L6.64406 16.0505L7.03125 15.6628ZM0.9375 27.6563V20.1722C0.939349 19.4595 1.17224 18.7666 1.60125 18.1975C2.03025 17.6283 2.63223 17.2136 3.31687 17.0156L5.74359 16.3223L6.59578 18.4538C6.62685 18.5311 6.67798 18.5987 6.74389 18.6497C6.8098 18.7007 6.88812 18.7332 6.97078 18.7439C6.99078 18.7473 7.01098 18.7493 7.03125 18.75C7.10402 18.75 7.17579 18.7331 7.24088 18.7005C7.30597 18.668 7.36259 18.6207 7.40625 18.5625L8.4375 17.1877L9.46875 18.5625C9.51241 18.6207 9.56903 18.668 9.63412 18.7005C9.69921 18.7331 9.77098 18.75 9.84375 18.75C9.86429 18.75 9.88481 18.7486 9.90516 18.7458C9.98781 18.7351 10.0661 18.7026 10.132 18.6516C10.198 18.6006 10.2491 18.533 10.2802 18.4556L11.1323 16.3242L13.5581 17.0156C13.6144 17.0316 13.6683 17.0531 13.7231 17.0719C12.9466 17.3202 12.2583 17.7877 11.7413 18.4181C11.2243 19.0485 10.9005 19.8149 10.8089 20.625H10.7813C10.4083 20.625 10.0506 20.7732 9.78688 21.0369C9.52316 21.3006 9.375 21.6583 9.375 22.0313C9.375 22.4042 9.52316 22.7619 9.78688 23.0256C10.0506 23.2893 10.4083 23.4375 10.7813 23.4375H10.8089C10.867 23.9603 11.0232 24.4674 11.2692 24.9323C10.8427 25.1497 10.4483 25.4252 10.0973 25.7508C9.88971 25.5749 9.64582 25.4469 9.38307 25.3761C9.12032 25.3052 8.84518 25.2932 8.57726 25.3409C8.30933 25.3886 8.05522 25.4948 7.83304 25.6519C7.61086 25.809 7.42608 26.0133 7.29187 26.25H4.21875C4.09443 26.25 3.9752 26.2006 3.88729 26.1127C3.79939 26.0248 3.75 25.9056 3.75 25.7813V21.0938C3.75 20.9694 3.70061 20.8502 3.61271 20.7623C3.5248 20.6744 3.40557 20.625 3.28125 20.625C3.15693 20.625 3.0377 20.6744 2.94979 20.7623C2.86189 20.8502 2.8125 20.9694 2.8125 21.0938V25.7813C2.8125 26.1542 2.96066 26.5119 3.22438 26.7756C3.4881 27.0393 3.84579 27.1875 4.21875 27.1875H7.03125V28.125C7.03319 28.4551 7.12316 28.7787 7.29187 29.0625H2.34375C1.97079 29.0625 1.6131 28.9143 1.34938 28.6506C1.08566 28.3869 0.9375 28.0292 0.9375 27.6563ZM10.3125 22.0313C10.3125 21.9069 10.3619 21.7877 10.4498 21.6998C10.5377 21.6119 10.6569 21.5625 10.7813 21.5625V22.5C10.6569 22.5 10.5377 22.4506 10.4498 22.3627C10.3619 22.2748 10.3125 22.1556 10.3125 22.0313ZM29.0625 27.6563C29.0625 28.0292 28.9143 28.3869 28.6506 28.6506C28.3869 28.9143 28.0292 29.0625 27.6563 29.0625H21.0938C20.8451 29.0625 20.6067 28.9637 20.4308 28.7879C20.255 28.6121 20.1563 28.3736 20.1563 28.125V27.1875C20.1555 26.9666 20.2331 26.7526 20.3752 26.5835C20.5173 26.4144 20.7147 26.3012 20.9324 26.2638C21.1501 26.2264 21.374 26.2674 21.5643 26.3794C21.7547 26.4915 21.8992 26.6673 21.9722 26.8758C22.0046 26.967 22.0645 27.0459 22.1435 27.1017C22.2226 27.1575 22.317 27.1875 22.4138 27.1875H26.7188C26.8431 27.1875 26.9623 27.1381 27.0502 27.0502C27.1381 26.9623 27.1875 26.8431 27.1875 26.7188V24.3806H29.0625V27.6563Z" fill="black"/>
<path d="M6.09375 7.96875C5.96943 7.96875 5.8502 8.01814 5.76229 8.10604C5.67439 8.19395 5.625 8.31318 5.625 8.4375V8.90625C5.625 9.03057 5.67439 9.1498 5.76229 9.23771C5.8502 9.32561 5.96943 9.375 6.09375 9.375C6.21807 9.375 6.3373 9.32561 6.42521 9.23771C6.51311 9.1498 6.5625 9.03057 6.5625 8.90625V8.4375C6.5625 8.31318 6.51311 8.19395 6.42521 8.10604C6.3373 8.01814 6.21807 7.96875 6.09375 7.96875Z" fill="black"/>
<path d="M10.7813 9.375C10.9056 9.375 11.0248 9.32561 11.1127 9.23771C11.2006 9.1498 11.25 9.03057 11.25 8.90625V8.4375C11.25 8.31318 11.2006 8.19395 11.1127 8.10604C11.0248 8.01814 10.9056 7.96875 10.7813 7.96875C10.6569 7.96875 10.5377 8.01814 10.4498 8.10604C10.3619 8.19395 10.3125 8.31318 10.3125 8.4375V8.90625C10.3125 9.03057 10.3619 9.1498 10.4498 9.23771C10.5377 9.32561 10.6569 9.375 10.7813 9.375Z" fill="black"/>
<path d="M9.70682 12.5189C9.7922 12.4305 9.83945 12.3121 9.83838 12.1892C9.83731 12.0663 9.78801 11.9487 9.7011 11.8618C9.61419 11.7749 9.49663 11.7256 9.37372 11.7246C9.25082 11.7235 9.13241 11.7707 9.044 11.8561C8.97853 11.9573 8.88877 12.0405 8.78291 12.0981C8.67704 12.1557 8.55843 12.1859 8.43791 12.1859C8.31738 12.1859 8.19878 12.1557 8.09291 12.0981C7.98704 12.0405 7.89728 11.9573 7.83181 11.8561C7.74341 11.7707 7.625 11.7235 7.50209 11.7246C7.37919 11.7256 7.26162 11.7749 7.17471 11.8618C7.0878 11.9487 7.0385 12.0663 7.03744 12.1892C7.03637 12.3121 7.08361 12.4305 7.169 12.5189C7.32901 12.6999 7.52382 12.8469 7.74182 12.951C7.95982 13.0551 8.19655 13.1143 8.43791 13.125C8.67926 13.1143 8.916 13.0551 9.134 12.951C9.352 12.8469 9.54681 12.6999 9.70682 12.5189Z" fill="black"/>
<path d="M19.2188 8.90625C19.0944 8.90625 18.9752 8.95564 18.8873 9.04354C18.7994 9.13145 18.75 9.25068 18.75 9.375V9.84375C18.75 9.96807 18.7994 10.0873 18.8873 10.1752C18.9752 10.2631 19.0944 10.3125 19.2188 10.3125C19.3431 10.3125 19.4623 10.2631 19.5502 10.1752C19.6381 10.0873 19.6875 9.96807 19.6875 9.84375V9.375C19.6875 9.25068 19.6381 9.13145 19.5502 9.04354C19.4623 8.95564 19.3431 8.90625 19.2188 8.90625Z" fill="black"/>
<path d="M23.9063 10.3125C24.0306 10.3125 24.1498 10.2631 24.2377 10.1752C24.3256 10.0873 24.375 9.96807 24.375 9.84375V9.375C24.375 9.25068 24.3256 9.13145 24.2377 9.04354C24.1498 8.95564 24.0306 8.90625 23.9063 8.90625C23.7819 8.90625 23.6627 8.95564 23.5748 9.04354C23.4869 9.13145 23.4375 9.25068 23.4375 9.375V9.84375C23.4375 9.96807 23.4869 10.0873 23.5748 10.1752C23.6627 10.2631 23.7819 10.3125 23.9063 10.3125Z" fill="black"/>
<path d="M22.169 12.7936C22.1035 12.8948 22.0138 12.978 21.9079 13.0356C21.802 13.0932 21.6834 13.1234 21.5629 13.1234C21.4424 13.1234 21.3238 13.0932 21.2179 13.0356C21.112 12.978 21.0223 12.8948 20.9568 12.7936C20.8684 12.7082 20.75 12.661 20.6271 12.6621C20.5042 12.6631 20.3866 12.7124 20.2997 12.7993C20.2128 12.8862 20.1635 13.0038 20.1624 13.1267C20.1614 13.2496 20.2086 13.368 20.294 13.4564C20.4469 13.6457 20.6402 13.7984 20.8598 13.9033C21.0793 14.0081 21.3196 14.0626 21.5629 14.0626C21.8062 14.0626 22.0465 14.0081 22.266 13.9033C22.4856 13.7984 22.6789 13.6457 22.8318 13.4564C22.9172 13.368 22.9644 13.2496 22.9634 13.1267C22.9623 13.0038 22.913 12.8862 22.8261 12.7993C22.7392 12.7124 22.6216 12.6631 22.4987 12.6621C22.3758 12.661 22.2574 12.7082 22.169 12.7936Z" fill="black"/>
<path d="M12.3248 22.3626C12.4127 22.4505 12.5319 22.4999 12.6562 22.4999C12.7805 22.4999 12.8997 22.4505 12.9876 22.3626C13.0056 22.3445 13.027 22.33 13.0506 22.3202C13.0741 22.3104 13.0994 22.3053 13.125 22.3053C13.1505 22.3053 13.1758 22.3104 13.1994 22.3202C13.223 22.33 13.2444 22.3445 13.2623 22.3626C13.3503 22.4505 13.4697 22.4999 13.5941 22.4998C13.7185 22.4997 13.8377 22.4502 13.9256 22.3622C14.0135 22.2742 14.0628 22.1548 14.0627 22.0304C14.0627 21.906 14.0132 21.7868 13.9251 21.6989C13.7126 21.4872 13.4249 21.3684 13.125 21.3684C12.8251 21.3684 12.5373 21.4872 12.3248 21.6989C12.2812 21.7424 12.2465 21.7942 12.2229 21.8511C12.1993 21.9081 12.1871 21.9691 12.1871 22.0308C12.1871 22.0924 12.1993 22.1535 12.2229 22.2104C12.2465 22.2674 12.2812 22.3191 12.3248 22.3626Z" fill="black"/>
<path d="M16.7375 22.363C16.7555 22.3449 16.7769 22.3304 16.8005 22.3206C16.824 22.3107 16.8493 22.3057 16.8749 22.3057C16.9004 22.3057 16.9257 22.3107 16.9493 22.3206C16.9729 22.3304 16.9943 22.3449 17.0122 22.363C17.1002 22.4509 17.2196 22.5002 17.344 22.5002C17.4683 22.5001 17.5876 22.4506 17.6755 22.3626C17.7634 22.2745 17.8127 22.1552 17.8126 22.0308C17.8125 21.9064 17.7631 21.7872 17.675 21.6993C17.4625 21.4876 17.1748 21.3688 16.8749 21.3688C16.5749 21.3688 16.2872 21.4876 16.0747 21.6993C15.9867 21.7872 15.9372 21.9064 15.9371 22.0308C15.937 22.1552 15.9864 22.2745 16.0743 22.3626C16.1621 22.4506 16.2814 22.5001 16.4058 22.5002C16.5302 22.5002 16.6495 22.4509 16.7375 22.363Z" fill="black"/>
<path d="M13.6428 24.6343C13.6153 24.6894 13.5989 24.7494 13.5945 24.8108C13.5902 24.8722 13.598 24.9339 13.6175 24.9923C13.637 25.0508 13.6678 25.1048 13.7082 25.1513C13.7486 25.1978 13.7977 25.2359 13.8528 25.2634C14.2093 25.4404 14.6019 25.5326 14.9999 25.5326C15.3979 25.5326 15.7905 25.4404 16.1469 25.2634C16.202 25.2358 16.2511 25.1977 16.2915 25.1512C16.3319 25.1047 16.3627 25.0507 16.3822 24.9923C16.4017 24.9339 16.4095 24.8722 16.4052 24.8108C16.4008 24.7494 16.3844 24.6894 16.3569 24.6343C16.3294 24.5792 16.2913 24.5301 16.2448 24.4897C16.1983 24.4493 16.1443 24.4185 16.0859 24.399C15.9679 24.3596 15.8391 24.3687 15.7278 24.4243C15.5017 24.5369 15.2525 24.5955 14.9999 24.5955C14.7472 24.5955 14.4981 24.5369 14.2719 24.4243C14.2168 24.3967 14.1568 24.3803 14.0954 24.376C14.034 24.3716 13.9723 24.3794 13.9139 24.3989C13.8554 24.4184 13.8014 24.4493 13.7549 24.4896C13.7084 24.53 13.6703 24.5792 13.6428 24.6343Z" fill="black"/>
</svg>
