<svg width="22" height="23" viewBox="0 0 22 23" fill="none" xmlns="http://www.w3.org/2000/svg">
<path d="M3.1665 0.519531C1.79175 0.519531 0.666504 1.68978 0.666504 3.11953V19.7595C0.666504 21.1893 1.79175 22.3595 3.1665 22.3595H11.5825C11.6365 22.3688 11.6916 22.3688 11.7456 22.3595H14.5825C14.6365 22.3688 14.6916 22.3688 14.7456 22.3595H19.1665C20.5413 22.3595 21.6665 21.1893 21.6665 19.7595V3.11953C21.6665 1.68978 20.5413 0.519531 19.1665 0.519531H3.1665ZM3.1665 1.55953H19.1665C20.0007 1.55953 20.6665 2.25192 20.6665 3.11953V19.7595C20.6665 20.6271 20.0007 21.3195 19.1665 21.3195H15.1665V14.0395H17.0767L17.7769 10.3995H15.1665V9.35953C15.1665 9.06964 15.193 9.04697 15.2866 8.98375C15.3802 8.92053 15.6694 8.83953 16.1665 8.83953H17.6665V5.91148L17.3813 5.77031C17.3813 5.77031 16.2328 5.19953 14.6665 5.19953C13.5415 5.19953 12.6173 5.66569 12.0259 6.43453C11.4345 7.20338 11.1665 8.23287 11.1665 9.35953V10.3995H9.6665V14.0395H11.1665V21.3195H3.1665C2.33226 21.3195 1.6665 20.6271 1.6665 19.7595V3.11953C1.6665 2.25192 2.33226 1.55953 3.1665 1.55953ZM14.6665 6.23953C15.706 6.23953 16.3602 6.47793 16.6665 6.60414V7.79953H16.1665C15.5911 7.79953 15.13 7.84904 14.7417 8.11133C14.3534 8.37362 14.1665 8.87151 14.1665 9.35953V11.4395H16.5562L16.2563 12.9995H14.1665V21.3195H12.1665V12.9995H10.6665V11.4395H12.1665V9.35953C12.1665 8.4062 12.3985 7.61569 12.8071 7.08453C13.2157 6.55338 13.7915 6.23953 14.6665 6.23953Z" fill="black"/>
</svg>
