<svg width="16" height="15" viewBox="0 0 16 15" fill="none" xmlns="http://www.w3.org/2000/svg">
<path d="M15.0732 5.64591L10.6101 4.99727L8.61495 0.952546C8.56046 0.841803 8.47081 0.752155 8.36007 0.697663C8.08234 0.560553 7.74484 0.674811 7.60597 0.952546L5.61085 4.99727L1.14777 5.64591C1.02472 5.66348 0.912219 5.72149 0.826086 5.80938C0.721956 5.91641 0.664576 6.0604 0.666553 6.20971C0.668531 6.35902 0.729705 6.50144 0.836633 6.60567L4.06573 9.75391L3.30284 14.1994C3.28495 14.3028 3.2964 14.4092 3.33588 14.5064C3.37536 14.6037 3.44129 14.6879 3.52621 14.7496C3.61112 14.8112 3.71162 14.8479 3.8163 14.8554C3.92098 14.8628 4.02566 14.8408 4.11847 14.7918L8.11046 12.693L12.1025 14.7918C12.2114 14.8498 12.338 14.8691 12.4593 14.8481C12.7651 14.7953 12.9708 14.5053 12.9181 14.1994L12.1552 9.75391L15.3843 6.60567C15.4722 6.51954 15.5302 6.40704 15.5478 6.28399C15.5952 5.97637 15.3808 5.69161 15.0732 5.64591V5.64591ZM10.7964 9.31094L11.431 13.0076L8.11046 11.2639L4.78995 13.0094L5.42452 9.3127L2.73859 6.69356L6.45109 6.15391L8.11046 2.79122L9.76984 6.15391L13.4823 6.69356L10.7964 9.31094Z" fill="black"/>
</svg>
