<svg width="30" height="30" viewBox="0 0 30 30" fill="none" xmlns="http://www.w3.org/2000/svg">
<path d="M7.32769 6.29728C6.56591 6.29728 5.94922 5.63235 5.94922 4.81096V1.48631C5.94922 0.66493 6.56591 0 7.32769 0C8.08948 0 8.70617 0.66493 8.70617 1.48631V4.81096C8.70617 5.63235 8.08948 6.29728 7.32769 6.29728Z" fill="black"/>
<path d="M22.5634 6.29728C21.8016 6.29728 21.1849 5.63235 21.1849 4.81096V1.48631C21.1849 0.66493 21.8016 0 22.5634 0C23.3252 0 23.9418 0.66493 23.9418 1.48631V4.81096C23.9781 5.63235 23.3252 6.29728 22.5634 6.29728Z" fill="black"/>
<path d="M27.4607 3.91128C28.4401 3.91128 29.2382 4.77178 29.2382 5.82784V27.3012C29.2382 28.3572 28.4401 29.2177 27.4607 29.2177H2.46675C1.4873 29.2177 0.689238 28.3572 0.689238 27.3012V5.82784C0.689238 4.77178 1.4873 3.91128 2.46675 3.91128H4.60701V4.92823C4.60701 6.53189 5.80411 7.82263 7.29141 7.82263C8.77872 7.82263 9.97582 6.53189 9.97582 4.92823V3.91128H19.8791V4.92823C19.8791 6.53189 21.0762 7.82263 22.5635 7.82263C24.0508 7.82263 25.2479 6.53189 25.2479 4.92823V3.91128H27.4607ZM27.4607 3.12901H24.5949V4.92823C24.5949 6.10164 23.7243 7.04036 22.636 7.04036C21.5478 7.04036 20.6771 6.10164 20.6771 4.92823V3.12901H9.28658V4.92823C9.28658 6.10164 8.41596 7.04036 7.32769 7.04036C6.23942 7.04036 5.3688 6.10164 5.3688 4.92823V3.12901H2.50302C1.12455 3.12901 0 4.34153 0 5.82784V27.3012C0 28.7875 1.12455 30 2.50302 30H27.497C28.8755 30 30 28.7875 30 27.3012V5.82784C30 4.34153 28.8392 3.12901 27.4607 3.12901Z" fill="black"/>
<path d="M28.0773 8.64415H1.77745V9.42642H28.0773V8.64415Z" fill="black"/>
<path d="M16.0338 14.7458H13.9661C13.6033 14.7458 13.3131 14.4329 13.3131 14.0417V11.8123C13.3131 11.4211 13.6033 11.1082 13.9661 11.1082H16.0338C16.3965 11.1082 16.6867 11.4211 16.6867 11.8123V14.0417C16.6867 14.4329 16.3965 14.7458 16.0338 14.7458ZM13.9661 11.4994C13.821 11.4994 13.6759 11.6167 13.6759 11.8123V14.0417C13.6759 14.1982 13.7847 14.3546 13.9661 14.3546H16.0338C16.1789 14.3546 16.324 14.2373 16.324 14.0417V11.8123C16.324 11.6558 16.2152 11.4994 16.0338 11.4994H13.9661Z" fill="black"/>
<path d="M19.9516 14.7458H17.8839C17.5211 14.7458 17.2309 14.4329 17.2309 14.0417V11.8123C17.2309 11.4211 17.5211 11.1082 17.8839 11.1082H19.9516C20.3143 11.1082 20.6045 11.4211 20.6045 11.8123V14.0417C20.6045 14.4329 20.3143 14.7458 19.9516 14.7458ZM17.8839 11.4994C17.7388 11.4994 17.5936 11.6167 17.5936 11.8123V14.0417C17.5936 14.1982 17.7025 14.3546 17.8839 14.3546H19.9516C20.0967 14.3546 20.2418 14.2373 20.2418 14.0417V11.8123C20.2418 11.6558 20.1329 11.4994 19.9516 11.4994H17.8839Z" fill="black"/>
<path d="M23.8694 14.7458H21.8016C21.4389 14.7458 21.1487 14.4329 21.1487 14.0417V11.8123C21.1487 11.4211 21.4389 11.1082 21.8016 11.1082H23.8694C24.2321 11.1082 24.5223 11.4211 24.5223 11.8123V14.0417C24.5223 14.4329 24.2321 14.7458 23.8694 14.7458ZM21.8016 11.4994C21.6565 11.4994 21.5114 11.6167 21.5114 11.8123V14.0417C21.5114 14.1982 21.6203 14.3546 21.8016 14.3546H23.8694C24.0145 14.3546 24.1596 14.2373 24.1596 14.0417V11.8123C24.1596 11.6558 24.0507 11.4994 23.8694 11.4994H21.8016Z" fill="black"/>
<path d="M27.7869 14.5505H25.7192C25.4652 14.5505 25.2476 14.3158 25.2476 14.042V11.8125C25.2476 11.5387 25.4652 11.3041 25.7192 11.3041H27.7869C28.0408 11.3041 28.2585 11.5387 28.2585 11.8125V14.042C28.2585 14.3158 28.0408 14.5505 27.7869 14.5505Z" fill="black"/>
<path d="M4.31675 18.9311H2.24904C1.99511 18.9311 1.77745 18.6964 1.77745 18.4226V16.1931C1.77745 15.9193 1.99511 15.6846 2.24904 15.6846H4.31675C4.57068 15.6846 4.78834 15.9193 4.78834 16.1931V18.4226C4.78834 18.6964 4.57068 18.9311 4.31675 18.9311Z" fill="black"/>
<path d="M8.23448 19.1265H6.16677C5.80401 19.1265 5.51381 18.8136 5.51381 18.4225V16.193C5.51381 15.8019 5.80401 15.489 6.16677 15.489H8.23448C8.59724 15.489 8.88745 15.8019 8.88745 16.193V18.4225C8.85117 18.8136 8.56096 19.1265 8.23448 19.1265ZM6.16677 15.8801C6.02167 15.8801 5.87656 15.9975 5.87656 16.193V18.4225C5.87656 18.5789 5.98539 18.7354 6.16677 18.7354H8.23448C8.37959 18.7354 8.52469 18.6181 8.52469 18.4225V16.193C8.52469 16.0366 8.41586 15.8801 8.23448 15.8801H6.16677Z" fill="black"/>
<path d="M12.1163 19.1265H10.0486C9.68585 19.1265 9.39564 18.8136 9.39564 18.4225V16.193C9.39564 15.8019 9.68585 15.489 10.0486 15.489H12.1163C12.4791 15.489 12.7693 15.8019 12.7693 16.193V18.4225C12.7693 18.8136 12.4791 19.1265 12.1163 19.1265ZM10.0849 15.8801C9.93978 15.8801 9.79467 15.9975 9.79467 16.193V18.4225C9.79467 18.5789 9.9035 18.7354 10.0849 18.7354H12.1163C12.2614 18.7354 12.4065 18.6181 12.4065 18.4225V16.193C12.4065 16.0366 12.2977 15.8801 12.1163 15.8801H10.0849Z" fill="black"/>
<path d="M16.0338 19.1265H13.9661C13.6033 19.1265 13.3131 18.8136 13.3131 18.4225V16.193C13.3131 15.8019 13.6033 15.489 13.9661 15.489H16.0338C16.3965 15.489 16.6867 15.8019 16.6867 16.193V18.4225C16.6867 18.8136 16.3965 19.1265 16.0338 19.1265ZM13.9661 15.8801C13.821 15.8801 13.6759 15.9975 13.6759 16.193V18.4225C13.6759 18.5789 13.7847 18.7354 13.9661 18.7354H16.0338C16.1789 18.7354 16.324 18.6181 16.324 18.4225V16.193C16.324 16.0366 16.2152 15.8801 16.0338 15.8801H13.9661Z" fill="black"/>
<path d="M19.9516 19.1265H17.8839C17.5211 19.1265 17.2309 18.8136 17.2309 18.4225V16.193C17.2309 15.8019 17.5211 15.489 17.8839 15.489H19.9516C20.3143 15.489 20.6045 15.8019 20.6045 16.193V18.4225C20.6045 18.8136 20.3143 19.1265 19.9516 19.1265ZM17.8839 15.8801C17.7388 15.8801 17.5936 15.9975 17.5936 16.193V18.4225C17.5936 18.5789 17.7025 18.7354 17.8839 18.7354H19.9516C20.0967 18.7354 20.2418 18.6181 20.2418 18.4225V16.193C20.2418 16.0366 20.1329 15.8801 19.9516 15.8801H17.8839Z" fill="black"/>
<path d="M23.8694 19.1265H21.8016C21.4389 19.1265 21.1487 18.8136 21.1487 18.4225V16.193C21.1487 15.8019 21.4389 15.489 21.8016 15.489H23.8694C24.2321 15.489 24.5223 15.8019 24.5223 16.193V18.4225C24.5223 18.8136 24.2321 19.1265 23.8694 19.1265ZM21.8016 15.8801C21.6565 15.8801 21.5114 15.9975 21.5114 16.193V18.4225C21.5114 18.5789 21.6203 18.7354 21.8016 18.7354H23.8694C24.0145 18.7354 24.1596 18.6181 24.1596 18.4225V16.193C24.1596 16.0366 24.0507 15.8801 23.8694 15.8801H21.8016Z" fill="black"/>
<path d="M27.7869 18.9311H25.7192C25.4652 18.9311 25.2476 18.6964 25.2476 18.4226V16.1931C25.2476 15.9193 25.4652 15.6846 25.7192 15.6846H27.7869C28.0408 15.6846 28.2585 15.9193 28.2585 16.1931V18.4226C28.2585 18.6964 28.0408 18.9311 27.7869 18.9311Z" fill="black"/>
<path d="M4.31675 23.3116H2.24904C1.99511 23.3116 1.77745 23.077 1.77745 22.8032V20.5737C1.77745 20.2999 1.99511 20.0652 2.24904 20.0652H4.31675C4.57068 20.0652 4.78834 20.2999 4.78834 20.5737V22.8032C4.78834 23.077 4.57068 23.3116 4.31675 23.3116Z" fill="black"/>
<path d="M8.23448 23.5071H6.16677C5.80401 23.5071 5.51381 23.1942 5.51381 22.8031V20.5736C5.51381 20.1825 5.80401 19.8696 6.16677 19.8696H8.23448C8.59724 19.8696 8.88745 20.1825 8.88745 20.5736V22.8031C8.85117 23.1942 8.56096 23.5071 8.23448 23.5071ZM6.16677 20.2607C6.02167 20.2607 5.87656 20.378 5.87656 20.5736V22.8031C5.87656 22.9595 5.98539 23.116 6.16677 23.116H8.23448C8.37959 23.116 8.52469 22.9986 8.52469 22.8031V20.5736C8.52469 20.4171 8.41586 20.2607 8.23448 20.2607H6.16677Z" fill="black"/>
<path d="M12.1163 23.5071H10.0486C9.68585 23.5071 9.39564 23.1942 9.39564 22.8031V20.5736C9.39564 20.1825 9.68585 19.8696 10.0486 19.8696H12.1163C12.4791 19.8696 12.7693 20.1825 12.7693 20.5736V22.8031C12.7693 23.1942 12.4791 23.5071 12.1163 23.5071ZM10.0849 20.2607C9.93978 20.2607 9.79467 20.378 9.79467 20.5736V22.8031C9.79467 22.9595 9.9035 23.116 10.0849 23.116H12.1163C12.2614 23.116 12.4065 22.9986 12.4065 22.8031V20.5736C12.4065 20.4171 12.2977 20.2607 12.1163 20.2607H10.0849Z" fill="black"/>
<path d="M16.0338 23.5071H13.9661C13.6033 23.5071 13.3131 23.1942 13.3131 22.8031V20.5736C13.3131 20.1825 13.6033 19.8696 13.9661 19.8696H16.0338C16.3965 19.8696 16.6867 20.1825 16.6867 20.5736V22.8031C16.6867 23.1942 16.3965 23.5071 16.0338 23.5071ZM13.9661 20.2607C13.821 20.2607 13.6759 20.378 13.6759 20.5736V22.8031C13.6759 22.9595 13.7847 23.116 13.9661 23.116H16.0338C16.1789 23.116 16.324 22.9986 16.324 22.8031V20.5736C16.324 20.4171 16.2152 20.2607 16.0338 20.2607H13.9661Z" fill="black"/>
<path d="M19.9516 23.5071H17.8839C17.5211 23.5071 17.2309 23.1942 17.2309 22.8031V20.5736C17.2309 20.1825 17.5211 19.8696 17.8839 19.8696H19.9516C20.3143 19.8696 20.6045 20.1825 20.6045 20.5736V22.8031C20.6045 23.1942 20.3143 23.5071 19.9516 23.5071ZM17.8839 20.2607C17.7388 20.2607 17.5936 20.378 17.5936 20.5736V22.8031C17.5936 22.9595 17.7025 23.116 17.8839 23.116H19.9516C20.0967 23.116 20.2418 22.9986 20.2418 22.8031V20.5736C20.2418 20.4171 20.1329 20.2607 19.9516 20.2607H17.8839Z" fill="black"/>
<path d="M23.8694 23.5071H21.8016C21.4389 23.5071 21.1487 23.1942 21.1487 22.8031V20.5736C21.1487 20.1825 21.4389 19.8696 21.8016 19.8696H23.8694C24.2321 19.8696 24.5223 20.1825 24.5223 20.5736V22.8031C24.5223 23.1942 24.2321 23.5071 23.8694 23.5071ZM21.8016 20.2607C21.6565 20.2607 21.5114 20.378 21.5114 20.5736V22.8031C21.5114 22.9595 21.6203 23.116 21.8016 23.116H23.8694C24.0145 23.116 24.1596 22.9986 24.1596 22.8031V20.5736C24.1596 20.4171 24.0507 20.2607 23.8694 20.2607H21.8016Z" fill="black"/>
<path d="M27.7869 23.3116H25.7192C25.4652 23.3116 25.2476 23.077 25.2476 22.8032V20.5737C25.2476 20.2999 25.4652 20.0652 25.7192 20.0652H27.7869C28.0408 20.0652 28.2585 20.2999 28.2585 20.5737V22.8032C28.2585 23.077 28.0408 23.3116 27.7869 23.3116Z" fill="black"/>
<path d="M4.31675 27.6922H2.24904C1.99511 27.6922 1.77745 27.4575 1.77745 27.1837V24.9543C1.77745 24.6805 1.99511 24.4458 2.24904 24.4458H4.31675C4.57068 24.4458 4.78834 24.6805 4.78834 24.9543V27.1837C4.78834 27.4575 4.57068 27.6922 4.31675 27.6922Z" fill="black"/>
<path d="M8.23448 27.8879H6.16677C5.80401 27.8879 5.51381 27.575 5.51381 27.1838V24.9544C5.51381 24.5632 5.80401 24.2503 6.16677 24.2503H8.23448C8.59724 24.2503 8.88745 24.5632 8.88745 24.9544V27.1838C8.85117 27.575 8.56096 27.8879 8.23448 27.8879ZM6.16677 24.6806C6.02167 24.6806 5.87656 24.7979 5.87656 24.9935V27.2229C5.87656 27.3794 5.98539 27.5358 6.16677 27.5358H8.23448C8.37959 27.5358 8.52469 27.4185 8.52469 27.2229V24.9935C8.52469 24.837 8.41586 24.6806 8.23448 24.6806H6.16677Z" fill="black"/>
<path d="M12.1163 27.8879H10.0486C9.68585 27.8879 9.39564 27.575 9.39564 27.1838V24.9544C9.39564 24.5632 9.68585 24.2503 10.0486 24.2503H12.1163C12.4791 24.2503 12.7693 24.5632 12.7693 24.9544V27.1838C12.7693 27.575 12.4791 27.8879 12.1163 27.8879ZM10.0849 24.6806C9.93978 24.6806 9.79467 24.7979 9.79467 24.9935V27.2229C9.79467 27.3794 9.9035 27.5358 10.0849 27.5358H12.1163C12.2614 27.5358 12.4065 27.4185 12.4065 27.2229V24.9935C12.4065 24.837 12.2977 24.6806 12.1163 24.6806H10.0849Z" fill="black"/>
<path d="M16.0338 27.8879H13.9661C13.6033 27.8879 13.3131 27.575 13.3131 27.1838V24.9544C13.3131 24.5632 13.6033 24.2503 13.9661 24.2503H16.0338C16.3965 24.2503 16.6867 24.5632 16.6867 24.9544V27.1838C16.6867 27.575 16.3965 27.8879 16.0338 27.8879ZM13.9661 24.6806C13.821 24.6806 13.6759 24.7979 13.6759 24.9935V27.2229C13.6759 27.3794 13.7847 27.5358 13.9661 27.5358H16.0338C16.1789 27.5358 16.324 27.4185 16.324 27.2229V24.9935C16.324 24.837 16.2152 24.6806 16.0338 24.6806H13.9661Z" fill="black"/>
<path d="M19.9516 27.8879H17.8839C17.5211 27.8879 17.2309 27.575 17.2309 27.1838V24.9544C17.2309 24.5632 17.5211 24.2503 17.8839 24.2503H19.9516C20.3143 24.2503 20.6045 24.5632 20.6045 24.9544V27.1838C20.6045 27.575 20.3143 27.8879 19.9516 27.8879ZM17.8839 24.6806C17.7388 24.6806 17.5936 24.7979 17.5936 24.9935V27.2229C17.5936 27.3794 17.7025 27.5358 17.8839 27.5358H19.9516C20.0967 27.5358 20.2418 27.4185 20.2418 27.2229V24.9935C20.2418 24.837 20.1329 24.6806 19.9516 24.6806H17.8839Z" fill="black"/>
</svg>
