<svg width="30" height="30" viewBox="0 0 30 30" fill="none" xmlns="http://www.w3.org/2000/svg">
<path d="M0.5 2.29635e-10H16.9854C17.2241 0.000262448 17.4593 0.0637053 17.6716 0.185076C17.8839 0.306446 18.067 0.482252 18.206 0.697937L20.4069 4.12143C20.4674 4.21567 20.5 4.32857 20.5 4.44437L20.4999 7.22235C20.4991 7.95878 20.2355 8.6648 19.7668 9.18553C19.2982 9.70626 18.6628 9.99917 18 10H17.875L17.3155 10.8289C22.2727 12.0137 26 16.9208 26 22.7778V23.3333H29.5C29.5657 23.3333 29.6307 23.3477 29.6913 23.3756C29.752 23.4035 29.8071 23.4445 29.8536 23.496C29.9 23.5476 29.9368 23.6089 29.9619 23.6763C29.9871 23.7437 30 23.8159 30 23.8889V26.1111C30 26.1841 29.9871 26.2563 29.9619 26.3237C29.9368 26.3911 29.9 26.4524 29.8536 26.5039C29.8071 26.5555 29.752 26.5965 29.6913 26.6244C29.6307 26.6523 29.5657 26.6667 29.5 26.6667H28.2609C27.5911 27.6995 26.7098 28.5405 25.6898 29.1201C24.6697 29.6997 23.5401 30.0013 22.3944 30H7.60556C6.45985 30.0013 5.3303 29.6997 4.31023 29.1201C3.29017 28.5405 2.40886 27.6995 1.73914 26.6667H0.5C0.434339 26.6667 0.36932 26.6523 0.308657 26.6244C0.247993 26.5965 0.192872 26.5555 0.146442 26.5039C0.100013 26.4524 0.063184 26.3911 0.0380573 26.3237C0.0129306 26.2563 -1.88785e-06 26.1841 0 26.1111V23.8889C-1.88785e-06 23.8159 0.0129306 23.7437 0.0380573 23.6763C0.063184 23.6089 0.100013 23.5476 0.146442 23.496C0.192872 23.4445 0.247993 23.4035 0.308657 23.3756C0.36932 23.3477 0.434339 23.3333 0.5 23.3333H4V22.7778C4 16.9208 7.72726 12.0137 12.6845 10.8289L12.125 10H11C10.6023 9.99951 10.221 9.82376 9.93984 9.51131C9.65863 9.19886 9.50045 8.77524 9.5 8.33337V7.77006C8.67842 7.72522 7.87948 7.45588 7.17398 6.98591L5.86151 6.11097H5.5V7.22222C5.5 7.29518 5.48707 7.36742 5.46194 7.43483C5.43682 7.50223 5.39999 7.56347 5.35356 7.61506C5.30713 7.66665 5.25201 7.70757 5.19134 7.73549C5.13068 7.76341 5.06566 7.77778 5 7.77778H0.5C0.434339 7.77778 0.36932 7.76341 0.308657 7.73549C0.247993 7.70757 0.192872 7.66665 0.146442 7.61506C0.100013 7.56347 0.063184 7.50223 0.0380573 7.43483C0.0129306 7.36742 -1.88785e-06 7.29518 0 7.22222V0.555555C-1.88785e-06 0.482598 0.0129306 0.410355 0.0380573 0.342951C0.063184 0.275547 0.100013 0.214302 0.146442 0.162714C0.192872 0.111125 0.247993 0.0702034 0.308657 0.0422849C0.36932 0.0143663 0.434339 -2.09738e-06 0.5 2.29635e-10ZM7.60556 28.8889H22.3944C23.2542 28.8899 24.1048 28.693 24.8926 28.3105C25.6804 27.928 26.3884 27.3683 26.9718 26.6667H3.02823C3.61164 27.3683 4.31958 27.928 5.1074 28.3105C5.89522 28.693 6.74582 28.8899 7.60556 28.8889ZM1 25.5556H29V24.4444H1V25.5556ZM5 22.7778V23.3333H25V22.7778C25 16.6511 20.514 11.6667 15 11.6667C9.48599 11.6667 5 16.6511 5 22.7778ZM15 10.5556C15.4011 10.5557 15.8019 10.5801 16.2007 10.6287L17.5 8.70371V7.77778H12.5V8.70371L13.7993 10.6287C14.1981 10.5801 14.5989 10.5557 15 10.5556V10.5556ZM11 8.88889H11.5V7.77761H10.5V8.33337C10.5002 8.48065 10.5529 8.62186 10.6466 8.726C10.7404 8.83015 10.8674 8.88873 11 8.88889V8.88889ZM6 4.99986C6.09062 4.99986 6.17953 5.02723 6.25723 5.07904L7.68845 6.03315C8.31012 6.44753 9.02144 6.66644 9.7464 6.6665H16C16.265 6.66618 16.5191 6.54899 16.7064 6.34067C16.8937 6.13234 16.9989 5.84993 16.9989 5.55547C16.9989 5.26101 16.8937 4.97859 16.7064 4.77024C16.5192 4.5619 16.2651 4.44469 16.0001 4.44434H12V3.33323H16.0001C16.3513 3.33295 16.6963 3.43548 17.0004 3.6305C17.3046 3.82552 17.5571 4.10615 17.7326 4.44412C17.9081 4.78209 18.0003 5.16547 18 5.55565C17.9997 5.94583 17.9069 6.32903 17.7309 6.66667H18C18.0657 6.66666 18.1307 6.68103 18.1913 6.70895C18.252 6.73687 18.3071 6.77779 18.3536 6.82938C18.4 6.88097 18.4368 6.94221 18.4619 7.00962C18.4871 7.07702 18.5 7.14926 18.5 7.22222V8.7933C18.7922 8.67809 19.0451 8.46526 19.2242 8.184C19.4032 7.90273 19.4995 7.56682 19.4999 7.22232L19.5 4.62236L17.3923 1.34376C17.346 1.27186 17.2849 1.21326 17.2141 1.17281C17.1434 1.13235 17.065 1.1112 16.9854 1.11111H5.5V4.99986H6ZM1 6.66667H4.5V1.11111H1V6.66667Z" fill="black"/>
</svg>
