<svg width="30" height="30" viewBox="0 0 30 30" fill="none" xmlns="http://www.w3.org/2000/svg">
<path d="M17.1494 21.6317H10.6379C10.3612 21.6317 10.1371 21.8679 10.1371 22.1594C10.1371 22.451 10.3612 22.6871 10.6379 22.6871H17.1494C17.4261 22.6871 17.6502 22.451 17.6502 22.1594C17.6502 21.8679 17.4261 21.6317 17.1494 21.6317Z" fill="black"/>
<path d="M17.149 24.2704H11.6394C11.3626 24.2704 11.1385 24.5065 11.1385 24.7981C11.1385 25.0896 11.3626 25.3258 11.6394 25.3258H17.149C17.4258 25.3258 17.6499 25.0896 17.6499 24.7981C17.6499 24.5065 17.4258 24.2704 17.149 24.2704Z" fill="black"/>
<path d="M29.8023 0.422164C29.602 0.158311 29.3015 0 28.9884 0H27.0225C26.5967 0 26.2085 0.290237 26.0833 0.738786L21.7757 15.3034C21.1872 15.3298 20.6613 15.7388 20.4484 16.3456L19.2375 19.8496L10.4684 18.1662C10.3557 18.1398 10.243 18.1266 10.1428 18.1266C10.6187 17.5726 11.1821 17.0976 11.8082 16.715L12.0587 16.5699V14.3799C12.0587 14.0237 11.7832 13.7335 11.4576 13.7335H10.2305C12.1839 12.4934 13.4987 10.2243 13.4987 7.63852C13.4987 3.72032 10.4684 0.527704 6.74935 0.527704C3.03032 0.527704 0 3.72032 0 7.63852C0 10.2243 1.31481 12.4934 3.26824 13.7335H2.05361C1.71551 13.7335 1.45255 14.0237 1.45255 14.3799V16.5699L1.69047 16.715C3.66894 17.9156 4.97123 20.0396 5.17158 22.4406L5.78516 29.4195C5.81021 29.7493 6.07317 30 6.3737 30H7.12501C7.43806 30 7.70103 29.7493 7.72607 29.4195L8.01408 26.095C8.81548 27.5462 10.2806 28.4828 11.9335 28.496H18.3385L22.04 28.4921C22.2791 28.4921 22.4958 28.3417 22.5884 28.1095C23.0743 26.9103 24.5105 23.1174 24.4717 23.2164L24.4692 23.215L26.6218 17.4406C26.9223 16.6491 26.5466 15.752 25.8078 15.4354L29.9526 1.35884C30.0528 1.04222 29.9902 0.699208 29.8023 0.422164ZM0.964194 7.63852C0.964194 4.2876 3.55625 1.54354 6.74935 1.54354C9.94246 1.54354 12.5345 4.2876 12.5345 7.63852C12.5345 11.0026 9.94246 13.7335 6.74935 13.7335C3.55625 13.7335 0.964194 11.0026 0.964194 7.63852ZM2.41674 15.7718V14.7625H11.0945V15.7718H2.41674ZM6.92466 21.6359L7.11249 22.6913L7.26276 23.4565L6.79944 28.9842H6.71179L6.13578 22.3483C5.94795 20.1715 4.97123 18.1926 3.44355 16.7942C3.44104 16.7916 3.43729 16.7902 3.43478 16.7876H10.0752C10.0727 16.7902 10.0689 16.7916 10.0664 16.7942C9.56555 17.2427 9.11476 17.7704 8.75162 18.3509C8.42605 18.496 8.12552 18.6939 7.86256 18.9578C7.16258 19.6438 6.81196 20.6332 6.92466 21.6359ZM25.6826 17.0712L23.5539 22.81L23.5564 22.8113L21.8434 27.4406H11.9335C10.268 27.4274 8.84053 26.2137 8.50243 24.4987L7.93894 21.715C7.8012 21.0158 8.00155 20.3034 8.47739 19.8021C8.57757 19.6834 8.69026 19.591 8.81548 19.4987C8.97827 19.3931 9.14106 19.314 9.32889 19.2612C9.62941 19.1557 9.95499 19.1425 10.2806 19.2084L20.5611 21.095C20.7364 21.1346 20.9117 21.0686 21.0369 20.9235C21.1496 20.7784 21.1872 20.5805 21.1371 20.409C21.0745 20.2243 20.9243 20.0923 20.7615 20.0528L20.2731 19.9604L21.3876 16.7018C21.4627 16.4908 21.6505 16.3588 21.8509 16.3588H25.1692C25.3445 16.3325 25.5198 16.4116 25.6075 16.5567C25.7327 16.7018 25.7577 16.8997 25.6826 17.0712ZM24.8061 15.3034H22.8401L27.0225 1.05541H28.9884L24.8061 15.3034Z" fill="black"/>
<path d="M9.32754 6.89963C9.47906 6.73999 9.47906 6.48142 9.32754 6.32311C9.17602 6.16348 9.17602 5.9049 9.32754 5.74659C9.4778 5.58828 9.75078 5.58828 9.90105 5.74659C10.0526 5.90622 10.298 5.90622 10.4483 5.74659C10.5985 5.58696 10.5998 5.32838 10.4483 5.17007C9.99622 4.69382 9.23112 4.69382 8.77908 5.17007C8.32453 5.64897 8.32453 6.42337 8.77908 6.90094C8.93059 7.05926 9.17602 7.05926 9.32754 6.89963Z" fill="black"/>
<path d="M6.58895 6.32316C6.74047 6.16353 6.74047 5.90496 6.58895 5.74665C6.43743 5.58702 6.43743 5.32844 6.58895 5.17013C6.74047 5.0105 6.9859 5.0105 7.13616 5.17013C7.28768 5.32976 7.53311 5.32976 7.68337 5.17013C7.83364 5.0105 7.83489 4.75192 7.68337 4.59361C7.22882 4.11472 6.49378 4.11472 6.04049 4.59361C5.58594 5.07251 5.58594 5.84691 6.04049 6.32448C6.192 6.4828 6.43743 6.4828 6.58895 6.32316Z" fill="black"/>
<path d="M3.82445 5.74534C3.97596 5.58571 3.97596 5.32714 3.82445 5.16883C3.67293 5.0092 3.67293 4.75062 3.82445 4.59231C4.00977 4.39706 4.21263 4.39706 4.39796 4.59231C4.54947 4.75194 4.7949 4.75194 4.94517 4.59231C5.09668 4.43268 5.09668 4.1741 4.94517 4.01579C4.4543 3.49864 3.7681 3.49864 3.27599 4.01579C2.82269 4.49336 2.82269 5.27041 3.27599 5.74666C3.4275 5.90497 3.67293 5.90497 3.82445 5.74534Z" fill="black"/>
<path d="M4.39787 8.63186C4.54939 8.47223 4.54939 8.21366 4.39787 8.05535C4.24636 7.89572 4.24636 7.63714 4.39787 7.47883C4.54939 7.3192 4.79482 7.3192 4.94508 7.47883C5.0966 7.63846 5.34203 7.63846 5.49229 7.47883C5.64381 7.3192 5.64381 7.06062 5.49229 6.90231C5.03775 6.42342 4.30271 6.42342 3.84941 6.90231C3.39611 7.3812 3.39486 8.15561 3.84941 8.63318C4.00093 8.79017 4.24636 8.79017 4.39787 8.63186Z" fill="black"/>
<path d="M4.39792 9.81253C3.94463 10.2901 3.94463 11.0672 4.39792 11.5434C4.54944 11.703 4.79487 11.703 4.94513 11.5434C5.0954 11.3838 5.09665 11.1252 4.94513 10.9669C4.79362 10.8073 4.79362 10.5487 4.94513 10.3904C5.09665 10.2307 5.34208 10.2307 5.49235 10.3904C5.64386 10.55 5.88929 10.55 6.03956 10.3904C6.19107 10.2307 6.19107 9.97217 6.03956 9.81385C5.58751 9.33496 4.85122 9.33496 4.39792 9.81253Z" fill="black"/>
<path d="M7.13586 9.20854C7.28737 9.04891 7.28737 8.79033 7.13586 8.63202C6.98559 8.47239 6.98559 8.21382 7.13586 8.05419C7.28737 7.89456 7.53281 7.89456 7.68307 8.05419C7.83459 8.21382 8.08002 8.21382 8.23028 8.05419C8.3818 7.89456 8.3818 7.63598 8.23028 7.47767C7.77698 7.0001 7.03944 7.0001 6.58739 7.47767C6.13535 7.95524 6.1341 8.73229 6.58739 9.20854C6.74016 9.36817 6.98434 9.36817 7.13586 9.20854Z" fill="black"/>
</svg>
