<svg width="24" height="22" viewBox="0 0 24 22" fill="none" xmlns="http://www.w3.org/2000/svg">
<path d="M22.2866 20.2041C21.9581 19.83 21.5486 19.3644 20.7476 19.3644C19.9466 19.3644 19.5375 19.83 19.2101 20.2041C18.8827 20.5781 18.675 20.7881 18.2449 20.7881C18.0638 20.7926 17.886 20.7413 17.7382 20.6418L21.3442 12.7441C21.3673 12.6934 21.3777 12.6382 21.3744 12.5831C21.3712 12.5279 21.3545 12.4742 21.3256 12.4262C21.2967 12.3783 21.2564 12.3373 21.208 12.3067C21.1596 12.2761 21.1043 12.2565 21.0465 12.2497L19.125 12.0205V8.68646C19.125 8.59206 19.0855 8.50153 19.0152 8.43478C18.9448 8.36803 18.8495 8.33053 18.75 8.33053H17.4619L17.2478 6.51136C17.2375 6.42433 17.1938 6.34394 17.1251 6.28556C17.0563 6.22719 16.9673 6.19492 16.875 6.19494H13.5V4.41528C13.5 4.32088 13.4605 4.23035 13.3902 4.1636C13.3198 4.09684 13.2245 4.05935 13.125 4.05935H10.875C10.7755 4.05935 10.6802 4.09684 10.6098 4.1636C10.5395 4.23035 10.5 4.32088 10.5 4.41528V6.19494H7.125C7.03274 6.19492 6.94371 6.22719 6.87494 6.28556C6.80617 6.34394 6.76249 6.42433 6.75225 6.51136L6.53812 8.33053H5.25C5.15054 8.33053 5.05516 8.36803 4.98484 8.43478C4.91451 8.50153 4.875 8.59206 4.875 8.68646V12.0205L2.9535 12.2486C2.89757 12.2553 2.84394 12.2739 2.79661 12.303C2.74929 12.332 2.70948 12.3709 2.68014 12.4166C2.65081 12.4623 2.63271 12.5136 2.62719 12.5669C2.62167 12.6202 2.62887 12.6739 2.64825 12.7241L5.24025 19.4374C4.82401 19.5901 4.46521 19.8571 4.20975 20.2044C3.88275 20.5771 3.675 20.7881 3.24825 20.7881C2.8215 20.7881 2.6145 20.5771 2.2875 20.2044C1.9605 19.8317 1.55025 19.3644 0.75 19.3644V20.0763C1.17825 20.0763 1.38375 20.2873 1.71075 20.66C2.03775 21.0327 2.448 21.5 3.24825 21.5C4.0485 21.5 4.45763 21.0341 4.78575 20.66C5.11388 20.2859 5.31938 20.0763 5.74725 20.0763C6.17513 20.0763 6.38175 20.2873 6.70875 20.66C7.03575 21.0327 7.446 21.5 8.24663 21.5C9.04725 21.5 9.456 21.0341 9.78412 20.66C10.1122 20.2859 10.3177 20.0763 10.7456 20.0763C11.1735 20.0763 11.3805 20.2873 11.7079 20.6604C12.0353 21.0334 12.4451 21.5 13.2457 21.5C14.0464 21.5 14.4548 21.0341 14.7833 20.66C15.1118 20.2859 15.3165 20.0763 15.7444 20.0763C16.1723 20.0763 16.3792 20.2873 16.7066 20.66C17.034 21.0327 17.4443 21.5 18.2449 21.5C19.0455 21.5 19.4554 21.0344 19.7843 20.6604C20.1131 20.2863 20.3186 20.0763 20.7476 20.0763C21.1766 20.0763 21.3829 20.2873 21.711 20.66C22.0391 21.0327 22.4486 21.5 23.25 21.5V20.7881C22.8206 20.7881 22.6144 20.5771 22.2866 20.2041ZM11.25 4.77121H12.75V6.19494H11.25V4.77121ZM7.4625 6.9068H16.5413L16.7089 8.33053H7.29638L7.4625 6.9068ZM5.625 9.04239H18.375V11.9315L12.0465 11.1808C12.0156 11.1769 11.9844 11.1769 11.9535 11.1808L5.625 11.9315V9.04239ZM15.7444 19.3644C14.9441 19.3644 14.5354 19.8303 14.2069 20.2044C13.8784 20.5785 13.674 20.7881 13.2457 20.7881C13.0699 20.7809 12.8987 20.733 12.7469 20.6485C12.5951 20.564 12.4674 20.4455 12.375 20.3034V13.3136H11.625V19.6054C11.3635 19.4442 11.0574 19.3603 10.7456 19.3644C9.94538 19.3644 9.53663 19.8303 9.20813 20.2044C8.87963 20.5785 8.67488 20.7881 8.24663 20.7881C7.81838 20.7881 7.61213 20.5771 7.28513 20.2044C6.9909 19.7857 6.53661 19.4922 6.01837 19.3858L4.26488 14.8441L8.32838 14.0183L8.17163 13.3221L4.00388 14.1678L3.51413 12.8993L12 11.8927L20.457 12.8961L19.8859 14.1468L15.8287 13.3214L15.6713 14.0176L19.5817 14.8131L17.175 20.0834C17.0127 19.8654 16.7986 19.6868 16.5501 19.5619C16.3015 19.437 16.0255 19.3693 15.7444 19.3644Z" fill="#B6B6B6"/>
<path d="M9.37497 2.99155H10.875V3.70342H11.625V2.63562C11.625 2.54122 11.5855 2.45069 11.5151 2.38394C11.4448 2.31719 11.3494 2.27969 11.25 2.27969H9.74997V1.21189H8.99997V2.63562C8.99997 2.73002 9.03947 2.82055 9.1098 2.8873C9.18013 2.95405 9.27551 2.99155 9.37497 2.99155Z" fill="#B6B6B6"/>
<path d="M10.875 1.5678H12.375V3.70339H13.125V1.21186C13.125 1.11746 13.0855 1.02693 13.0151 0.960182C12.9448 0.893432 12.8494 0.855932 12.75 0.855932H11.25V0.5H10.5V1.21186C10.5 1.30626 10.5395 1.39679 10.6098 1.46354C10.6801 1.5303 10.7755 1.5678 10.875 1.5678Z" fill="#B6B6B6"/>
</svg>
