<svg width="23" height="23" viewBox="0 0 23 23" fill="none" xmlns="http://www.w3.org/2000/svg">
<path d="M7.1665 0C3.58275 0 0.666504 3.03289 0.666504 6.76V16.12C0.666504 19.8471 3.58275 22.88 7.1665 22.88H16.1665C19.7503 22.88 22.6665 19.8471 22.6665 16.12V6.76C22.6665 3.03289 19.7503 0 16.1665 0H7.1665ZM7.1665 1.04H16.1665C19.2097 1.04 21.6665 3.59503 21.6665 6.76V16.12C21.6665 19.285 19.2097 21.84 16.1665 21.84H7.1665C4.12326 21.84 1.6665 19.285 1.6665 16.12V6.76C1.6665 3.59503 4.12326 1.04 7.1665 1.04ZM17.6665 4.16C17.4013 4.16 17.1469 4.26957 16.9594 4.46461C16.7719 4.65965 16.6665 4.92417 16.6665 5.2C16.6665 5.47582 16.7719 5.74035 16.9594 5.93539C17.1469 6.13043 17.4013 6.24 17.6665 6.24C17.9317 6.24 18.1861 6.13043 18.3736 5.93539C18.5611 5.74035 18.6665 5.47582 18.6665 5.2C18.6665 4.92417 18.5611 4.65965 18.3736 4.46461C18.1861 4.26957 17.9317 4.16 17.6665 4.16ZM11.6665 5.72C8.63486 5.72 6.1665 8.28709 6.1665 11.44C6.1665 14.5929 8.63486 17.16 11.6665 17.16C14.6981 17.16 17.1665 14.5929 17.1665 11.44C17.1665 8.28709 14.6981 5.72 11.6665 5.72ZM11.6665 6.76C14.1577 6.76 16.1665 8.84915 16.1665 11.44C16.1665 14.0309 14.1577 16.12 11.6665 16.12C9.1753 16.12 7.1665 14.0309 7.1665 11.44C7.1665 8.84915 9.1753 6.76 11.6665 6.76Z" fill="black"/>
</svg>
