<svg width="18" height="18" viewBox="0 0 18 18" fill="none" xmlns="http://www.w3.org/2000/svg">
<path d="M8.66651 16.4395C9.35551 16.4395 10.0235 16.3525 10.6615 16.1895C10.3147 15.8035 10.0028 15.3876 9.72951 14.9465C9.37151 15.2815 9.00651 15.4395 8.66651 15.4395C8.00951 15.4395 7.25951 14.8495 6.64451 13.5315C6.41043 13.0189 6.22365 12.486 6.08651 11.9395H8.93051C8.95451 11.5955 9.01451 11.2605 9.10651 10.9395H5.87251C5.73355 10.1134 5.66464 9.2771 5.66651 8.43946C5.66651 7.55646 5.73951 6.71446 5.87251 5.93946H11.4605C11.5655 6.55246 11.6335 7.20846 11.6575 7.89346C11.9723 7.74301 12.303 7.62861 12.6435 7.55246C12.6149 7.0122 12.5581 6.47381 12.4735 5.93946H15.2065C15.4405 6.54946 15.5905 7.19946 15.6445 7.87846C16.0135 8.05146 16.3565 8.27046 16.6655 8.52946L16.6665 8.43946C16.6665 6.85721 16.1973 5.31049 15.3183 3.99489C14.4392 2.6793 13.1898 1.65392 11.728 1.04842C10.2662 0.442919 8.65763 0.284493 7.10579 0.593174C5.55394 0.901856 4.12847 1.66378 3.00965 2.7826C1.89083 3.90142 1.12891 5.32689 0.820225 6.87873C0.511544 8.43058 0.66997 10.0391 1.27547 11.5009C1.88097 12.9627 2.90635 14.2122 4.22195 15.0912C5.53754 15.9703 7.08426 16.4395 8.66651 16.4395ZM8.66651 1.43946C9.32351 1.43946 10.0735 2.02946 10.6885 3.34746C10.9055 3.81346 11.0945 4.34946 11.2475 4.93946H6.08551C6.23851 4.34946 6.42751 3.81346 6.64551 3.34746C7.25851 2.02946 8.00851 1.43946 8.66651 1.43946ZM5.73851 2.92446C5.44322 3.57127 5.21438 4.2464 5.05551 4.93946H2.60251C3.44675 3.48033 4.78773 2.37361 6.38051 1.82146C6.13951 2.15146 5.92451 2.52546 5.73851 2.92446ZM4.85851 5.93946C4.72909 6.76647 4.66489 7.60238 4.66651 8.43946C4.66651 9.30946 4.73351 10.1515 4.85951 10.9395H2.12651C1.82153 10.1413 1.66562 9.29391 1.66651 8.43946C1.66651 7.55946 1.82951 6.71546 2.12651 5.93946H4.85851ZM5.05551 11.9395C5.23151 12.6825 5.46251 13.3615 5.73851 13.9545C5.92451 14.3535 6.13951 14.7275 6.38051 15.0575C4.78773 14.5053 3.44675 13.3986 2.60251 11.9395H5.05551ZM10.9525 1.82146C12.5453 2.37353 13.8863 3.48027 14.7305 4.93946H12.2765C12.1176 4.2464 11.8888 3.57128 11.5935 2.92446C11.4154 2.53702 11.2005 2.16764 10.9515 1.82146H10.9525ZM13.6665 8.43946C15.7375 8.43946 17.4165 10.1665 17.4165 12.2965C17.4165 13.8935 16.2335 15.5665 13.9165 17.3535C13.845 17.4091 13.7571 17.4393 13.6665 17.4393C13.5759 17.4393 13.488 17.4091 13.4165 17.3535C11.0995 15.5665 9.91651 13.8935 9.91651 12.2965C9.91651 10.1665 11.5955 8.43946 13.6665 8.43946ZM13.6665 11.0105C12.9765 11.0105 12.4165 11.5865 12.4165 12.2965C12.4165 13.0065 12.9765 13.5825 13.6665 13.5825C14.3565 13.5825 14.9165 13.0065 14.9165 12.2965C14.9165 11.5865 14.3565 11.0105 13.6665 11.0105Z" fill="black"/>
</svg>
