<svg width="18" height="21" viewBox="0 0 18 21" fill="none" xmlns="http://www.w3.org/2000/svg">
<path d="M6.6665 0.439453H15.6665C16.7665 0.439453 17.6665 1.33945 17.6665 2.43945V18.4395C17.6665 19.5395 16.7665 20.4395 15.6665 20.4395H6.6665C5.5665 20.4395 4.6665 19.5395 4.6665 18.4395V16.4395H6.6665V18.4395H15.6665V2.43945H6.6665V4.43945H4.6665V2.43945C4.6665 1.33945 5.5665 0.439453 6.6665 0.439453Z" fill="black"/>
<path d="M8.03825 13.7466C7.88256 13.9029 7.8828 14.1558 8.0388 14.3117L8.88366 15.1566C9.03987 15.3128 9.29314 15.3128 9.44935 15.1566L13.8837 10.7223C14.0399 10.5661 14.0399 10.3128 13.8837 10.1566L9.44935 5.7223C9.29314 5.56609 9.03987 5.56609 8.88366 5.7223L8.0388 6.56716C7.8828 6.72315 7.88256 6.976 8.03825 7.13229L10.3365 9.43945H1.0665C0.845589 9.43945 0.666504 9.61854 0.666504 9.83945V11.0395C0.666504 11.2604 0.84559 11.4395 1.0665 11.4395H10.3365L8.03825 13.7466Z" fill="black"/>
</svg>
