<svg width="30" height="30" viewBox="0 0 30 30" fill="none" xmlns="http://www.w3.org/2000/svg">
<path d="M30 15C30 6.72931 23.2707 0 15 0C6.72931 0 0 6.72931 0 15C0 19.4069 1.92207 23.5624 5.26966 26.4C6.50172 27.4572 7.87241 28.2941 9.34035 28.8859C10.6086 29.4083 11.9224 29.7476 13.2362 29.8924C13.7866 29.9638 14.3793 30 15 30C15.5048 30 16.0231 29.9721 16.5838 29.9141H16.5848C17.0017 29.8707 17.4155 29.8034 17.8252 29.7238C18.451 29.6038 19.0686 29.4497 19.6717 29.25C19.7379 29.2283 19.8031 29.1993 19.8693 29.1766C20.1331 29.0845 20.3969 28.9914 20.6555 28.8848C20.6555 28.8848 20.6555 28.8848 20.6566 28.8848C20.6576 28.8848 20.6576 28.8848 20.6576 28.8848C21.1552 28.6831 21.6341 28.4462 22.1028 28.1938C22.6386 27.9062 23.159 27.5948 23.6534 27.2441C23.9628 27.0248 24.2648 26.7921 24.5566 26.549C24.5566 26.549 24.5566 26.5479 24.5576 26.5479C28.0169 23.6917 30 19.4824 30 15ZM14.9193 13.7948L19.9438 15.3797V28.0479C19.8972 28.0655 19.8507 28.0821 19.8031 28.0997C19.3986 28.2497 18.9848 28.3707 18.5679 28.4824V16.0283C18.5679 15.7428 18.3362 15.511 18.0507 15.511C17.7652 15.511 17.5334 15.7428 17.5334 16.0283V28.7038C17.1828 28.769 16.8341 28.8476 16.4772 28.8848C16.1069 28.9231 15.7748 28.9252 15.4334 28.9355V15C15.4334 14.7145 15.2017 14.4828 14.9162 14.4828C14.6307 14.4828 14.399 14.7145 14.399 15V28.9366C14.0534 28.921 13.7048 28.9086 13.3852 28.8683C13.3769 28.8672 13.3676 28.8672 13.3593 28.8662C13.02 28.829 12.6838 28.7514 12.3466 28.6872V16.0283C12.3466 15.7428 12.1148 15.511 11.8293 15.511C11.5438 15.511 11.3121 15.7428 11.3121 16.0283V28.4503C10.9376 28.3469 10.5652 28.2372 10.1969 28.1007C10.1493 28.0831 10.1017 28.0655 10.0541 28.0479V15.3755L14.9193 13.7948ZM23.7103 25.8972C23.5852 25.9986 23.4569 26.0948 23.3286 26.1921C23.2138 26.2779 23.1021 26.3659 22.9841 26.4486C22.8155 26.5666 22.6407 26.6762 22.4669 26.7869C22.351 26.8603 22.2372 26.939 22.1183 27.0093C21.9248 27.1231 21.7262 27.2276 21.5286 27.3331C21.4221 27.389 21.3186 27.451 21.21 27.5048C21.1345 27.5421 21.0559 27.5731 20.9793 27.6093V19.7121L23.7103 20.5748V25.8972ZM9.02069 27.6062C8.93069 27.5638 8.83759 27.5276 8.74966 27.4831C8.64517 27.4303 8.54483 27.3693 8.44138 27.3145C8.22621 27.1997 8.01103 27.0859 7.80207 26.9586C7.6831 26.8872 7.56931 26.8066 7.45241 26.73C7.26517 26.609 7.07793 26.489 6.89483 26.3576C6.76965 26.2676 6.64965 26.1693 6.52759 26.0752C6.39207 25.9707 6.25655 25.8662 6.12414 25.7555V20.5676L9.02069 19.6303V27.6062ZM24.7448 24.9714V20.1931C24.7448 19.9676 24.5979 19.7679 24.3828 19.6997L20.9783 18.6238V15C20.9783 14.7745 20.8314 14.5748 20.6162 14.5066L15.4334 12.8721V5.68966C15.4334 5.40414 15.2017 5.17241 14.9162 5.17241C14.6307 5.17241 14.399 5.40414 14.399 5.68966V12.8762L9.37759 14.5086C9.16448 14.5769 9.02069 14.7755 9.02069 15V18.5452L5.44759 19.7017C5.23448 19.77 5.08966 19.9686 5.08966 20.1931V24.8069C2.50655 22.2145 1.03448 18.7066 1.03448 15C1.03448 7.29931 7.29931 1.03448 15 1.03448C22.7007 1.03448 28.9655 7.29931 28.9655 15C28.9655 18.7872 27.4324 22.3531 24.7448 24.9714Z" fill="black"/>
<path d="M21.4771 7.60236C21.2733 7.40374 21.146 7.01167 21.1947 6.73133L21.2857 6.19857C21.3333 5.91822 21.1667 5.79719 20.9153 5.9296L20.4374 6.18098C20.186 6.31339 19.7733 6.31339 19.5219 6.18098L19.044 5.9296C18.7926 5.79719 18.626 5.91822 18.6736 6.19857L18.7646 6.73133C18.8122 7.01167 18.685 7.40374 18.4822 7.60236L18.0953 7.97891C17.8915 8.17753 17.9557 8.37305 18.2371 8.41443L18.7719 8.49202C19.0533 8.53339 19.3864 8.77443 19.5126 9.02995L19.7515 9.51408C19.8778 9.7696 20.0836 9.7696 20.2088 9.51408L20.4478 9.02995C20.574 8.77443 20.9071 8.53339 21.1884 8.49202L21.7233 8.41443C22.0047 8.37305 22.0678 8.17753 21.865 7.97891L21.4771 7.60236Z" fill="black"/>
<path d="M26.044 13.4224L25.7419 12.9755C25.5826 12.7396 25.5371 12.3299 25.6405 12.0651L25.8371 11.5624C25.9405 11.2975 25.8019 11.1455 25.5288 11.2241L25.0105 11.3741C24.7374 11.4527 24.334 11.3699 24.1137 11.1889L23.6968 10.8465C23.4764 10.6655 23.2892 10.7513 23.2799 11.0348L23.2612 11.5748C23.2519 11.8582 23.0481 12.2172 22.8081 12.3703L22.353 12.661C22.114 12.8141 22.1368 13.0189 22.4037 13.1162L22.9105 13.3003C23.1785 13.3975 23.4557 13.7017 23.5281 13.9768L23.6637 14.4993C23.7361 14.7744 23.9378 14.8168 24.1126 14.5913L24.4447 14.1651C24.6195 13.9406 24.995 13.771 25.2785 13.7875L25.8174 13.8196C26.1009 13.8361 26.2033 13.6572 26.044 13.4224Z" fill="black"/>
<path d="M11.1694 7.60236C10.9657 7.40374 10.8384 7.01167 10.887 6.73133L10.9781 6.19857C11.0257 5.91822 10.8591 5.79719 10.6077 5.9296L10.1298 6.18098C9.87841 6.31339 9.46565 6.31339 9.21427 6.18098L8.73531 5.9296C8.48393 5.79719 8.31738 5.91926 8.36496 6.1996L8.456 6.73236C8.50358 7.01271 8.37634 7.40477 8.17359 7.60339L7.78669 7.97891C7.58393 8.17753 7.64703 8.37408 7.92841 8.41443L8.46324 8.49202C8.74462 8.53339 9.07772 8.77443 9.20393 9.02995L9.4429 9.51408C9.5691 9.7696 9.77496 9.7696 9.90014 9.51408L10.1391 9.02995C10.2653 8.77443 10.5984 8.53339 10.8798 8.49202L11.4146 8.41443C11.696 8.37305 11.7591 8.17753 11.5563 7.97891L11.1694 7.60236Z" fill="black"/>
<path d="M7.29826 12.661L6.84308 12.3703C6.60412 12.2172 6.40032 11.8582 6.38998 11.5748L6.37239 11.0348C6.36308 10.7513 6.17584 10.6655 5.9555 10.8465L5.5386 11.1889C5.31825 11.3699 4.91481 11.4527 4.6417 11.3741L4.12239 11.2241C3.84929 11.1455 3.71067 11.2975 3.81412 11.5624L4.01067 12.0651C4.11412 12.3299 4.0686 12.7396 3.90929 12.9755L3.60722 13.4224C3.44791 13.6582 3.54929 13.8372 3.83377 13.8206L4.37274 13.7886C4.65619 13.772 5.0317 13.9417 5.20653 14.1662L5.5386 14.5924C5.71343 14.8168 5.91515 14.7755 5.98757 14.5003L6.12308 13.9779C6.1955 13.7027 6.47274 13.3975 6.74067 13.3013L7.24756 13.1172C7.5155 13.0189 7.53826 12.8151 7.29826 12.661Z" fill="black"/>
</svg>
