<svg width="31" height="23" viewBox="0 0 31 23" fill="none" xmlns="http://www.w3.org/2000/svg">
<path d="M3.6665 0.639648C2.0165 0.639648 0.666504 1.98965 0.666504 3.63965V19.2396C0.666504 20.8896 2.0165 22.2396 3.6665 22.2396H27.6665C29.3165 22.2396 30.6665 20.8896 30.6665 19.2396V3.63965C30.6665 1.98965 29.3165 0.639648 27.6665 0.639648H3.6665ZM3.6665 1.83965H27.6665C28.6673 1.83965 29.4665 2.63887 29.4665 3.63965V19.2396C29.4665 20.2404 28.6673 21.0396 27.6665 21.0396H3.6665C2.66572 21.0396 1.8665 20.2404 1.8665 19.2396V3.63965C1.8665 2.63887 2.66572 1.83965 3.6665 1.83965Z" fill="black"/>
<path fill-rule="evenodd" clip-rule="evenodd" d="M11.8665 4.33945C8.11621 4.33945 5.0665 7.38916 5.0665 11.1395C5.0665 14.8897 8.11621 17.9395 11.8665 17.9395C13.4818 17.9395 14.9511 17.3518 16.1165 16.4104C17.2819 17.3518 18.7512 17.9395 20.3665 17.9395C24.1168 17.9395 27.1665 14.8897 27.1665 11.1395C27.1665 7.38916 24.1168 4.33945 20.3665 4.33945C18.7512 4.33945 17.2819 4.92715 16.1165 5.86845C14.9511 4.92715 13.4818 4.33945 11.8665 4.33945ZM15.7629 6.65537C14.717 5.7456 13.3606 5.18945 11.8665 5.18945C8.57608 5.18945 5.9165 7.84902 5.9165 11.1395C5.9165 14.4299 8.57608 17.0895 11.8665 17.0895C13.3938 17.0895 14.7784 16.5117 15.8326 15.5654L16.1165 15.3098L16.4004 15.5654C16.6029 15.748 16.8221 15.9107 17.0479 16.0651C16.9947 15.9921 16.9665 15.9041 16.9665 15.8145C16.9665 15.5804 17.1574 15.3895 17.3915 15.3895C17.6256 15.3895 17.8165 15.5804 17.8165 15.8145C17.8165 16.0485 17.6256 16.2395 17.3915 16.2395C17.3583 16.2395 17.3268 16.2361 17.2936 16.2278C17.6438 16.4403 18.019 16.613 18.4092 16.7508C18.4839 16.6943 18.5735 16.6645 18.6665 16.6645C18.8425 16.6645 19.0002 16.774 19.0633 16.9384C19.4833 17.0347 19.9166 17.0895 20.3665 17.0895C20.4923 17.0895 20.6142 17.0806 20.7368 17.0718C20.755 17.0705 20.7733 17.0692 20.7915 17.0679C20.8031 16.8421 20.9907 16.6645 21.2165 16.6645C21.3991 16.6645 21.5618 16.7823 21.6199 16.9566C23.9026 16.4686 25.6956 14.6756 26.1837 12.3929C26.0094 12.3348 25.8915 12.1721 25.8915 11.9895C25.8915 11.7637 26.0691 11.5777 26.2949 11.5661C26.2961 11.5488 26.2974 11.5314 26.2986 11.514C26.3076 11.3902 26.3165 11.2661 26.3165 11.1395C26.3165 10.6912 26.2634 10.2579 26.1704 9.83789C26.0027 9.77646 25.8915 9.61709 25.8915 9.43945C25.8915 9.34482 25.923 9.25351 25.9795 9.18047C25.845 8.78867 25.6657 8.41845 25.4549 8.06982C25.4632 8.10137 25.4665 8.13291 25.4665 8.16445C25.4665 8.39853 25.2756 8.58945 25.0415 8.58945C24.8074 8.58945 24.6165 8.39853 24.6165 8.16445C24.6165 7.93037 24.8074 7.73945 25.0415 7.73945C25.1361 7.73945 25.2291 7.77099 25.3021 7.83076C24.7045 6.93594 23.8728 6.21543 22.8916 5.7539C22.8318 5.9249 22.6725 6.03945 22.4915 6.03945C22.2574 6.03945 22.0665 5.84853 22.0665 5.61445C22.0665 5.55801 22.0781 5.50156 22.0997 5.44844C21.5519 5.28242 20.9708 5.18945 20.3665 5.18945C20.2954 5.18945 20.2251 5.19391 20.155 5.19835C20.1203 5.20055 20.0857 5.20274 20.0511 5.20439C20.237 5.2542 20.3665 5.42187 20.3665 5.61445C20.3665 5.84853 20.1756 6.03945 19.9415 6.03945C19.7074 6.03945 19.5165 5.84853 19.5165 5.61445C19.5165 5.43848 19.6261 5.28076 19.7904 5.21767C19.0749 5.2874 18.3976 5.48496 17.7783 5.78711C17.7103 5.93984 17.5592 6.03945 17.3915 6.03945C17.3699 6.03945 17.3467 6.03779 17.3251 6.03447C17.023 6.21709 16.7357 6.42461 16.4701 6.65537C16.5166 6.7251 16.5415 6.80644 16.5415 6.88945C16.5415 7.12353 16.3506 7.31445 16.1165 7.31445C15.8824 7.31445 15.6915 7.12353 15.6915 6.88945C15.6915 6.80644 15.7164 6.7251 15.7629 6.65537ZM18.6665 6.46445C18.4324 6.46445 18.2415 6.65537 18.2415 6.88945C18.2415 7.12353 18.4324 7.31445 18.6665 7.31445C18.9006 7.31445 19.0915 7.12353 19.0915 6.88945C19.0915 6.65537 18.9006 6.46445 18.6665 6.46445ZM21.2165 6.46445C20.9824 6.46445 20.7915 6.65537 20.7915 6.88945C20.7915 7.12353 20.9824 7.31445 21.2165 7.31445C21.4506 7.31445 21.6415 7.12353 21.6415 6.88945C21.6415 6.65537 21.4506 6.46445 21.2165 6.46445ZM23.7665 6.46445C23.5324 6.46445 23.3415 6.65537 23.3415 6.88945C23.3415 7.12353 23.5324 7.31445 23.7665 7.31445C24.0006 7.31445 24.1915 7.12353 24.1915 6.88945C24.1915 6.65537 24.0006 6.46445 23.7665 6.46445ZM14.8415 7.73945C14.6074 7.73945 14.4165 7.93037 14.4165 8.16445C14.4165 8.39853 14.6074 8.58945 14.8415 8.58945C15.0756 8.58945 15.2665 8.39853 15.2665 8.16445C15.2665 7.93037 15.0756 7.73945 14.8415 7.73945ZM17.3915 7.73945C17.1574 7.73945 16.9665 7.93037 16.9665 8.16445C16.9665 8.39853 17.1574 8.58945 17.3915 8.58945C17.6256 8.58945 17.8165 8.39853 17.8165 8.16445C17.8165 7.93037 17.6256 7.73945 17.3915 7.73945ZM19.9415 7.73945C19.7074 7.73945 19.5165 7.93037 19.5165 8.16445C19.5165 8.39853 19.7074 8.58945 19.9415 8.58945C20.1756 8.58945 20.3665 8.39853 20.3665 8.16445C20.3665 7.93037 20.1756 7.73945 19.9415 7.73945ZM22.4915 7.73945C22.2574 7.73945 22.0665 7.93037 22.0665 8.16445C22.0665 8.39853 22.2574 8.58945 22.4915 8.58945C22.7256 8.58945 22.9165 8.39853 22.9165 8.16445C22.9165 7.93037 22.7256 7.73945 22.4915 7.73945ZM16.1165 9.01445C15.8824 9.01445 15.6915 9.20537 15.6915 9.43945C15.6915 9.67353 15.8824 9.86445 16.1165 9.86445C16.3506 9.86445 16.5415 9.67353 16.5415 9.43945C16.5415 9.20537 16.3506 9.01445 16.1165 9.01445ZM18.6665 9.01445C18.4324 9.01445 18.2415 9.20537 18.2415 9.43945C18.2415 9.67353 18.4324 9.86445 18.6665 9.86445C18.9006 9.86445 19.0915 9.67353 19.0915 9.43945C19.0915 9.20537 18.9006 9.01445 18.6665 9.01445ZM21.2165 9.01445C20.9824 9.01445 20.7915 9.20537 20.7915 9.43945C20.7915 9.67353 20.9824 9.86445 21.2165 9.86445C21.4506 9.86445 21.6415 9.67353 21.6415 9.43945C21.6415 9.20537 21.4506 9.01445 21.2165 9.01445ZM23.7665 9.01445C23.5324 9.01445 23.3415 9.20537 23.3415 9.43945C23.3415 9.67353 23.5324 9.86445 23.7665 9.86445C24.0006 9.86445 24.1915 9.67353 24.1915 9.43945C24.1915 9.20537 24.0006 9.01445 23.7665 9.01445ZM14.8415 10.2895C14.6074 10.2895 14.4165 10.4804 14.4165 10.7145C14.4165 10.9485 14.6074 11.1395 14.8415 11.1395C15.0756 11.1395 15.2665 10.9485 15.2665 10.7145C15.2665 10.4804 15.0756 10.2895 14.8415 10.2895ZM17.3915 10.2895C17.1574 10.2895 16.9665 10.4804 16.9665 10.7145C16.9665 10.9485 17.1574 11.1395 17.3915 11.1395C17.6256 11.1395 17.8165 10.9485 17.8165 10.7145C17.8165 10.4804 17.6256 10.2895 17.3915 10.2895ZM19.9415 10.2895C19.7074 10.2895 19.5165 10.4804 19.5165 10.7145C19.5165 10.9485 19.7074 11.1395 19.9415 11.1395C20.1756 11.1395 20.3665 10.9485 20.3665 10.7145C20.3665 10.4804 20.1756 10.2895 19.9415 10.2895ZM22.4915 10.2895C22.2574 10.2895 22.0665 10.4804 22.0665 10.7145C22.0665 10.9485 22.2574 11.1395 22.4915 11.1395C22.7256 11.1395 22.9165 10.9485 22.9165 10.7145C22.9165 10.4804 22.7256 10.2895 22.4915 10.2895ZM25.0415 10.2895C24.8074 10.2895 24.6165 10.4804 24.6165 10.7145C24.6165 10.9485 24.8074 11.1395 25.0415 11.1395C25.2756 11.1395 25.4665 10.9485 25.4665 10.7145C25.4665 10.4804 25.2756 10.2895 25.0415 10.2895ZM16.1165 11.5645C15.8824 11.5645 15.6915 11.7554 15.6915 11.9895C15.6915 12.2235 15.8824 12.4145 16.1165 12.4145C16.3506 12.4145 16.5415 12.2235 16.5415 11.9895C16.5415 11.7554 16.3506 11.5645 16.1165 11.5645ZM18.6665 11.5645C18.4324 11.5645 18.2415 11.7554 18.2415 11.9895C18.2415 12.2235 18.4324 12.4145 18.6665 12.4145C18.9006 12.4145 19.0915 12.2235 19.0915 11.9895C19.0915 11.7554 18.9006 11.5645 18.6665 11.5645ZM21.2165 11.5645C20.9824 11.5645 20.7915 11.7554 20.7915 11.9895C20.7915 12.2235 20.9824 12.4145 21.2165 12.4145C21.4506 12.4145 21.6415 12.2235 21.6415 11.9895C21.6415 11.7554 21.4506 11.5645 21.2165 11.5645ZM23.7665 11.5645C23.5324 11.5645 23.3415 11.7554 23.3415 11.9895C23.3415 12.2235 23.5324 12.4145 23.7665 12.4145C24.0006 12.4145 24.1915 12.2235 24.1915 11.9895C24.1915 11.7554 24.0006 11.5645 23.7665 11.5645ZM14.8415 12.8395C14.6074 12.8395 14.4165 13.0304 14.4165 13.2645C14.4165 13.4985 14.6074 13.6895 14.8415 13.6895C15.0756 13.6895 15.2665 13.4985 15.2665 13.2645C15.2665 13.0304 15.0756 12.8395 14.8415 12.8395ZM17.3915 12.8395C17.1574 12.8395 16.9665 13.0304 16.9665 13.2645C16.9665 13.4985 17.1574 13.6895 17.3915 13.6895C17.6256 13.6895 17.8165 13.4985 17.8165 13.2645C17.8165 13.0304 17.6256 12.8395 17.3915 12.8395ZM19.9415 12.8395C19.7074 12.8395 19.5165 13.0304 19.5165 13.2645C19.5165 13.4985 19.7074 13.6895 19.9415 13.6895C20.1756 13.6895 20.3665 13.4985 20.3665 13.2645C20.3665 13.0304 20.1756 12.8395 19.9415 12.8395ZM22.4915 12.8395C22.2574 12.8395 22.0665 13.0304 22.0665 13.2645C22.0665 13.4985 22.2574 13.6895 22.4915 13.6895C22.7256 13.6895 22.9165 13.4985 22.9165 13.2645C22.9165 13.0304 22.7256 12.8395 22.4915 12.8395ZM25.0415 12.8395C24.8074 12.8395 24.6165 13.0304 24.6165 13.2645C24.6165 13.4985 24.8074 13.6895 25.0415 13.6895C25.2756 13.6895 25.4665 13.4985 25.4665 13.2645C25.4665 13.0304 25.2756 12.8395 25.0415 12.8395ZM16.1165 14.1145C15.8824 14.1145 15.6915 14.3054 15.6915 14.5395C15.6915 14.7735 15.8824 14.9645 16.1165 14.9645C16.3506 14.9645 16.5415 14.7735 16.5415 14.5395C16.5415 14.3054 16.3506 14.1145 16.1165 14.1145ZM18.6665 14.1145C18.4324 14.1145 18.2415 14.3054 18.2415 14.5395C18.2415 14.7735 18.4324 14.9645 18.6665 14.9645C18.9006 14.9645 19.0915 14.7735 19.0915 14.5395C19.0915 14.3054 18.9006 14.1145 18.6665 14.1145ZM21.2165 14.1145C20.9824 14.1145 20.7915 14.3054 20.7915 14.5395C20.7915 14.7735 20.9824 14.9645 21.2165 14.9645C21.4506 14.9645 21.6415 14.7735 21.6415 14.5395C21.6415 14.3054 21.4506 14.1145 21.2165 14.1145ZM23.7665 14.1145C23.5324 14.1145 23.3415 14.3054 23.3415 14.5395C23.3415 14.7735 23.5324 14.9645 23.7665 14.9645C24.0006 14.9645 24.1915 14.7735 24.1915 14.5395C24.1915 14.3054 24.0006 14.1145 23.7665 14.1145ZM19.9415 15.3895C19.7074 15.3895 19.5165 15.5804 19.5165 15.8145C19.5165 16.0485 19.7074 16.2395 19.9415 16.2395C20.1756 16.2395 20.3665 16.0485 20.3665 15.8145C20.3665 15.5804 20.1756 15.3895 19.9415 15.3895ZM22.4915 15.3895C22.2574 15.3895 22.0665 15.5804 22.0665 15.8145C22.0665 16.0485 22.2574 16.2395 22.4915 16.2395C22.7256 16.2395 22.9165 16.0485 22.9165 15.8145C22.9165 15.5804 22.7256 15.3895 22.4915 15.3895Z" fill="black"/>
</svg>
