<svg width="30" height="30" viewBox="0 0 30 30" fill="none" xmlns="http://www.w3.org/2000/svg">
<path d="M24.1705 15.3685C24.2641 15.2315 24.3279 15.0726 24.357 14.904C24.386 14.7354 24.3796 14.5617 24.3381 14.3963L23.0894 9.58405C23.0367 9.36088 22.9191 9.16296 22.7546 9.02064C22.5902 8.87832 22.388 8.79947 22.179 8.79618H7.82099C7.61296 8.79909 7.4115 8.87707 7.2474 9.0182C7.0833 9.15932 6.96557 9.35584 6.91219 9.57774L5.66075 14.4032C5.62027 14.5677 5.61448 14.7402 5.64382 14.9075C5.67316 15.0749 5.73685 15.2326 5.83002 15.3685C5.91638 15.4955 6.02828 15.5985 6.1569 15.6695C6.28551 15.7406 6.42733 15.7777 6.57115 15.7779H23.4294C23.5732 15.7777 23.715 15.7406 23.8437 15.6695C23.9723 15.5985 24.0842 15.4955 24.1705 15.3685ZM6.57985 14.7461C6.5721 14.7378 6.56651 14.7274 6.56369 14.7159C6.56087 14.7045 6.56092 14.6924 6.56383 14.6809L7.81528 9.85551C7.81928 9.83909 7.82627 9.83101 7.8218 9.83051L22.1707 9.82849C22.1791 9.8376 22.1846 9.84947 22.1864 9.86233L23.435 14.6744C23.4385 14.6861 23.4392 14.6985 23.4372 14.7106C23.4351 14.7227 23.4304 14.734 23.4233 14.7436L6.57985 14.7461Z" fill="black"/>
<path d="M2.87072 6.53924C2.98044 6.65771 3.12787 6.72401 3.28139 6.72392C3.4349 6.72382 3.58226 6.65733 3.69186 6.53872L5.9266 4.05189C6.31944 3.61465 6.54524 3.02774 6.55744 2.41218C6.56965 1.79663 6.36731 1.19939 5.99218 0.74361C5.65228 0.338237 5.19234 0.080165 4.69525 0.0159041C4.19816 -0.0483569 3.69661 0.0854202 3.281 0.393125C2.86545 0.0853462 2.36393 -0.0484982 1.86685 0.0157209C1.36977 0.0799401 0.909826 0.337998 0.569945 0.743372C0.194771 1.19917 -0.00759128 1.79645 0.00458857 2.41205C0.0167684 3.02764 0.242562 3.61461 0.635406 4.0519L2.87072 6.53924ZM1.25352 1.45119C1.46649 1.20952 1.75495 1.06655 2.06012 1.05139C2.3653 1.03624 2.66423 1.15004 2.89602 1.36962C3.00173 1.47449 3.13886 1.5325 3.28101 1.5325C3.42315 1.5325 3.56028 1.47449 3.66599 1.36962C3.89446 1.142 4.19503 1.02293 4.50253 1.03825C4.81003 1.05356 5.09966 1.20203 5.30861 1.45144C5.51943 1.7109 5.632 2.04973 5.6231 2.39807C5.61419 2.74641 5.48451 3.0777 5.26077 3.32363L3.281 5.52688L1.30124 3.32363C1.07749 3.07764 0.94781 2.7463 0.938931 2.39791C0.930052 2.04953 1.04265 1.71067 1.25352 1.45119Z" fill="black"/>
<path d="M26.3086 6.53925C26.418 6.65839 26.5656 6.72514 26.7193 6.72505C26.873 6.72495 27.0205 6.65801 27.1298 6.53874L29.3645 4.05191C29.7574 3.61467 29.9832 3.02775 29.9954 2.4122C30.0076 1.79665 29.8052 1.1994 29.4301 0.743627C29.0902 0.338252 28.6303 0.0801774 28.1332 0.0159135C27.6361 -0.0483503 27.1345 0.0854239 26.7189 0.393126C26.3034 0.0853446 25.8019 -0.0485 25.3048 0.0157222C24.8077 0.0799443 24.3477 0.338008 24.0079 0.743389C23.6327 1.19918 23.4303 1.79647 23.4425 2.41206C23.4547 3.02766 23.6805 3.61463 24.0733 4.05192L26.3086 6.53925ZM24.6914 1.4512C24.9031 1.20696 25.1919 1.06218 25.4979 1.04699C25.8038 1.0318 26.1033 1.14736 26.3339 1.36964C26.4396 1.4745 26.5768 1.53252 26.7189 1.53252C26.8611 1.53252 26.9982 1.4745 27.1039 1.36964C27.3324 1.14201 27.633 1.02295 27.9405 1.03826C28.248 1.05358 28.5376 1.20204 28.7465 1.45146C28.9573 1.71092 29.0699 2.04974 29.061 2.39808C29.0521 2.74642 28.9224 3.07771 28.6987 3.32365L26.7189 5.5269L24.7392 3.32365C24.5154 3.07766 24.3857 2.74632 24.3768 2.39793C24.368 2.04954 24.4806 1.71068 24.6914 1.4512Z" fill="black"/>
<path d="M3.28084 21.467C3.28077 21.9274 3.40442 22.3775 3.63616 22.7603C3.8679 23.1431 4.19732 23.4415 4.58276 23.6178C4.9682 23.794 5.39235 23.8402 5.80156 23.7504C6.21078 23.6606 6.58668 23.439 6.88173 23.1135C7.17677 22.788 7.37772 22.3732 7.45914 21.9217C7.54056 21.4702 7.49881 21.0021 7.33917 20.5768C7.17952 20.1514 6.90915 19.7879 6.56225 19.5321C6.21535 19.2763 5.8075 19.1398 5.39028 19.1398C4.83106 19.1404 4.29492 19.3858 3.89946 19.8221C3.504 20.2584 3.28152 20.8499 3.28084 21.467ZM6.56218 21.467C6.56222 21.7228 6.49352 21.9728 6.36478 22.1855C6.23604 22.3982 6.05302 22.564 5.83889 22.6619C5.62476 22.7598 5.38912 22.7854 5.16177 22.7356C4.93443 22.6857 4.7256 22.5626 4.56168 22.3817C4.39777 22.2009 4.28613 21.9705 4.2409 21.7196C4.19566 21.4688 4.21886 21.2087 4.30755 20.9724C4.39624 20.7361 4.54645 20.5342 4.73918 20.392C4.9319 20.2499 5.15849 20.1741 5.39028 20.1741C5.70094 20.1745 5.99879 20.3108 6.21848 20.5532C6.43818 20.7956 6.56178 21.1242 6.56218 21.467Z" fill="black"/>
<path d="M22.5 21.467C22.4999 21.9274 22.6236 22.3775 22.8553 22.7603C23.0871 23.1431 23.4165 23.4415 23.8019 23.6178C24.1874 23.794 24.6115 23.8402 25.0207 23.7504C25.4299 23.6606 25.8058 23.439 26.1009 23.1135C26.3959 22.788 26.5969 22.3732 26.6783 21.9217C26.7597 21.4701 26.718 21.0021 26.5583 20.5768C26.3987 20.1514 26.1283 19.7879 25.7814 19.5321C25.4345 19.2763 25.0266 19.1398 24.6094 19.1398C24.0502 19.1404 23.5141 19.3858 23.1186 19.8221C22.7231 20.2584 22.5007 20.8499 22.5 21.467ZM24.6094 20.1741C24.8411 20.1741 25.0677 20.25 25.2603 20.3921C25.453 20.5342 25.6031 20.7361 25.6918 20.9724C25.7804 21.2087 25.8036 21.4686 25.7584 21.7194C25.7131 21.9702 25.6015 22.2005 25.4376 22.3813C25.2738 22.5621 25.065 22.6852 24.8377 22.7351C24.6104 22.785 24.3749 22.7593 24.1608 22.6615C23.9467 22.5636 23.7637 22.3979 23.635 22.1853C23.5062 21.9727 23.4375 21.7227 23.4375 21.467C23.4379 21.1242 23.5615 20.7956 23.7812 20.5532C24.0009 20.3108 24.2987 20.1745 24.6094 20.1741Z" fill="black"/>
<path d="M29.9761 18.2598H29.9768C29.9687 18.2035 29.9592 18.1478 29.9484 18.0926C29.6886 16.7484 28.7294 15.6308 27.2427 14.9359C26.9739 14.1172 25.4692 9.50918 25.4692 9.50918C25.0345 8.17815 24.3893 6.16656 22.7754 6.21101C22.7029 6.21126 7.29702 6.21152 7.23476 6.21126C5.6179 6.16278 4.96569 8.1779 4.53069 9.50919C4.53069 9.50919 3.02609 14.1174 2.75726 14.9359C1.27064 15.6308 0.311371 16.7485 0.0518125 18.0916C0.040825 18.1477 0.0313281 18.2035 0.0254898 18.2451C-0.003793 18.4153 -0.00963128 23.3446 0.017364 25.0072C0.0323502 25.5005 0.215746 25.9694 0.530803 26.3199C0.84586 26.6704 1.2693 26.8765 1.71628 26.897H2.8122V28.4485C2.81264 28.8599 2.96095 29.2543 3.22459 29.5451C3.48823 29.836 3.84567 29.9996 4.21848 30H6.56229C6.9351 29.9996 7.29254 29.836 7.55618 29.5451C7.81982 29.2543 7.96813 28.8599 7.96858 28.4485V26.897H11.6096L11.7173 25.8627H1.71628C1.51549 25.8418 1.32817 25.742 1.1884 25.5816C1.04862 25.4212 0.965683 25.2107 0.95466 24.9885C0.919068 22.7996 0.947451 18.8045 0.953744 18.3911C0.958197 18.3638 0.963013 18.3363 0.968509 18.3083C1.23642 16.9224 2.48592 16.173 3.20691 15.8497C3.29755 15.8093 3.37952 15.7484 3.44756 15.671C3.5156 15.5935 3.5682 15.5012 3.60197 15.4C3.81666 14.7482 5.4127 9.85967 5.4127 9.85967C5.88478 8.41501 6.33821 7.21704 7.20306 7.24481C7.20306 7.24481 22.7969 7.24481 22.7888 7.24507C23.6549 7.22285 24.1153 8.41526 24.5872 9.85968C24.5872 9.85968 26.1833 14.7482 26.3981 15.4C26.4319 15.5012 26.4845 15.5936 26.5525 15.671C26.6205 15.7485 26.7025 15.8094 26.7932 15.8497C27.5141 16.173 28.7636 16.9224 29.0317 18.3093C29.037 18.3366 29.0418 18.3638 29.0462 18.3911C29.0525 18.804 29.0809 22.7994 29.0453 24.9885C29.0343 25.2107 28.9514 25.4212 28.8116 25.5816C28.6718 25.742 28.4845 25.8418 28.2837 25.8627H18.2828L18.3904 26.897H22.0314V28.4485C22.0319 28.8599 22.1802 29.2543 22.4438 29.5451C22.7075 29.836 23.0649 29.9996 23.4377 30H25.7815C26.1543 29.9996 26.5118 29.836 26.7754 29.5451C27.0391 29.2543 27.1874 28.8599 27.1878 28.4485V26.897H28.2837C28.7307 26.8765 29.1541 26.6704 29.4692 26.3199C29.7843 25.9694 29.9677 25.5005 29.9826 25.0071C30.0092 23.3756 30.0039 18.5994 29.9761 18.2598ZM3.74972 26.897H7.03105V28.4485C7.0309 28.5856 6.98146 28.7171 6.89358 28.814C6.8057 28.911 6.68656 28.9655 6.56229 28.9657H4.21848C4.09421 28.9655 3.97507 28.911 3.88719 28.814C3.79931 28.7171 3.74987 28.5856 3.74972 28.4485V26.897ZM26.2503 28.4485C26.2501 28.5856 26.2007 28.7171 26.1128 28.814C26.0249 28.911 25.9058 28.9655 25.7815 28.9657H23.4377C23.3134 28.9655 23.1943 28.911 23.1064 28.814C23.0185 28.7171 22.9691 28.5856 22.969 28.4485V26.897H26.2503V28.4485Z" fill="black"/>
<path d="M19.412 24.2127C19.4239 24.218 19.4359 24.2228 19.4481 24.2271C19.6092 24.2833 19.7771 24.312 19.946 24.3122C20.2929 24.3118 20.6305 24.1887 20.9093 23.961C21.1121 23.7992 21.2771 23.5865 21.3907 23.3404C21.5042 23.0943 21.5631 22.822 21.5624 22.5458V20.3878C21.5631 20.1117 21.5042 19.8393 21.3907 19.5932C21.2771 19.3472 21.1121 19.1345 20.9093 18.9727C20.6965 18.8008 20.4493 18.6882 20.1886 18.6444C19.928 18.6006 19.6615 18.6268 19.412 18.7209L17.8785 19.4083C17.7902 19.1801 17.6662 18.9708 17.5121 18.7901C17.1958 18.4177 16.771 18.1797 16.3118 18.1177C15.8526 18.0556 15.3883 18.1735 14.9999 18.4507C14.6114 18.1735 14.1471 18.0556 13.6879 18.1177C13.2287 18.1797 12.8038 18.4177 12.4874 18.7901C12.3333 18.9708 12.2093 19.1801 12.121 19.4083C11.6257 19.1863 11.1304 18.9643 10.6351 18.7423C10.3808 18.634 10.1059 18.5984 9.83586 18.6386C9.56579 18.6789 9.30932 18.7938 9.09024 18.9727C8.88744 19.1345 8.72244 19.3472 8.60887 19.5932C8.4953 19.8393 8.43642 20.1117 8.4371 20.3878V22.5458C8.43642 22.822 8.4953 23.0943 8.60886 23.3404C8.72243 23.5865 8.88743 23.7992 9.09023 23.961C9.3021 24.1349 9.5494 24.2488 9.81045 24.2927C10.0715 24.3365 10.3383 24.3091 10.5875 24.2127L12.9424 23.1572L12.4247 28.1309C12.4144 28.2292 12.43 28.3288 12.4695 28.4177C12.5091 28.5066 12.5709 28.5811 12.6477 28.6324C12.7245 28.6837 12.813 28.7096 12.9027 28.7069C12.9924 28.7043 13.0796 28.6734 13.1538 28.6177L15.0964 27.1617L16.8267 28.6028C16.9008 28.6617 16.9885 28.6964 17.0796 28.7027C17.1707 28.7091 17.2616 28.687 17.3419 28.6389C17.4215 28.5887 17.486 28.5138 17.5275 28.4235C17.5689 28.3331 17.5854 28.2314 17.5749 28.1309L17.0572 23.1572L19.412 24.2127ZM17.4512 21.8663C17.7926 21.488 17.9998 20.987 18.035 20.4545L19.7451 19.6881C19.848 19.6544 19.9566 19.6476 20.0624 19.6681C20.1682 19.6887 20.2681 19.736 20.3545 19.8065C20.4381 19.8728 20.5063 19.96 20.5533 20.0611C20.6003 20.1622 20.6249 20.2742 20.6249 20.3878V22.5458C20.6249 22.6595 20.6003 22.7714 20.5533 22.8725C20.5063 22.9736 20.4381 23.0609 20.3545 23.1271C20.2681 23.1976 20.1682 23.245 20.0624 23.2655C19.9567 23.2861 19.848 23.2793 19.7451 23.2456L17.2249 22.116L17.4512 21.8663ZM10.2545 23.2456C10.1515 23.2793 10.0429 23.2861 9.93712 23.2655C9.83137 23.245 9.73139 23.1976 9.64505 23.1271C9.56141 23.0609 9.49326 22.9736 9.44623 22.8725C9.39921 22.7714 9.37466 22.6595 9.37462 22.5458V20.3878C9.37466 20.2742 9.39921 20.1622 9.44623 20.0611C9.49326 19.96 9.56141 19.8728 9.64505 19.8065C9.76415 19.7093 9.90835 19.6568 10.0565 19.6568C10.1235 19.6569 10.1901 19.6674 10.2545 19.6881L11.9645 20.4545C11.9997 20.987 12.2068 21.488 12.5483 21.8663L12.7746 22.1161L10.2545 23.2456ZM15.3932 26.1127C15.315 26.0477 15.2203 26.0112 15.1224 26.0086C15.0245 26.0059 14.9283 26.0371 14.8473 26.0978L13.4727 27.1281L13.8688 23.3236L14.5974 24.1276C14.7054 24.243 14.8498 24.3075 15.0001 24.3074C15.1505 24.3073 15.2949 24.2427 15.4027 24.1271L16.1308 23.3236L16.5187 27.0503L15.3932 26.1127ZM16.7882 21.135L14.9998 23.1087L13.2112 21.135C13.0144 20.9214 12.9 20.6321 12.892 20.3276C12.8841 20.0231 12.983 19.727 13.1683 19.5012C13.3562 19.2859 13.6118 19.1585 13.8823 19.1452C14.1529 19.1319 14.4178 19.2338 14.6222 19.4297C14.7262 19.5318 14.8606 19.5883 14.9998 19.5883C15.139 19.5883 15.2733 19.5318 15.3773 19.4297C15.5801 19.2298 15.8458 19.1253 16.1175 19.1387C16.3892 19.1521 16.6453 19.2822 16.8312 19.5012C17.0165 19.727 17.1155 20.0231 17.1075 20.3277C17.0995 20.6322 16.985 20.9214 16.7882 21.135Z" fill="black"/>
</svg>
