<svg width="12" height="18" viewBox="0 0 12 18" fill="none" xmlns="http://www.w3.org/2000/svg">
<path d="M1.9165 1.06445C1.9165 0.898693 1.85066 0.739722 1.73345 0.622511C1.61624 0.505301 1.45726 0.439453 1.2915 0.439453C1.12574 0.439453 0.966773 0.505301 0.849562 0.622511C0.732352 0.739722 0.666504 0.898693 0.666504 1.06445V4.81445C0.666357 5.53486 0.915118 6.2332 1.37069 6.79127C1.82626 7.34934 2.46065 7.73287 3.1665 7.87695V17.3145C3.1665 17.4802 3.23235 17.6392 3.34956 17.7564C3.46677 17.8736 3.62574 17.9395 3.7915 17.9395C3.95726 17.9395 4.11624 17.8736 4.23345 17.7564C4.35066 17.6392 4.4165 17.4802 4.4165 17.3145V7.87695C5.12236 7.73287 5.75675 7.34934 6.21232 6.79127C6.66789 6.2332 6.91665 5.53486 6.9165 4.81445V1.06445C6.9165 0.898693 6.85066 0.739722 6.73345 0.622511C6.61624 0.505301 6.45726 0.439453 6.2915 0.439453C6.12574 0.439453 5.96677 0.505301 5.84956 0.622511C5.73235 0.739722 5.6665 0.898693 5.6665 1.06445V4.81445C5.66671 5.20236 5.54659 5.58078 5.32272 5.89757C5.09884 6.21435 4.78223 6.4539 4.4165 6.5832V1.06445C4.4165 0.898693 4.35066 0.739722 4.23345 0.622511C4.11624 0.505301 3.95726 0.439453 3.7915 0.439453C3.62574 0.439453 3.46677 0.505301 3.34956 0.622511C3.23235 0.739722 3.1665 0.898693 3.1665 1.06445V6.5832C2.80078 6.4539 2.48416 6.21435 2.26029 5.89757C2.03641 5.58078 1.9163 5.20236 1.9165 4.81445V1.06445ZM10.6665 17.3145V9.18945H8.7915C8.62574 9.18945 8.46677 9.1236 8.34956 9.00639C8.23235 8.88918 8.1665 8.73021 8.1665 8.56445V3.56445C8.1665 2.7357 8.574 1.9607 9.13025 1.4032C9.68775 0.846953 10.4628 0.439453 11.2915 0.439453C11.4573 0.439453 11.6162 0.505301 11.7334 0.622511C11.8507 0.739722 11.9165 0.898693 11.9165 1.06445V17.3145C11.9165 17.4802 11.8507 17.6392 11.7334 17.7564C11.6162 17.8736 11.4573 17.9395 11.2915 17.9395C11.1257 17.9395 10.9668 17.8736 10.8496 17.7564C10.7324 17.6392 10.6665 17.4802 10.6665 17.3145Z" fill="black"/>
</svg>
