<svg width="19" height="12" viewBox="0 0 19 12" fill="none" xmlns="http://www.w3.org/2000/svg">
<path fill-rule="evenodd" clip-rule="evenodd" d="M16.044 1.91586C15.3704 2.61485 14.7111 3.29897 14.72 3.29897C16.8969 3.29897 18.6665 5.08015 18.6665 7.27742C18.6665 9.47468 16.9018 11.2559 14.725 11.2559C12.8069 11.2559 10.8084 9.56006 9.6665 8.39967C8.52212 9.5584 6.52359 11.2559 4.60799 11.2559C2.43118 11.2559 0.666504 9.47468 0.666504 7.27742C0.666504 5.08015 2.43118 3.29897 4.60302 3.29897C4.61384 3.29897 3.86358 2.52045 3.146 1.77585C2.48834 1.09341 1.85812 0.439453 1.86645 0.439453C2.3242 0.447742 4.02253 0.439453 4.02253 0.439453L9.66153 6.34414L15.3005 0.439453C15.3005 0.439453 16.9989 0.447742 17.4566 0.439453C17.4668 0.439453 16.7476 1.18577 16.044 1.91586ZM2.94144 9.06496C3.41577 9.53905 4.0591 9.80539 4.7299 9.80539C6.59574 9.80539 8.58597 7.31886 8.58597 7.31886C8.58597 7.31886 6.51281 4.74944 4.7299 4.74944C4.0591 4.74944 3.41577 5.01578 2.94144 5.48987C2.46712 5.96396 2.20064 6.60696 2.20064 7.27742C2.20064 7.94788 2.46712 8.59088 2.94144 9.06496ZM10.7421 7.31886C10.7421 7.31886 12.7323 9.80539 14.5981 9.80539C15.2689 9.80539 15.9123 9.53905 16.3866 9.06496C16.8609 8.59088 17.1274 7.94788 17.1274 7.27742C17.1274 6.60696 16.8609 5.96396 16.3866 5.48987C15.9123 5.01578 15.2689 4.74944 14.5981 4.74944C12.8152 4.74944 10.7421 7.31886 10.7421 7.31886Z" fill="black"/>
<path d="M9.65981 9.6355L10.547 10.5222L9.62931 11.4395L8.74212 10.5527L9.65981 9.6355Z" fill="black"/>
</svg>
