<svg width="15" height="17" viewBox="0 0 15 17" fill="none" xmlns="http://www.w3.org/2000/svg">
<path d="M10.7915 9.00195L12.0459 11.432L14.729 11.8145L12.7603 13.5959L13.604 16.3145L10.7915 14.744L7.979 16.3145L8.82275 13.5959L6.854 11.8145L9.61025 11.432L10.7915 9.00195Z" fill="black"/>
<path d="M11.9165 2.25195H10.229V1.68945C10.2281 1.39136 10.1093 1.10573 9.89852 0.894942C9.68773 0.684156 9.4021 0.565343 9.104 0.564453H4.604C4.30591 0.565343 4.02028 0.684156 3.80949 0.894942C3.59871 1.10573 3.47989 1.39136 3.479 1.68945V2.25195H1.7915C1.49341 2.25284 1.20778 2.37166 0.996992 2.58244C0.786207 2.79323 0.667394 3.07886 0.666504 3.37695V15.1895C0.667394 15.4875 0.786207 15.7732 0.996992 15.984C1.20778 16.1948 1.49341 16.3136 1.7915 16.3145H5.729V15.1895H1.7915V3.37695H3.479V5.06445H10.229V3.37695H11.9165V7.31445H13.0415V3.37695C13.0406 3.07886 12.9218 2.79323 12.711 2.58244C12.5002 2.37166 12.2146 2.25284 11.9165 2.25195ZM9.104 3.93945H4.604V1.68945H9.104V3.93945Z" fill="black"/>
</svg>
