<svg width="18" height="18" viewBox="0 0 18 18" fill="none" xmlns="http://www.w3.org/2000/svg">
<path d="M14.9407 13.4646L14.9434 13.465C14.5448 13.0664 14.8848 12.6304 14.8848 12.6304L14.8808 12.632C16.9879 9.47599 16.6519 5.15985 13.8684 2.37635C10.6999 -0.792116 5.54442 -0.792116 2.37635 2.37635C-0.792117 5.54482 -0.792117 10.7003 2.37635 13.8684C5.16025 16.6523 9.47682 16.9879 12.6332 14.88L12.6321 14.8836C12.6321 14.8836 13.068 14.5436 13.4666 14.9422L16.2188 17.6944C16.6262 18.1019 17.287 18.1019 17.6944 17.6944C18.1019 17.287 18.1019 16.6258 17.6944 16.2184L14.9407 13.4646ZM12.3924 12.3928C10.038 14.7471 6.20679 14.7471 3.85201 12.3928C1.49764 10.0384 1.49764 6.20677 3.85201 3.8524C6.20639 1.49803 10.038 1.49762 12.3924 3.8524C14.7467 6.20677 14.7467 10.0384 12.3924 12.3928Z" fill="black"/>
</svg>
