<svg width="30" height="30" viewBox="0 0 30 30" fill="none" xmlns="http://www.w3.org/2000/svg">
<path d="M28.5 23.5003C28.1023 23.5007 27.7211 23.6589 27.4399 23.9401C27.1586 24.2213 27.0005 24.6025 27 25.0002C26.9994 25.5304 26.7885 26.0388 26.4136 26.4137C26.0386 26.7886 25.5303 26.9995 25 27.0001H16.515V26.8514C16.5154 26.3529 16.3587 25.8669 16.0672 25.4625C15.7757 25.058 15.3642 24.7557 14.8912 24.5983L13.4313 24.112L16.5713 16.6543C16.6589 16.4459 16.7145 16.2255 16.7364 16.0006H19.8969L20.7913 16.4477C20.8607 16.4825 20.9373 16.5006 21.0149 16.5006H22.3899C22.8207 16.5001 23.2338 16.3287 23.5384 16.0241C23.843 15.7195 24.0144 15.3064 24.0149 14.8756V13.5007C24.0149 13.3681 23.9622 13.2409 23.8684 13.1471C23.7747 13.0534 23.6475 13.0007 23.5149 13.0007H22.6329L21.7385 12.5535C21.6691 12.5188 21.5925 12.5008 21.5149 12.5008C21.4373 12.5008 21.3607 12.5188 21.2913 12.5535L21.2641 12.5672L19.2648 11.3976C19.3174 11.2682 19.3618 11.1357 19.3978 11.0008H19.9654L20.6491 11.1375C21.7963 11.3703 22.9891 11.1774 24.0045 10.5948L25.2375 11.4168C25.307 11.4631 25.3869 11.4912 25.4701 11.4987C25.5533 11.5062 25.637 11.4927 25.7136 11.4595C25.7902 11.4263 25.8573 11.3745 25.9087 11.3087C25.9601 11.2429 25.9943 11.1653 26.008 11.083L26.4866 8.21158L26.7363 7.89953C27.0445 7.51481 27.2675 7.06903 27.3906 6.59168C27.5137 6.11432 27.534 5.61627 27.4503 5.13048C27.3665 4.64468 27.1805 4.18221 26.9046 3.77365C26.6288 3.36509 26.2693 3.01976 25.85 2.76049C25.9752 2.4561 26.0233 2.12551 25.9901 1.79806C25.9568 1.47061 25.8433 1.15643 25.6596 0.883368C25.4758 0.61031 25.2275 0.386822 24.9366 0.232729C24.6458 0.078636 24.3214 -0.00129848 23.9923 1.59523e-05C23.6632 0.00133038 23.3394 0.0838532 23.0498 0.240264C22.7602 0.396675 22.5137 0.622139 22.3321 0.896656C22.1506 1.17117 22.0395 1.48626 22.0089 1.81396C21.9783 2.14166 22.0291 2.47185 22.1567 2.77524C21.9452 2.90851 21.7487 3.06417 21.5706 3.23954C21.5693 3.24091 21.5677 3.24222 21.5663 3.2436C21.5613 3.24866 21.5559 3.25329 21.5509 3.25835L20.0264 4.78266L16.5514 0.921507C16.2825 0.623929 15.9236 0.422462 15.5295 0.347832C15.1354 0.273201 14.7277 0.329502 14.3686 0.508149L13.8732 0.755826C13.7574 0.813391 13.6298 0.843347 13.5004 0.843347C13.3711 0.843347 13.2435 0.813391 13.1277 0.755826L11.7236 0.0540426C11.6406 0.0125105 11.5476 -0.00507361 11.4551 0.00326046C11.3626 0.0115945 11.2743 0.0455176 11.2 0.101228L9.2 1.60117C9.12814 1.65502 9.0721 1.72723 9.03779 1.81021C9.00347 1.89319 8.99213 1.98389 9.00497 2.07276C9.01781 2.16164 9.05435 2.24542 9.11075 2.31529C9.16715 2.38517 9.24134 2.43857 9.3255 2.46988C9.348 2.47826 11.5902 3.3136 12.7169 3.72558C12.9884 3.82447 13.2793 3.85801 13.5662 3.82348C13.8531 3.78895 14.1277 3.68733 14.368 3.52684C14.5285 3.41971 14.7211 3.37144 14.9131 3.39021C15.1051 3.40899 15.2848 3.49366 15.4214 3.62983L16.0652 4.27356C13.439 3.91386 10.7657 4.14488 8.24019 4.94978L2.12375 1.37174L2.44719 0.724828C2.50528 0.606375 2.51419 0.469766 2.47199 0.34477C2.42979 0.219773 2.33989 0.116522 2.22189 0.0575159C2.10389 -0.0014905 1.96735 -0.011469 1.84202 0.0297548C1.7167 0.0709787 1.61274 0.160063 1.55282 0.277596L1.25869 0.865759L0.752504 0.569959C0.638046 0.502995 0.501674 0.484239 0.373387 0.517818C0.245101 0.551398 0.135408 0.634561 0.0684413 0.749014C0.00147413 0.863467 -0.0172822 0.999834 0.0162986 1.12811C0.0498793 1.2564 0.133046 1.36608 0.247504 1.43305L0.810566 1.76241L0.552816 2.27783C0.522842 2.33661 0.504802 2.40075 0.499736 2.46654C0.49467 2.53233 0.502677 2.59848 0.523297 2.66116C0.543917 2.72384 0.576741 2.78182 0.619877 2.83176C0.663013 2.88169 0.715608 2.9226 0.774628 2.95211C0.833649 2.98163 0.897928 2.99916 0.96376 3.00372C1.02959 3.00827 1.09567 2.99975 1.1582 2.97864C1.22072 2.95753 1.27844 2.92426 1.32804 2.88074C1.37764 2.83721 1.41814 2.7843 1.44719 2.72506L1.67557 2.26839L7.02232 5.39582C6.38851 5.68884 5.84197 6.14188 5.4365 6.71033C4.93934 7.40698 4.67681 8.2442 4.68692 9.09999C4.69703 9.95577 4.97927 10.7861 5.49275 11.4708L9.96188 17.1175L8.05575 23.7878L7.81769 24.1449C7.2934 24.9296 7.01399 25.8524 7.01488 26.7962V27.0001H1.5C1.10218 27.0001 0.720648 27.1582 0.439344 27.4394C0.158039 27.7207 3.84085e-06 28.1023 3.84085e-06 28.5001C3.84085e-06 28.8979 0.158039 29.2794 0.439344 29.5607C0.720648 29.842 1.10218 30 1.5 30H25C26.3256 29.9985 27.5965 29.4712 28.5339 28.5339C29.4712 27.5966 29.9985 26.3258 30 25.0002C29.9995 24.6025 29.8414 24.2213 29.5601 23.9401C29.2789 23.6589 28.8977 23.5007 28.5 23.5003ZM15.515 26.8514V27.0001H14.515V26.8516C14.5154 26.3037 14.3261 25.7725 13.9792 25.3484L14.5749 25.547C14.8488 25.6381 15.087 25.8131 15.2558 26.0473C15.4245 26.2814 15.5152 26.5628 15.515 26.8514ZM15.65 16.2659L12.288 24.2514L12.2869 24.2539L12.2341 24.3795L11.6067 24.1704C12.0521 22.6224 13.7513 17.7603 14.2692 16.2851C14.3026 16.1889 14.3294 16.0905 14.3494 15.9907C14.4147 15.9965 14.4806 16.0006 14.5471 16.0006H15.7283C15.7121 16.0917 15.6858 16.1807 15.65 16.2659ZM18.5 6.00099H19.5V8.99561C19.4623 8.66823 19.3532 8.35312 19.1804 8.0725C19.0076 7.79188 18.7754 7.5526 18.5 7.37155V6.00099ZM21.8904 4.33262L22.8386 5.47007L22.0486 6.25997L21.1007 5.12233L21.8904 4.33262ZM23.968 9.34066L23.0149 8.62588C22.86 8.50911 22.7342 8.35807 22.6475 8.18459C22.5608 8.0111 22.5154 7.81988 22.5149 7.62592V7.20812L23.5149 6.20817L25.3078 8.0009L23.968 9.34066ZM18.5149 9.25085V10.119C18.5154 10.5449 18.401 10.963 18.1836 11.3293C18.1813 11.333 18.1787 11.3364 18.1765 11.3402C18.1743 11.344 18.173 11.3471 18.1711 11.3506C18.0264 11.5887 17.8411 11.7995 17.6235 11.9735L17.3199 12.2164L15.7568 10.9659L15.8669 10.8558C15.9139 10.8094 15.9512 10.7541 15.9766 10.6932C16.002 10.6322 16.0151 10.5668 16.015 10.5008C16.015 10.5 16.015 10.4992 16.015 10.4984V9.25085C16.015 8.91935 16.1467 8.60142 16.3811 8.36701C16.6155 8.13259 16.9335 8.0009 17.265 8.0009C17.5965 8.0009 17.9145 8.13259 18.1489 8.36701C18.3833 8.60142 18.5149 8.91935 18.5149 9.25085ZM13.5493 11.7593L12.9973 11.0008H14.3078L13.5493 11.7593ZM13.7197 13.003L15.0454 11.6774L16.5196 12.857L16.2026 13.1106C16.1216 13.1753 16.0628 13.2636 16.0343 13.3632C16.0057 13.4628 16.0088 13.5688 16.0431 13.6666C16.0774 13.7643 16.1413 13.849 16.2258 13.9089C16.3104 13.9688 16.4114 14.001 16.5151 14.001H19V15.0009C19 15.0009 14.2326 14.9684 14.0913 14.9089C14.0834 14.9054 14.0755 14.9021 14.0675 14.899C13.8947 14.8212 13.7433 14.7026 13.6264 14.5534C13.5095 14.4042 13.4306 14.2288 13.3964 14.0424C13.3622 13.856 13.3737 13.664 13.43 13.483C13.4863 13.302 13.5857 13.1371 13.7197 13.003ZM22.2913 13.9478C22.3607 13.9826 22.4373 14.0007 22.5149 14.0007H23.0149V14.8756C23.0147 15.0413 22.9488 15.2002 22.8316 15.3173C22.7144 15.4345 22.5556 15.5004 22.3899 15.5006H21.1329L20.2385 15.0534C20.1691 15.0187 20.0925 15.0006 20.0149 15.0006H20V14.0007H20.5149C20.5925 14.0007 20.6691 13.9826 20.7385 13.9478L21.5149 13.5597L22.2913 13.9478ZM20.025 13.0007H18C18 12.9854 17.9993 12.9701 17.9978 12.9549L18.2486 12.7543C18.4333 12.6062 18.6021 12.4392 18.7523 12.256L20.025 13.0007ZM20.8454 10.1571L20.5152 10.091V5.98161L21.5152 7.18156V7.62592C21.516 7.97506 21.5977 8.31926 21.7539 8.63155C21.91 8.94383 22.1364 9.2157 22.4152 9.42585L23.0909 9.93264C22.3819 10.2317 21.5995 10.3099 20.8454 10.1571ZM25.149 10.1559L24.7999 9.9232L25.2654 9.45766L25.149 10.1559ZM25.9731 7.25194L25.8699 7.14875L25.8688 7.14744L23.8846 5.16352L22.6308 3.65889C23.1216 3.32962 23.7138 3.1861 24.3009 3.25412C24.8881 3.32213 25.4317 3.59723 25.8343 4.03C26.2369 4.46278 26.472 5.02489 26.4974 5.61539C26.5228 6.2059 26.337 6.78618 25.9731 7.25194ZM23 2.00115C22.9995 1.85398 23.0315 1.70852 23.0937 1.57513C23.1559 1.44175 23.2468 1.32374 23.3598 1.22953C23.4729 1.13531 23.6053 1.06722 23.7478 1.03009C23.8902 0.992974 24.039 0.987745 24.1837 1.01478C24.3284 1.04182 24.4653 1.10045 24.5847 1.1865C24.7041 1.27255 24.803 1.3839 24.8744 1.51259C24.9458 1.64128 24.9879 1.78414 24.9978 1.93098C25.0076 2.07782 24.9849 2.22502 24.9313 2.36207C24.3219 2.19712 23.6792 2.1996 23.0711 2.36926C23.0244 2.25216 23.0002 2.12725 23 2.00115ZM13.8112 2.696C13.7019 2.76894 13.5771 2.81513 13.4466 2.83083C13.3162 2.84653 13.1839 2.8313 13.0605 2.78637C12.3802 2.53744 11.2913 2.13364 10.5326 1.85172L11.5528 1.08663L12.68 1.65016C12.9348 1.77681 13.2155 1.84272 13.5 1.84272C13.7845 1.84272 14.0652 1.77681 14.32 1.65016L14.8154 1.40249C14.9786 1.32129 15.164 1.29571 15.3431 1.32964C15.5222 1.36357 15.6854 1.45515 15.8076 1.59042L18.8773 5.00103H18.2071L16.1286 2.92255C15.8279 2.62296 15.4328 2.43669 15.0103 2.39539C14.5879 2.35409 14.1642 2.46031 13.8112 2.696ZM16.7303 5.3937L17.2908 5.49894L17.5 5.70806V7.01344C16.9222 6.95276 16.3433 7.11795 15.8845 7.47441C15.4257 7.83088 15.1226 8.35099 15.0386 8.92587L9.43063 5.64575C11.8159 5.02756 14.308 4.94151 16.7303 5.3937ZM6.85525 6.66065C7.09036 6.47787 7.35096 6.33048 7.62875 6.22316C7.79407 6.15973 7.96088 6.09973 8.12738 6.04192L14.8955 10.0008H12.1469L6.61819 6.8657C6.69356 6.79329 6.77277 6.72484 6.85525 6.66065ZM10.899 16.6804L6.2925 10.8708C5.95212 10.4172 5.74588 9.87718 5.69727 9.31217C5.64865 8.74717 5.7596 8.17986 6.0175 7.67479L11.6741 10.8824L12.8428 12.4886C12.6547 12.7274 12.5189 13.0031 12.4441 13.2978C12.3693 13.5925 12.3573 13.8995 12.4087 14.1992C12.4601 14.4988 12.5739 14.7843 12.7426 15.0372C12.9114 15.2901 13.1314 15.5047 13.3883 15.6672C13.3786 15.7647 13.3574 15.8608 13.3251 15.9535C12.8028 17.4409 11.0846 22.3583 10.639 23.915L9.14419 23.6161L10.9958 17.138C11.0182 17.0597 11.0211 16.977 11.0043 16.8972C10.9874 16.8175 10.9512 16.743 10.899 16.6804ZM8.01488 26.796C8.01422 26.0496 8.23528 25.3199 8.65 24.6993L8.74544 24.5562L10.1735 24.8418C10.1774 24.8427 10.1814 24.8434 10.1854 24.8441L10.8866 24.9844L12.5749 25.5469C12.8489 25.6379 13.0871 25.8129 13.2559 26.0471C13.4247 26.2813 13.5154 26.5627 13.5151 26.8513V27.0001H8.01513L8.01488 26.796ZM25 29H1.5C1.3674 29 1.24022 28.9474 1.14645 28.8536C1.05268 28.7598 1 28.6327 1 28.5001C1 28.3675 1.05268 28.2403 1.14645 28.1465C1.24022 28.0528 1.3674 28.0001 1.5 28.0001H25C25.7954 27.9992 26.5579 27.6828 27.1203 27.1204C27.6827 26.558 27.9991 25.7955 28 25.0002C28 24.8676 28.0527 24.7404 28.1464 24.6467C28.2402 24.5529 28.3674 24.5002 28.5 24.5002C28.6326 24.5002 28.7598 24.5529 28.8536 24.6467C28.9473 24.7404 29 24.8676 29 25.0002C28.9988 26.0607 28.577 27.0773 27.8271 27.8272C27.0772 28.5771 26.0605 28.9989 25 29Z" fill="black"/>
<path d="M6.00014 21.0004C5.86753 21.0004 5.74035 21.053 5.64659 21.1468C5.55282 21.2406 5.50014 21.3677 5.50014 21.5003C5.50014 21.6329 5.55282 21.7601 5.64659 21.8539C5.74035 21.9476 5.86753 22.0003 6.00014 22.0003H7.00014C7.13275 22.0003 7.25992 21.9476 7.35369 21.8539C7.44746 21.7601 7.50014 21.6329 7.50014 21.5003C7.50014 21.3677 7.44746 21.2406 7.35369 21.1468C7.25992 21.053 7.13275 21.0004 7.00014 21.0004H6.00014Z" fill="black"/>
<path d="M0.5 21.0004C0.367392 21.0004 0.240215 21.053 0.146447 21.1468C0.0526784 21.2406 1.20183e-09 21.3677 1.20183e-09 21.5003C1.20183e-09 21.6329 0.0526784 21.7601 0.146447 21.8539C0.240215 21.9476 0.367392 22.0003 0.5 22.0003H4C4.13261 22.0003 4.25978 21.9476 4.35355 21.8539C4.44732 21.7601 4.5 21.6329 4.5 21.5003C4.5 21.3677 4.44732 21.2406 4.35355 21.1468C4.25978 21.053 4.13261 21.0004 4 21.0004H0.5Z" fill="black"/>
<path d="M4.00007 18.0005C4.00007 18.1331 4.05275 18.2603 4.14652 18.354C4.24028 18.4478 4.36746 18.5005 4.50007 18.5005H7.50007C7.63268 18.5005 7.75986 18.4478 7.85362 18.354C7.94739 18.2603 8.00007 18.1331 8.00007 18.0005C8.00007 17.8679 7.94739 17.7407 7.85362 17.6469C7.75986 17.5532 7.63268 17.5005 7.50007 17.5005H4.50007C4.36746 17.5005 4.24028 17.5532 4.14652 17.6469C4.05275 17.7407 4.00007 17.8679 4.00007 18.0005Z" fill="black"/>
<path d="M0.5 18.5005H2.5C2.63261 18.5005 2.75978 18.4478 2.85355 18.354C2.94732 18.2603 3 18.1331 3 18.0005C3 17.8679 2.94732 17.7407 2.85355 17.6469C2.75978 17.5532 2.63261 17.5005 2.5 17.5005H0.5C0.367392 17.5005 0.240215 17.5532 0.146447 17.6469C0.0526784 17.7407 1.20183e-09 17.8679 1.20183e-09 18.0005C1.20183e-09 18.1331 0.0526784 18.2603 0.146447 18.354C0.240215 18.4478 0.367392 18.5005 0.5 18.5005Z" fill="black"/>
<path d="M5.49986 15.5006C5.63247 15.5006 5.75965 15.4479 5.85341 15.3541C5.94718 15.2604 5.99986 15.1332 5.99986 15.0006C5.99986 14.868 5.94718 14.7408 5.85341 14.6471C5.75965 14.5533 5.63247 14.5006 5.49986 14.5006H4.99986C4.86725 14.5006 4.74008 14.5533 4.64631 14.6471C4.55254 14.7408 4.49986 14.868 4.49986 15.0006C4.49986 15.1332 4.55254 15.2604 4.64631 15.3541C4.74008 15.4479 4.86725 15.5006 4.99986 15.5006H5.49986Z" fill="black"/>
<path d="M3 14.5006H0.5C0.367392 14.5006 0.240215 14.5533 0.146447 14.6471C0.0526784 14.7408 1.20183e-09 14.868 1.20183e-09 15.0006C1.20183e-09 15.1332 0.0526784 15.2604 0.146447 15.3541C0.240215 15.4479 0.367392 15.5006 0.5 15.5006H3C3.13261 15.5006 3.25978 15.4479 3.35355 15.3541C3.44732 15.2604 3.5 15.1332 3.5 15.0006C3.5 14.868 3.44732 14.7408 3.35355 14.6471C3.25978 14.5533 3.13261 14.5006 3 14.5006Z" fill="black"/>
</svg>
