<svg width="30" height="30" viewBox="0 0 30 30" fill="none" xmlns="http://www.w3.org/2000/svg">
<path d="M23.3894 17.0871C23.1619 17.0871 22.9492 16.942 22.8714 16.7119C22.4976 15.6113 22.8161 14.5518 23.0972 13.618C23.3138 12.9004 23.5171 12.2229 23.4305 11.5675C23.3905 11.2629 23.6015 10.9833 23.9008 10.9427C24.2023 10.9016 24.4769 11.1162 24.5169 11.4197C24.6348 12.3151 24.3865 13.1428 24.1453 13.9421C23.8904 14.7897 23.6498 15.5907 23.9068 16.3506C24.0055 16.6407 23.8531 16.9575 23.567 17.057C23.5083 17.077 23.448 17.0871 23.3894 17.0871Z" fill="black"/>
<path d="M28.2319 17.0581C28.0044 17.0581 27.7918 16.9136 27.7139 16.6835C27.0227 14.6535 27.607 12.7148 28.1722 10.8405C28.6227 9.34523 29.0492 7.93228 28.8573 6.50098C28.8168 6.19637 29.0273 5.91623 29.3265 5.8751C29.6335 5.83452 29.9032 6.04797 29.9437 6.3509C30.1668 8.02399 29.6856 9.62093 29.2202 11.1645C28.683 12.9477 28.1754 14.6319 28.7504 16.32C28.8497 16.6096 28.6973 16.9264 28.4111 17.0264C28.3519 17.0487 28.2917 17.0581 28.2319 17.0581Z" fill="black"/>
<path d="M6.61006 17.087C6.55141 17.087 6.49056 17.077 6.43191 17.0564C6.14579 16.9569 5.99341 16.6407 6.09207 16.35C6.34969 15.5901 6.10851 14.7892 5.85363 13.9415C5.613 13.1422 5.36415 12.3145 5.482 11.4191C5.52201 11.115 5.79717 10.9005 6.0981 10.9422C6.39793 10.9827 6.60896 11.2623 6.5684 11.5669C6.48234 12.2228 6.6857 12.8998 6.90166 13.6174C7.18286 14.5518 7.50132 15.6107 7.1275 16.7113C7.05021 16.9419 6.83753 17.087 6.61006 17.087Z" fill="black"/>
<path d="M1.76778 17.0581C1.70858 17.0581 1.64774 17.0481 1.58909 17.0275C1.30297 16.9269 1.15058 16.6106 1.2498 16.321C1.82479 14.6329 1.31722 12.9487 0.780046 11.1656C0.314132 9.622 -0.16713 8.02506 0.056509 6.35197C0.0970709 6.04793 0.374427 5.83837 0.673708 5.87617C0.973537 5.9173 1.18402 6.19745 1.14291 6.50205C0.951063 7.93279 1.37751 9.34575 1.82808 10.8415C2.3932 12.7158 2.97752 14.6541 2.28632 16.6846C2.20739 16.9136 1.99526 17.0581 1.76778 17.0581Z" fill="black"/>
<path d="M14.9296 30C10.2036 30 6.32826 29.2346 3.12222 27.6738C2.84925 27.5409 2.73415 27.2091 2.86515 26.9323C2.99506 26.6555 3.32175 26.5365 3.59636 26.6716C7.03645 28.3464 11.3196 29.0612 16.6946 28.8533C20.4603 28.7082 23.7266 27.9745 26.4031 26.6716C26.6772 26.5365 27.0039 26.6555 27.1343 26.9323C27.2653 27.2091 27.1502 27.5409 26.8773 27.6738C24.0648 29.0428 20.6532 29.8138 16.7362 29.9639C16.1207 29.9883 15.5177 30 14.9296 30Z" fill="black"/>
<path d="M26.6397 27.7287C26.3541 27.7287 26.1134 27.5041 26.0932 27.2106C26.0109 25.9867 25.9337 24.9567 25.8284 23.9128C25.7977 23.6076 26.017 23.3347 26.3184 23.303C26.6133 23.2775 26.8885 23.4943 26.9198 23.8C27.0327 24.9217 27.1149 26.065 27.1878 27.1345C27.2081 27.4407 26.98 27.7059 26.678 27.727C26.6649 27.7281 26.6528 27.7287 26.6397 27.7287Z" fill="black"/>
<path d="M3.36025 27.7288C3.34765 27.7288 3.33504 27.7282 3.32243 27.7277C3.02041 27.7065 2.79239 27.4408 2.81267 27.1351C2.88557 26.0657 2.96779 24.9223 3.0807 23.8006C3.11195 23.4949 3.38492 23.2787 3.68201 23.3037C3.98348 23.3354 4.20219 23.6083 4.17204 23.9134C4.0668 24.9573 3.98951 25.9867 3.90729 27.2113C3.88701 27.5042 3.64583 27.7288 3.36025 27.7288Z" fill="black"/>
<path d="M9.0004 6.85174C8.74881 6.85174 8.52243 6.67554 8.46543 6.41596C7.90359 3.83462 8.71757 0.866411 11.3618 0.187169C12.907 -0.145225 14.4889 -0.0329448 15.9551 0.508447C16.2396 0.612946 16.3865 0.932001 16.2829 1.22048C16.1799 1.50897 15.8663 1.65793 15.5808 1.55288C14.3074 1.08375 12.9338 0.985362 11.6101 1.26995C9.43179 1.82969 9.17362 4.51108 9.53648 6.17584C9.60171 6.47544 9.41479 6.77226 9.11935 6.8384C9.07934 6.84729 9.03932 6.85174 9.0004 6.85174Z" fill="black"/>
<path d="M20.7958 6.36416C20.7695 6.36416 20.7432 6.36249 20.7163 6.35804C20.4165 6.31413 20.2088 6.03176 20.2526 5.72827C20.4642 4.25362 19.8086 2.37765 18.1785 1.80679C17.8924 1.70619 17.7405 1.38991 17.8392 1.10032C17.9379 0.810164 18.2486 0.656751 18.5359 0.756247C20.456 1.42826 21.6602 3.63497 21.3368 5.8878C21.2979 6.16461 21.0639 6.36416 20.7958 6.36416Z" fill="black"/>
<path d="M20.2445 12.7681C20.2072 12.7681 20.1689 12.7642 20.131 12.7565C19.9134 12.7098 19.7446 12.5341 19.7051 12.3112C19.1575 9.23963 16.7474 7.79943 14.8229 7.13298C14.5368 7.03348 14.3833 6.71776 14.4814 6.42705C14.579 6.13635 14.8892 5.98238 15.1775 6.08076C17.7625 6.97623 19.5741 8.60485 20.4013 10.7404C21.0102 9.21183 20.9894 7.50372 20.3015 6.04908C20.1705 5.77227 20.2856 5.43987 20.5586 5.30758C20.8326 5.17307 21.1588 5.29146 21.2898 5.56827C22.3274 7.76052 22.1005 10.4258 20.6989 12.5247C20.5953 12.6786 20.4243 12.7681 20.2445 12.7681Z" fill="black"/>
<path d="M9.7561 12.7681C9.72376 12.7681 9.69142 12.7653 9.65853 12.7592C9.36089 12.7048 9.16247 12.4163 9.21564 12.1139C9.27813 11.7587 9.35486 11.4374 9.4486 11.1312C10.6161 7.3392 14.6252 5.252 20.7396 5.252C20.7588 5.252 20.7774 5.252 20.7966 5.252C21.0997 5.25256 21.3442 5.50213 21.3437 5.80896C21.3431 6.11578 21.0984 6.36416 20.7958 6.36416C20.7805 6.36472 20.7571 6.36369 20.738 6.36369C16.7673 6.36369 11.7913 7.25304 10.495 11.4624C10.415 11.7237 10.3492 12.0011 10.2949 12.3101C10.2472 12.5797 10.0165 12.7681 9.7561 12.7681Z" fill="black"/>
<path d="M9.7561 12.7681C9.5807 12.7681 9.40735 12.6832 9.30156 12.5242C8.64435 11.5398 8.22009 10.3959 8.07538 9.21527C8.03811 8.91011 8.25078 8.63274 8.55116 8.59495C8.85209 8.55937 9.12615 8.77282 9.16288 9.07742C9.28676 10.0852 9.64853 11.0612 10.2093 11.9011C10.3792 12.1551 10.3129 12.5009 10.0624 12.6732C9.96809 12.7377 9.86189 12.7681 9.7561 12.7681Z" fill="black"/>
<path d="M8.61786 9.70222C8.33941 9.70222 8.10152 9.48822 8.07302 9.20196C7.64219 4.83136 11.4676 1.1928 15.3111 0.535794C16.4485 0.341805 17.5635 0.417182 18.5359 0.756247C18.822 0.855744 18.9743 1.17224 18.8756 1.46294C18.7775 1.75254 18.4679 1.90685 18.1785 1.80679C17.3782 1.52832 16.4502 1.4685 15.4931 1.63248C12.207 2.19388 8.7993 5.39554 9.16381 9.09135C9.19395 9.39706 8.97415 9.66943 8.67268 9.7C8.65459 9.70111 8.6365 9.70222 8.61786 9.70222Z" fill="black"/>
<path d="M14.9695 17.3745C14.4855 17.3745 14.0021 17.2994 13.5301 17.146C11.6708 16.5413 10.1476 14.8587 9.24152 12.408C9.13573 12.1201 9.27879 11.7999 9.56217 11.6921C9.84556 11.5865 10.1618 11.7293 10.2682 12.0173C10.7231 13.249 11.7958 15.4146 13.8656 16.0877C15.2419 16.5352 16.7685 16.1077 17.9519 14.9421C18.6903 14.2151 19.2724 13.2585 19.7312 12.0167C19.8375 11.7288 20.1538 11.5859 20.4372 11.6915C20.7205 11.7994 20.8636 12.1201 20.7578 12.4075C20.2409 13.806 19.5727 14.896 18.7149 15.7397C17.6313 16.8075 16.2998 17.3745 14.9695 17.3745Z" fill="black"/>
<path d="M17.8112 16.8103C17.5081 16.8103 17.2631 16.5619 17.2631 16.2545V15.8015C17.2631 15.4941 17.5081 15.2457 17.8112 15.2457C18.1143 15.2457 18.3594 15.4941 18.3594 15.8015V16.2545C18.3594 16.5619 18.1143 16.8103 17.8112 16.8103Z" fill="black"/>
<path d="M12.1886 16.8103C11.8855 16.8103 11.6404 16.5619 11.6404 16.2545V15.8015C11.6404 15.4941 11.8855 15.2457 12.1886 15.2457C12.4917 15.2457 12.7367 15.4941 12.7367 15.8015V16.2545C12.7367 16.5619 12.4917 16.8103 12.1886 16.8103Z" fill="black"/>
<path d="M7.1965 20.2653C6.94929 20.2653 6.7251 20.0947 6.66426 19.8401C6.593 19.5416 6.77334 19.2414 7.06769 19.1692C7.90907 18.9624 8.76909 18.7873 9.62418 18.6495C9.93004 18.5983 10.2047 18.8079 10.2518 19.1108C10.2995 19.4143 10.0956 19.6989 9.79684 19.7473C8.97026 19.8807 8.13874 20.0496 7.32586 20.2492C7.28255 20.2603 7.23925 20.2653 7.1965 20.2653Z" fill="black"/>
<path d="M9.71051 19.7546C9.44576 19.7546 9.2128 19.5595 9.17005 19.286C9.12236 18.9825 9.32545 18.6973 9.62418 18.6495C10.7923 18.461 11.6404 17.4546 11.6404 16.2545C11.6404 15.9471 11.8861 15.6981 12.1892 15.6981C12.4923 15.6981 12.7367 15.9471 12.7367 16.2545C12.7367 18.0037 11.4999 19.4727 9.79684 19.7473C9.7667 19.7528 9.73846 19.7546 9.71051 19.7546Z" fill="black"/>
<path d="M20.2893 19.7546C20.2608 19.7546 20.2323 19.7524 20.2027 19.7474C18.4997 19.4728 17.2631 18.0037 17.2631 16.2545C17.2631 15.9471 17.5081 15.6986 17.8112 15.6986C18.1143 15.6986 18.3594 15.9471 18.3594 16.2545C18.3594 17.454 19.2073 18.4617 20.3754 18.6501C20.6741 18.6979 20.878 18.9831 20.8304 19.2866C20.7876 19.5595 20.5546 19.7546 20.2893 19.7546Z" fill="black"/>
<path d="M22.803 20.2653C22.7602 20.2653 22.7169 20.2603 22.6736 20.2497C21.8607 20.0502 21.0293 19.8808 20.2027 19.7474C19.904 19.699 19.7 19.4148 19.7477 19.1113C19.7948 18.8084 20.0695 18.599 20.3754 18.6501C21.2305 18.788 22.0904 18.9629 22.9318 19.1697C23.2261 19.242 23.4065 19.5421 23.3352 19.8406C23.2749 20.0946 23.0507 20.2653 22.803 20.2653Z" fill="black"/>
<path d="M3.62663 24.413C3.60799 24.413 3.58936 24.4119 3.56962 24.4102C3.2687 24.3785 3.05001 24.1063 3.0807 23.8006C3.30818 21.5617 4.91023 19.7 7.06769 19.1692C7.35929 19.0947 7.65706 19.2798 7.72886 19.5783C7.80012 19.8762 7.62021 20.1769 7.32586 20.2492C5.61897 20.6694 4.35071 22.1418 4.17093 23.9138C4.14187 24.2001 3.90453 24.413 3.62663 24.413Z" fill="black"/>
<path d="M26.3732 24.413C26.0953 24.413 25.8579 24.2001 25.8283 23.9144C25.6485 22.1424 24.3805 20.6699 22.6736 20.2497C22.3793 20.1775 22.1991 19.8762 22.2704 19.5783C22.3422 19.2798 22.638 19.0952 22.9318 19.1697C25.0898 19.7005 26.6923 21.561 26.9198 23.8C26.951 24.1057 26.7305 24.3785 26.4296 24.4102C26.4104 24.4119 26.3918 24.413 26.3732 24.413Z" fill="black"/>
</svg>
