<svg width="17" height="16" viewBox="0 0 17 16" fill="none" xmlns="http://www.w3.org/2000/svg">
<path d="M1.95222 8.72531L9.02365 8.72595C9.34791 8.72601 9.66017 8.84859 9.89788 9.06913C10.1356 9.28967 10.2812 9.59189 10.3055 9.91524L10.3094 10.0117V11.6182C10.3087 14.3182 7.55343 15.1539 5.48793 15.1539C3.46358 15.1539 0.776433 14.3516 0.669718 11.7776L0.666504 11.6182V10.011C0.666504 9.33345 1.19108 8.77802 1.85579 8.72916L1.95222 8.72531ZM14.8094 8.72531L14.9058 8.72916C15.2118 8.75228 15.4994 8.88399 15.7168 9.10055C15.9341 9.3171 16.0669 9.60422 16.0912 9.91009L16.0951 10.011V11.2967C16.0944 13.7132 13.8901 14.511 12.2379 14.511C11.5578 14.511 10.7857 14.3728 10.1107 14.0449C10.3151 13.8019 10.4881 13.5319 10.6231 13.2298C11.2389 13.4998 11.903 13.5416 12.1839 13.5461L12.3691 13.5442C13.0351 13.5217 15.0241 13.2973 15.1269 11.4465L15.1308 11.2967V10.011C15.1307 9.93582 15.1043 9.86303 15.0561 9.80526C15.008 9.7475 14.9412 9.70839 14.8672 9.69473L14.8094 9.68959L10.9194 9.69024C10.8663 9.37553 10.7347 9.07927 10.5369 8.82881L10.4508 8.72531H14.8094ZM1.95222 9.68959L1.88793 9.69602C1.82623 9.70886 1.76954 9.73922 1.72465 9.78345C1.6804 9.82808 1.65004 9.88457 1.63722 9.94609L1.63079 10.011V11.6182C1.63079 12.4789 2.00815 13.1154 2.78472 13.5628C3.425 13.9331 4.32115 14.1562 5.26872 14.1864L5.48793 14.1896L5.76758 14.1832C6.74472 14.1394 9.2255 13.8251 9.34058 11.7673L9.34508 11.6175V10.0117C9.34485 9.9365 9.3184 9.86377 9.27028 9.80603C9.22216 9.74829 9.15539 9.70915 9.0815 9.69538L9.02365 9.69024L1.95222 9.68959ZM5.48793 0.368164C6.42566 0.368164 7.32498 0.740676 7.98806 1.40375C8.65114 2.06683 9.02365 2.96615 9.02365 3.90388C9.02365 4.84161 8.65114 5.74093 7.98806 6.40401C7.32498 7.06708 6.42566 7.43959 5.48793 7.43959C4.5502 7.43959 3.65088 7.06708 2.9878 6.40401C2.32473 5.74093 1.95222 4.84161 1.95222 3.90388C1.95222 2.96615 2.32473 2.06683 2.9878 1.40375C3.65088 0.740676 4.5502 0.368164 5.48793 0.368164ZM12.5594 1.65388C12.9393 1.65388 13.3154 1.7287 13.6664 1.87408C14.0174 2.01946 14.3363 2.23255 14.6049 2.50118C14.8735 2.7698 15.0866 3.08871 15.232 3.43969C15.3774 3.79066 15.4522 4.16684 15.4522 4.54674C15.4522 4.92663 15.3774 5.30281 15.232 5.65378C15.0866 6.00476 14.8735 6.32367 14.6049 6.59229C14.3363 6.86092 14.0174 7.07401 13.6664 7.21939C13.3154 7.36477 12.9393 7.43959 12.5594 7.43959C11.7921 7.43959 11.0563 7.13481 10.5138 6.59229C9.97129 6.04978 9.6665 5.31397 9.6665 4.54674C9.6665 3.7795 9.97129 3.04369 10.5138 2.50118C11.0563 1.95866 11.7921 1.65388 12.5594 1.65388ZM5.48793 1.33245C4.06979 1.33245 2.9165 2.48574 2.9165 3.90388C2.9165 5.32202 4.06979 6.47531 5.48793 6.47531C6.90608 6.47531 8.05936 5.32202 8.05936 3.90388C8.05936 2.48574 6.90608 1.33245 5.48793 1.33245ZM12.5594 2.61816C11.4961 2.61816 10.6308 3.48345 10.6308 4.54674C10.6308 5.61002 11.4961 6.47531 12.5594 6.47531C13.6226 6.47531 14.4879 5.61002 14.4879 4.54674C14.4879 3.48345 13.6226 2.61816 12.5594 2.61816Z" fill="black"/>
</svg>
