<svg width="31" height="23" viewBox="0 0 31 23" fill="none" xmlns="http://www.w3.org/2000/svg">
<path d="M3.6665 0.639648C2.0165 0.639648 0.666504 1.98965 0.666504 3.63965V19.2396C0.666504 20.8896 2.0165 22.2396 3.6665 22.2396H27.6665C29.3165 22.2396 30.6665 20.8896 30.6665 19.2396V3.63965C30.6665 1.98965 29.3165 0.639648 27.6665 0.639648H3.6665ZM3.6665 1.83965H27.6665C28.6673 1.83965 29.4665 2.63887 29.4665 3.63965V19.2396C29.4665 20.2404 28.6673 21.0396 27.6665 21.0396H3.6665C2.66572 21.0396 1.8665 20.2404 1.8665 19.2396V3.63965C1.8665 2.63887 2.66572 1.83965 3.6665 1.83965ZM18.479 8.0834C16.6181 8.0834 15.6665 8.99981 15.6665 10.1646C15.6665 12.2717 18.104 11.9881 18.104 13.0709C18.104 13.2537 17.9634 13.6896 16.9415 13.6896C15.9173 13.6896 15.254 13.2959 15.254 13.2959L14.9353 14.7209C14.9353 14.7209 15.5985 15.0959 16.8665 15.0959C18.1345 15.0959 19.8853 14.1256 19.8853 12.7146C19.8853 11.0178 17.4478 10.8842 17.4478 10.1271C17.4478 9.74043 17.7478 9.45215 18.629 9.45215C19.2009 9.45215 19.8478 9.8834 19.8478 9.8834L20.1478 8.4209C20.1478 8.4209 19.297 8.0834 18.479 8.0834ZM10.5478 8.21465L8.93525 12.9771C8.93525 12.9771 8.8251 12.5717 8.78525 12.3209C7.86416 10.2537 6.3665 9.48965 6.3665 9.48965L7.7915 14.8896H9.7415L12.4415 8.21465H10.5478ZM13.1353 8.21465L12.0853 14.8896H13.8665L14.9353 8.21465H13.1353ZM22.754 8.21465L19.8478 14.8896H21.6103L21.9665 13.9334H24.179L24.3665 14.8896H25.979L24.6103 8.21465H22.754ZM4.4165 8.2334C4.4165 8.2334 7.89932 9.31152 8.71025 11.9271L8.11025 8.88965C8.11025 8.88965 7.85244 8.2334 7.154 8.2334H4.4165ZM23.429 10.1459L23.9165 12.6584H22.454L23.429 10.1459Z" fill="black"/>
</svg>
