<svg width="30" height="30" viewBox="0 0 30 30" fill="none" xmlns="http://www.w3.org/2000/svg">
<path d="M0.468558 13.1694C0.586981 13.169 0.70086 13.1238 0.787308 13.0429L2.53809 11.4022C2.58951 11.3621 2.63199 11.3117 2.66282 11.2543C2.69365 11.1968 2.71215 11.1335 2.71714 11.0685C2.72213 11.0035 2.71349 10.9381 2.69178 10.8766C2.67007 10.8151 2.63577 10.7588 2.59107 10.7114C2.54637 10.6639 2.49225 10.6262 2.43218 10.6009C2.3721 10.5755 2.30739 10.5629 2.24219 10.564C2.17698 10.565 2.11271 10.5797 2.05349 10.607C1.99426 10.6343 1.94139 10.6737 1.89825 10.7226L0.147464 12.3632C0.0804354 12.4278 0.0341586 12.5109 0.0145319 12.6019C-0.00509481 12.6929 0.00281748 12.7876 0.0372603 12.8741C0.0717032 12.9606 0.131117 13.0349 0.207928 13.0875C0.28474 13.1401 0.375471 13.1686 0.468558 13.1694Z" fill="black"/>
<path d="M3.39171 13.1744C3.51014 13.1739 3.62401 13.1287 3.71046 13.0478L6.38702 10.547C6.43454 10.5057 6.47325 10.4552 6.50083 10.3986C6.52841 10.342 6.5443 10.2804 6.54754 10.2175C6.55079 10.1546 6.54133 10.0917 6.51973 10.0325C6.49814 9.97339 6.46484 9.91919 6.42183 9.87319C6.37882 9.82718 6.32698 9.79032 6.26941 9.76479C6.21184 9.73927 6.14971 9.72561 6.08674 9.72462C6.02378 9.72364 5.96125 9.73535 5.90291 9.75907C5.84457 9.78278 5.79161 9.81801 5.74718 9.86264L3.07296 12.3634C3.00428 12.4277 2.95654 12.5112 2.93594 12.603C2.91535 12.6948 2.92286 12.7907 2.9575 12.8782C2.99214 12.9657 3.0523 13.0407 3.13016 13.0935C3.20802 13.1463 3.29997 13.1745 3.39406 13.1744H3.39171Z" fill="black"/>
<path d="M26.1403 13.6781C26.1814 13.7253 26.2317 13.7638 26.288 13.7913C26.3442 13.8188 26.4055 13.8347 26.468 13.8381C26.5306 13.8416 26.5932 13.8324 26.6522 13.8112C26.7111 13.79 26.7652 13.7572 26.8113 13.7147C26.8574 13.6723 26.8945 13.621 26.9204 13.564C26.9463 13.5069 26.9605 13.4453 26.9622 13.3827C26.9639 13.32 26.953 13.2577 26.9302 13.1993C26.9073 13.141 26.873 13.0878 26.8293 13.0429L18.6004 4.1367C18.5202 4.04998 18.4103 3.99673 18.2925 3.98761C18.1747 3.97848 18.0579 4.01415 17.9653 4.08748L10.4207 10.0195L6.85823 6.68904C6.77142 6.60798 6.65708 6.56289 6.53831 6.56289C6.41954 6.56289 6.3052 6.60798 6.21839 6.68904L4.24261 8.53357C4.19509 8.5749 4.15638 8.62538 4.1288 8.68199C4.10122 8.73861 4.08534 8.8002 4.08209 8.8631C4.07884 8.92599 4.0883 8.98889 4.1099 9.04805C4.1315 9.1072 4.1648 9.1614 4.2078 9.2074C4.25081 9.25341 4.30265 9.29027 4.36022 9.3158C4.4178 9.34132 4.47992 9.35498 4.54289 9.35597C4.60586 9.35695 4.66838 9.34524 4.72672 9.32152C4.78506 9.29781 4.83803 9.26258 4.88245 9.21795L6.53479 7.67342L12.6567 13.3898V12.1078L11.1145 10.6664L18.2043 5.08826L26.1403 13.6781Z" fill="black"/>
<path d="M27.4574 4.21878C27.4574 3.88735 27.3592 3.56335 27.175 3.28777C26.9909 3.01219 26.7292 2.7974 26.423 2.67056C26.1167 2.54373 25.7798 2.51054 25.4547 2.5752C25.1297 2.63986 24.8311 2.79947 24.5967 3.03383C24.3623 3.26819 24.2027 3.56679 24.1381 3.89186C24.0734 4.21693 24.1066 4.55387 24.2334 4.86008C24.3603 5.16629 24.5751 5.42801 24.8506 5.61215C25.1262 5.79628 25.4502 5.89457 25.7817 5.89457C26.2259 5.89395 26.6518 5.71719 26.9659 5.40306C27.2801 5.08892 27.4568 4.66304 27.4574 4.21878ZM25.7817 4.95707C25.6356 4.95707 25.4929 4.91377 25.3715 4.83264C25.2501 4.75152 25.1555 4.63622 25.0996 4.50131C25.0437 4.36641 25.0291 4.21796 25.0576 4.07475C25.086 3.93154 25.1564 3.79999 25.2596 3.69674C25.3629 3.59349 25.4944 3.52318 25.6376 3.49469C25.7808 3.4662 25.9293 3.48082 26.0642 3.5367C26.1991 3.59258 26.3144 3.68721 26.3955 3.80862C26.4766 3.93003 26.5199 4.07277 26.5199 4.21878C26.5199 4.41459 26.4422 4.60237 26.3037 4.74083C26.1652 4.87928 25.9775 4.95707 25.7817 4.95707Z" fill="black"/>
<path d="M21.5625 4.21875C21.5625 4.34307 21.6119 4.4623 21.6998 4.55021C21.7877 4.63811 21.9069 4.6875 22.0313 4.6875H22.9688C23.0931 4.6875 23.2123 4.63811 23.3002 4.55021C23.3881 4.4623 23.4375 4.34307 23.4375 4.21875C23.4375 4.09443 23.3881 3.9752 23.3002 3.88729C23.2123 3.79939 23.0931 3.75 22.9688 3.75H22.0313C21.9069 3.75 21.7877 3.79939 21.6998 3.88729C21.6119 3.9752 21.5625 4.09443 21.5625 4.21875Z" fill="black"/>
<path d="M29.5313 3.75H28.5938C28.4694 3.75 28.3502 3.79939 28.2623 3.88729C28.1744 3.9752 28.125 4.09443 28.125 4.21875C28.125 4.34307 28.1744 4.4623 28.2623 4.55021C28.3502 4.63811 28.4694 4.6875 28.5938 4.6875H29.5313C29.6556 4.6875 29.7748 4.63811 29.8627 4.55021C29.9506 4.4623 30 4.34307 30 4.21875C30 4.09443 29.9506 3.9752 29.8627 3.88729C29.7748 3.79939 29.6556 3.75 29.5313 3.75Z" fill="black"/>
<path d="M26.25 1.40625V0.46875C26.25 0.34443 26.2006 0.225201 26.1127 0.137294C26.0248 0.049386 25.9056 0 25.7813 0C25.6569 0 25.5377 0.049386 25.4498 0.137294C25.3619 0.225201 25.3125 0.34443 25.3125 0.46875V1.40625C25.3125 1.53057 25.3619 1.6498 25.4498 1.73771C25.5377 1.82561 25.6569 1.875 25.7813 1.875C25.9056 1.875 26.0248 1.82561 26.1127 1.73771C26.2006 1.6498 26.25 1.53057 26.25 1.40625Z" fill="black"/>
<path d="M26.25 7.96875V7.03125C26.25 6.90693 26.2006 6.7877 26.1127 6.69979C26.0248 6.61189 25.9056 6.5625 25.7813 6.5625C25.6569 6.5625 25.5377 6.61189 25.4498 6.69979C25.3619 6.7877 25.3125 6.90693 25.3125 7.03125V7.96875C25.3125 8.09307 25.3619 8.2123 25.4498 8.30021C25.5377 8.38811 25.6569 8.4375 25.7813 8.4375C25.9056 8.4375 26.0248 8.38811 26.1127 8.30021C26.2006 8.2123 26.25 8.09307 26.25 7.96875Z" fill="black"/>
<path d="M24.1244 1.89845L23.4611 1.23517C23.3731 1.14721 23.2539 1.0978 23.1295 1.0978C23.0051 1.0978 22.8858 1.14721 22.7978 1.23517C22.7099 1.32313 22.6605 1.44242 22.6605 1.56681C22.6605 1.6912 22.7099 1.8105 22.7978 1.89845L23.4611 2.56173C23.5047 2.60528 23.5564 2.63983 23.6133 2.6634C23.6702 2.68697 23.7312 2.6991 23.7927 2.6991C23.8543 2.6991 23.9153 2.68697 23.9722 2.6634C24.0291 2.63983 24.0808 2.60528 24.1244 2.56173C24.1679 2.51818 24.2025 2.46648 24.2261 2.40957C24.2496 2.35267 24.2618 2.29168 24.2618 2.23009C24.2618 2.1685 24.2496 2.10751 24.2261 2.05061C24.2025 1.99371 24.1679 1.942 24.1244 1.89845Z" fill="black"/>
<path d="M28.1016 7.20196C28.1895 7.28991 28.3088 7.33933 28.4332 7.33933C28.5576 7.33933 28.6769 7.28991 28.7649 7.20196C28.8528 7.114 28.9022 6.99471 28.9022 6.87032C28.9022 6.74593 28.8528 6.62663 28.7649 6.53868L28.1016 5.8754C28.0136 5.78744 27.8943 5.73803 27.7699 5.73803C27.6456 5.73803 27.5263 5.78744 27.4383 5.8754C27.3504 5.96335 27.3009 6.08265 27.3009 6.20704C27.3009 6.33143 27.3504 6.45072 27.4383 6.53868L28.1016 7.20196Z" fill="black"/>
<path d="M28.7649 1.23528C28.7213 1.1917 28.6696 1.15712 28.6127 1.13353C28.5558 1.10994 28.4948 1.0978 28.4332 1.0978C28.3716 1.0978 28.3106 1.10994 28.2537 1.13353C28.1968 1.15712 28.1451 1.1917 28.1016 1.23528L27.4383 1.89856C27.3948 1.94211 27.3602 1.99381 27.3366 2.05072C27.3131 2.10762 27.3009 2.16861 27.3009 2.2302C27.3009 2.29179 27.3131 2.35278 27.3366 2.40968C27.3602 2.46659 27.3948 2.51829 27.4383 2.56184C27.4819 2.60539 27.5336 2.63994 27.5905 2.66351C27.6474 2.68708 27.7084 2.69921 27.7699 2.69921C27.8315 2.69921 27.8925 2.68708 27.9494 2.66351C28.0063 2.63994 28.058 2.60539 28.1016 2.56184L28.7649 1.89856C28.8085 1.85503 28.843 1.80333 28.8666 1.74642C28.8902 1.68952 28.9024 1.62852 28.9024 1.56692C28.9024 1.50532 28.8902 1.44432 28.8666 1.38742C28.843 1.33051 28.8085 1.27881 28.7649 1.23528Z" fill="black"/>
<path d="M22.7978 6.53868C22.7543 6.58223 22.7197 6.63393 22.6962 6.69083C22.6726 6.74774 22.6605 6.80873 22.6605 6.87032C22.6605 6.93191 22.6726 6.9929 22.6962 7.0498C22.7197 7.1067 22.7543 7.15841 22.7978 7.20196C22.8414 7.24551 22.8931 7.28006 22.95 7.30363C23.0069 7.3272 23.0679 7.33933 23.1295 7.33933C23.1911 7.33933 23.252 7.3272 23.3089 7.30363C23.3658 7.28006 23.4175 7.24551 23.4611 7.20196L24.1244 6.53868C24.2123 6.45072 24.2618 6.33143 24.2618 6.20704C24.2618 6.08265 24.2123 5.96335 24.1244 5.8754C24.0364 5.78744 23.9171 5.73803 23.7927 5.73803C23.6684 5.73803 23.5491 5.78744 23.4611 5.8754L22.7978 6.53868Z" fill="black"/>
<path d="M3.92555 4.00347C3.96909 4.04705 4.02078 4.08163 4.07769 4.10522C4.13459 4.12881 4.19559 4.14095 4.25719 4.14095C4.31879 4.14095 4.37979 4.12881 4.4367 4.10522C4.4936 4.08163 4.5453 4.04705 4.58883 4.00347L4.78336 3.80894C4.88088 3.71128 4.9967 3.63381 5.12418 3.58096C5.25167 3.5281 5.38832 3.50089 5.52633 3.50089C5.66434 3.50089 5.801 3.5281 5.92848 3.58096C6.05597 3.63381 6.17178 3.71128 6.2693 3.80894C6.31285 3.85249 6.36456 3.88704 6.42146 3.91061C6.47836 3.93418 6.53935 3.94631 6.60094 3.94631C6.66253 3.94631 6.72352 3.93418 6.78042 3.91061C6.83733 3.88704 6.88903 3.85249 6.93258 3.80894C6.97613 3.76539 7.01068 3.71368 7.03425 3.65678C7.05782 3.59988 7.06995 3.53889 7.06995 3.4773C7.06995 3.41571 7.05782 3.35472 7.03425 3.29781C7.01068 3.24091 6.97613 3.18921 6.93258 3.14566C6.57653 2.78901 6.09855 2.58056 5.59493 2.56229C5.0913 2.54402 4.59947 2.7173 4.21852 3.04722C3.83775 2.81584 3.39035 2.71896 2.94797 2.77208C2.50559 2.82519 2.09384 3.02525 1.77868 3.34019C1.69072 3.42814 1.64131 3.54744 1.64131 3.67183C1.64131 3.79622 1.69072 3.91551 1.77868 4.00347C1.86663 4.09143 1.98593 4.14084 2.11032 4.14084C2.23471 4.14084 2.354 4.09143 2.44196 4.00347C2.63912 3.80753 2.90579 3.69756 3.18375 3.69756C3.46172 3.69756 3.72839 3.80753 3.92555 4.00347Z" fill="black"/>
<path d="M1.40625 28.125H2.34375C2.46807 28.125 2.5873 28.0756 2.67521 27.9877C2.76311 27.8998 2.8125 27.7806 2.8125 27.6563C2.8125 26.786 3.1582 25.9514 3.77356 25.3361C4.38891 24.7207 5.22351 24.375 6.09375 24.375C6.96399 24.375 7.79859 24.7207 8.41394 25.3361C9.0293 25.9514 9.375 26.786 9.375 27.6563C9.375 27.7806 9.42439 27.8998 9.51229 27.9877C9.6002 28.0756 9.71943 28.125 9.84375 28.125H14.5313C14.6556 28.125 14.7748 28.0756 14.8627 27.9877C14.9506 27.8998 15 27.7806 15 27.6563C15 26.786 15.3457 25.9514 15.9611 25.3361C16.5764 24.7207 17.411 24.375 18.2813 24.375C19.1515 24.375 19.9861 24.7207 20.6014 25.3361C21.2168 25.9514 21.5625 26.786 21.5625 27.6563C21.5625 27.7806 21.6119 27.8998 21.6998 27.9877C21.7877 28.0756 21.9069 28.125 22.0313 28.125H23.9063C24.0306 28.125 24.1498 28.0756 24.2377 27.9877C24.3256 27.8998 24.375 27.7806 24.375 27.6563V22.0313C24.3746 20.5978 23.921 19.2012 23.0791 18.0411C22.2373 16.881 21.0501 16.0167 19.6875 15.5719V11.7188C19.6893 11.6078 19.6517 11.4997 19.5813 11.4139C19.5109 11.328 19.4123 11.27 19.3031 11.25L14.1469 10.3125C14.0787 10.3 14.0085 10.3028 13.9415 10.3207C13.8745 10.3386 13.8123 10.3711 13.7594 10.416C13.7065 10.4608 13.6642 10.5168 13.6355 10.58C13.6069 10.6432 13.5926 10.7119 13.5938 10.7813V14.0203C13.5931 14.0876 13.607 14.1542 13.6344 14.2156C13.6618 14.277 13.7021 14.3319 13.7526 14.3763C13.8031 14.4208 13.8625 14.4539 13.9269 14.4733C13.9913 14.4928 14.0591 14.4981 14.1258 14.4891L18.75 13.8563V15.3398C18.3632 15.2709 17.9711 15.2356 17.5781 15.2344H0.9375C0.68886 15.2344 0.450403 15.3331 0.274587 15.509C0.0987721 15.6848 0 15.9232 0 16.1719V26.7188C0 27.0917 0.148158 27.4494 0.411881 27.7131C0.675604 27.9768 1.03329 28.125 1.40625 28.125ZM14.5313 13.4836V11.3438L18.75 12.1102V12.9094L14.5313 13.4836ZM16.875 16.1719H17.5781C19.051 16.1719 20.4698 16.7266 21.5522 17.7255C22.6345 18.7244 23.3009 20.0944 23.4188 21.5625H16.875V16.1719ZM0.9375 22.5H3.51563C3.63995 22.5 3.75917 22.4506 3.84708 22.3627C3.93499 22.2748 3.98438 22.1556 3.98438 22.0313C3.98438 21.9069 3.93499 21.7877 3.84708 21.6998C3.75917 21.6119 3.63995 21.5625 3.51563 21.5625H0.9375V16.1719H15.9375V21.5625H5.85938C5.73505 21.5625 5.61583 21.6119 5.52792 21.6998C5.44001 21.7877 5.39063 21.9069 5.39063 22.0313C5.39063 22.1556 5.44001 22.2748 5.52792 22.3627C5.61583 22.4506 5.73505 22.5 5.85938 22.5H23.4375V27.1875H22.4719C22.3526 26.1597 21.8598 25.2116 21.0872 24.5235C20.3145 23.8353 19.3159 23.4551 18.2813 23.4551C17.2466 23.4551 16.248 23.8353 15.4753 24.5235C14.7027 25.2116 14.2099 26.1597 14.0906 27.1875H10.2867C10.1697 26.1577 9.67778 25.207 8.90466 24.5167C8.13153 23.8264 7.13136 23.4449 6.09492 23.4449C5.05848 23.4449 4.05831 23.8264 3.28519 24.5167C2.51206 25.207 2.0201 26.1577 1.90313 27.1875H1.40625C1.28193 27.1875 1.1627 27.1381 1.07479 27.0502C0.986886 26.9623 0.9375 26.8431 0.9375 26.7188V22.5Z" fill="black"/>
<path d="M18.2813 30C18.7448 30 19.1979 29.8625 19.5834 29.605C19.9688 29.3475 20.2692 28.9814 20.4466 28.5532C20.624 28.1249 20.6704 27.6537 20.58 27.199C20.4895 26.7444 20.2663 26.3267 19.9385 25.999C19.6108 25.6712 19.1931 25.448 18.7385 25.3575C18.2839 25.2671 17.8126 25.3135 17.3843 25.4909C16.9561 25.6683 16.59 25.9687 16.3325 26.3541C16.075 26.7396 15.9375 27.1927 15.9375 27.6563C15.9375 28.2779 16.1844 28.874 16.624 29.3135C17.0635 29.7531 17.6596 30 18.2813 30ZM18.2813 26.25C18.5594 26.25 18.8313 26.3325 19.0625 26.487C19.2938 26.6415 19.474 26.8611 19.5805 27.1181C19.6869 27.3751 19.7147 27.6578 19.6605 27.9306C19.6062 28.2034 19.4723 28.4539 19.2756 28.6506C19.079 28.8473 18.8284 28.9812 18.5556 29.0355C18.2828 29.0897 18.0001 29.0619 17.7431 28.9555C17.4861 28.849 17.2665 28.6688 17.112 28.4375C16.9575 28.2063 16.875 27.9344 16.875 27.6563C16.875 27.2833 17.0232 26.9256 17.2869 26.6619C17.5506 26.3982 17.9083 26.25 18.2813 26.25Z" fill="black"/>
<path d="M8.4375 27.6563C8.4375 27.1927 8.30004 26.7396 8.04251 26.3541C7.78497 25.9687 7.41893 25.6683 6.99067 25.4909C6.5624 25.3135 6.09115 25.2671 5.63651 25.3575C5.18186 25.448 4.76425 25.6712 4.43647 25.999C4.10869 26.3267 3.88547 26.7444 3.79504 27.199C3.7046 27.6537 3.75102 28.1249 3.92841 28.5532C4.1058 28.9814 4.40621 29.3475 4.79163 29.605C5.17706 29.8625 5.6302 30 6.09375 30C6.71535 30 7.31149 29.7531 7.75103 29.3135C8.19057 28.874 8.4375 28.2779 8.4375 27.6563ZM6.09375 29.0625C5.81562 29.0625 5.54374 28.98 5.31248 28.8255C5.08122 28.671 4.90098 28.4514 4.79455 28.1944C4.68811 27.9374 4.66026 27.6547 4.71452 27.3819C4.76878 27.1091 4.90271 26.8585 5.09938 26.6619C5.29605 26.4652 5.54662 26.3313 5.81941 26.277C6.09219 26.2228 6.37494 26.2506 6.6319 26.357C6.88886 26.4635 7.10848 26.6437 7.263 26.875C7.41753 27.1062 7.5 27.3781 7.5 27.6563C7.5 28.0292 7.35184 28.3869 7.08812 28.6506C6.8244 28.9143 6.46671 29.0625 6.09375 29.0625Z" fill="black"/>
<path d="M5.625 20.1562V17.5781C5.625 17.4538 5.57561 17.3346 5.48771 17.2467C5.3998 17.1588 5.28057 17.1094 5.15625 17.1094H2.34375C2.21943 17.1094 2.1002 17.1588 2.01229 17.2467C1.92439 17.3346 1.875 17.4538 1.875 17.5781V20.1562C1.875 20.2806 1.92439 20.3998 2.01229 20.4877C2.1002 20.5756 2.21943 20.625 2.34375 20.625H5.15625C5.28057 20.625 5.3998 20.5756 5.48771 20.4877C5.57561 20.3998 5.625 20.2806 5.625 20.1562ZM4.6875 19.6875H2.8125V18.0469H4.6875V19.6875Z" fill="black"/>
<path d="M7.03125 20.625H9.84375C9.96807 20.625 10.0873 20.5756 10.1752 20.4877C10.2631 20.3998 10.3125 20.2806 10.3125 20.1562V17.5781C10.3125 17.4538 10.2631 17.3346 10.1752 17.2467C10.0873 17.1588 9.96807 17.1094 9.84375 17.1094H7.03125C6.90693 17.1094 6.7877 17.1588 6.69979 17.2467C6.61189 17.3346 6.5625 17.4538 6.5625 17.5781V20.1562C6.5625 20.2806 6.61189 20.3998 6.69979 20.4877C6.7877 20.5756 6.90693 20.625 7.03125 20.625ZM7.5 18.0469H9.375V19.6875H7.5V18.0469Z" fill="black"/>
<path d="M11.7188 20.625H14.5313C14.6556 20.625 14.7748 20.5756 14.8627 20.4877C14.9506 20.3998 15 20.2806 15 20.1562V17.5781C15 17.4538 14.9506 17.3346 14.8627 17.2467C14.7748 17.1588 14.6556 17.1094 14.5313 17.1094H11.7188C11.5944 17.1094 11.4752 17.1588 11.3873 17.2467C11.2994 17.3346 11.25 17.4538 11.25 17.5781V20.1562C11.25 20.2806 11.2994 20.3998 11.3873 20.4877C11.4752 20.5756 11.5944 20.625 11.7188 20.625ZM12.1875 18.0469H14.0625V19.6875H12.1875V18.0469Z" fill="black"/>
</svg>
